<svg xmlns="http://www.w3.org/2000/svg" xmlns:xlink="http://www.w3.org/1999/xlink" xmlns:lucid="lucid" width="3958" height="4479.67"><g transform="translate(936.0619388813045 1765.3716774177014)" lucid:page-tab-id="0_0"><path d="M-1000-2000h4500v5000h-4500z" fill="#fff"/><path d="M-915.06 699.63a6 6 0 0 1 6-6h190a6 6 0 0 1 6 6v150a6 6 0 0 1-6 6h-190a6 6 0 0 1-6-6z" stroke="#ff80df" stroke-width="2" fill="#fff0fb"/><use xlink:href="#a" transform="matrix(1,0,0,1,-903.0619388813045,705.6283225822986) translate(35.97530864197531 73.84027777777777)"/><use xlink:href="#b" transform="matrix(1,0,0,1,-903.0619388813045,705.6283225822986) translate(89 73.84027777777777)"/><path d="M185.25 698.38a7.5 7.5 0 0 1 9.37 0l90.63 72.5a4.8 4.8 0 0 1 0 7.5l-90.63 72.5a7.5 7.5 0 0 1-9.37 0l-90.63-72.5a4.8 4.8 0 0 1 0-7.5z" stroke="#6db1ff" stroke-width="2" fill="#edf5ff"/><use xlink:href="#c" transform="matrix(1,0,0,1,94.93806111869549,699.6283225822986) translate(40.159320987654326 64.65277777777777)"/><use xlink:href="#d" transform="matrix(1,0,0,1,94.93806111869549,699.6283225822986) translate(94.35685185185186 64.65277777777777)"/><use xlink:href="#e" transform="matrix(1,0,0,1,94.93806111869549,699.6283225822986) translate(56.76425925925926 91.31944444444446)"/><path d="M786.82 337.38a7.5 7.5 0 0 1 9.38 0l90.62 72.5a4.8 4.8 0 0 1 0 7.5l-90.63 72.5a7.5 7.5 0 0 1-9.38 0l-90.63-72.5a4.8 4.8 0 0 1 0-7.5z" stroke="#6db1ff" stroke-width="2" fill="#edf5ff"/><use xlink:href="#f" transform="matrix(1,0,0,1,696.5094896901242,338.62832258229855) translate(54.9124074074074 64.65277777777777)"/><use xlink:href="#g" transform="matrix(1,0,0,1,696.5094896901242,338.62832258229855) translate(51.177839506172845 91.31944444444446)"/><path d="M786.82 1100.38a7.5 7.5 0 0 1 9.38 0l90.62 72.5a4.8 4.8 0 0 1 0 7.5l-90.63 72.5a7.5 7.5 0 0 1-9.38 0l-90.63-72.5a4.8 4.8 0 0 1 0-7.5z" stroke="#6db1ff" stroke-width="2" fill="#edf5ff"/><use xlink:href="#f" transform="matrix(1,0,0,1,696.5094896901242,1101.6283225822986) translate(54.9124074074074 64.65277777777777)"/><use xlink:href="#h" transform="matrix(1,0,0,1,696.5094896901242,1101.6283225822986) translate(50.004999999999995 91.31944444444446)"/><path d="M787.6-385.62a7.5 7.5 0 0 1 9.36 0l90.63 72.5a4.8 4.8 0 0 1 0 7.5l-90.64 72.5a7.5 7.5 0 0 1-9.37 0l-90.64-72.5a4.8 4.8 0 0 1 0-7.5z" stroke="#6db1ff" stroke-width="2" fill="#edf5ff"/><use xlink:href="#f" transform="matrix(1,0,0,1,697.2713944520287,-384.37167741770145) translate(54.9124074074074 64.65277777777777)"/><use xlink:href="#i" transform="matrix(1,0,0,1,697.2713944520287,-384.37167741770145) translate(53.708703703703705 91.31944444444446)"/><path d="M690.94 699.63a6 6 0 0 1 6-6h190a6 6 0 0 1 6 6v150a6 6 0 0 1-6 6h-190a6 6 0 0 1-6-6z" stroke="#ff80df" stroke-width="2" fill="#fff0fb"/><use xlink:href="#j" transform="matrix(1,0,0,1,702.9380611186955,705.6283225822986) translate(40.91358024691358 73.84027777777777)"/><use xlink:href="#b" transform="matrix(1,0,0,1,702.9380611186955,705.6283225822986) translate(84.06172839506173 73.84027777777777)"/><path d="M1392.94-730.37a6 6 0 0 1 6-6h190a6 6 0 0 1 6 6v150a6 6 0 0 1-6 6h-190a6 6 0 0 1-6-6z" stroke="#ff80df" stroke-width="2" fill="#fff0fb"/><use xlink:href="#k" transform="matrix(1,0,0,1,1404.9380611186955,-724.3716774177014) translate(27.888888888888893 47.96527777777778)"/><use xlink:href="#l" transform="matrix(1,0,0,1,1404.9380611186955,-724.3716774177014) translate(73.5679012345679 47.96527777777778)"/><use xlink:href="#m" transform="matrix(1,0,0,1,1404.9380611186955,-724.3716774177014) translate(21.808641975308646 74.63194444444446)"/><use xlink:href="#n" transform="matrix(1,0,0,1,1404.9380611186955,-724.3716774177014) translate(90.88271604938272 74.63194444444446)"/><use xlink:href="#o" transform="matrix(1,0,0,1,1404.9380611186955,-724.3716774177014) translate(65.57407407407408 101.29861111111111)"/><path d="M1392.94 378.63a6 6 0 0 1 6-6h190a6 6 0 0 1 6 6v150a6 6 0 0 1-6 6h-190a6 6 0 0 1-6-6z" stroke="#ff80df" stroke-width="2" fill="#fff0fb"/><use xlink:href="#p" transform="matrix(1,0,0,1,1404.9380611186955,384.62832258229855) translate(37.302469135802475 47.96527777777778)"/><use xlink:href="#q" transform="matrix(1,0,0,1,1404.9380611186955,384.62832258229855) translate(116.12962962962962 47.96527777777778)"/><use xlink:href="#r" transform="matrix(1,0,0,1,1404.9380611186955,384.62832258229855) translate(1.9938271604938365 74.63194444444446)"/><use xlink:href="#s" transform="matrix(1,0,0,1,1404.9380611186955,384.62832258229855) translate(95.82098765432099 74.63194444444446)"/><use xlink:href="#t" transform="matrix(1,0,0,1,1404.9380611186955,384.62832258229855) translate(8.81481481481481 101.29861111111111)"/><use xlink:href="#u" transform="matrix(1,0,0,1,1404.9380611186955,384.62832258229855) translate(49.49382716049382 101.29861111111111)"/><use xlink:href="#v" transform="matrix(1,0,0,1,1404.9380611186955,384.62832258229855) translate(74.18518518518518 101.29861111111111)"/><path d="M-215.75 348.04a7.5 7.5 0 0 1 9.37 0l90.63 72.5a4.8 4.8 0 0 1 0 7.5l-90.63 72.5a7.5 7.5 0 0 1-9.37 0l-90.63-72.5a4.8 4.8 0 0 1 0-7.5z" stroke="#6db1ff" stroke-width="2" fill="#edf5ff"/><use xlink:href="#w" transform="matrix(1,0,0,1,-306.0619388813045,349.29498924896507) translate(40.06672839506173 64.65277777777777)"/><use xlink:href="#x" transform="matrix(1,0,0,1,-306.0619388813045,349.29498924896507) translate(75.8691975308642 64.65277777777777)"/><use xlink:href="#y" transform="matrix(1,0,0,1,-306.0619388813045,349.29498924896507) translate(131.42475308641977 64.65277777777777)"/><use xlink:href="#z" transform="matrix(1,0,0,1,-306.0619388813045,349.29498924896507) translate(33.986481481481476 91.31944444444446)"/><use xlink:href="#A" transform="matrix(1,0,0,1,-306.0619388813045,349.29498924896507) translate(88.18401234567901 91.31944444444446)"/><path d="M-313.06-22.37a6 6 0 0 1 6-6h190a6 6 0 0 1 6 6v150a6 6 0 0 1-6 6h-190a6 6 0 0 1-6-6z" stroke="#ff80df" stroke-width="2" fill="#fff0fb"/><use xlink:href="#B" transform="matrix(1,0,0,1,-301.0619388813045,-16.37167741770145) translate(32.95061728395061 60.90277777777778)"/><use xlink:href="#C" transform="matrix(1,0,0,1,-301.0619388813045,-16.37167741770145) translate(57.54938271604938 87.56944444444446)"/><path d="M88.94-22.37a6 6 0 0 1 6-6h190a6 6 0 0 1 6 6v150a6 6 0 0 1-6 6h-190a6 6 0 0 1-6-6z" stroke="#ff80df" stroke-width="2" fill="#fff0fb"/><use xlink:href="#D" transform="matrix(1,0,0,1,100.93806111869549,-16.37167741770145) translate(27.364197530864203 73.84027777777777)"/><use xlink:href="#E" transform="matrix(1,0,0,1,100.93806111869549,-16.37167741770145) translate(100.08024691358024 73.84027777777777)"/><path d="M1994.94 881.63a6 6 0 0 1 6-6h190a6 6 0 0 1 6 6v150a6 6 0 0 1-6 6h-190a6 6 0 0 1-6-6z" stroke="#ff80df" stroke-width="2" fill="#fff0fb"/><use xlink:href="#B" transform="matrix(1,0,0,1,2006.9380611186955,887.6283225822986) translate(32.95061728395061 60.90277777777778)"/><use xlink:href="#C" transform="matrix(1,0,0,1,2006.9380611186955,887.6283225822986) translate(57.54938271604938 87.56944444444446)"/><path d="M88.94 1630.3a6 6 0 0 1 6-6h190a6 6 0 0 1 6 6v150a6 6 0 0 1-6 6h-190a6 6 0 0 1-6-6z" stroke="#ff80df" stroke-width="2" fill="#fff0fb"/><use xlink:href="#D" transform="matrix(1,0,0,1,100.93806111869549,1636.294989248965) translate(27.364197530864203 73.84027777777777)"/><use xlink:href="#E" transform="matrix(1,0,0,1,100.93806111869549,1636.294989248965) translate(100.08024691358024 73.84027777777777)"/><path d="M1392.94 2355.3a6 6 0 0 1 6-6h190a6 6 0 0 1 6 6v150a6 6 0 0 1-6 6h-190a6 6 0 0 1-6-6z" stroke="#ff80df" stroke-width="2" fill="#fff0fb"/><use xlink:href="#k" transform="matrix(1,0,0,1,1404.9380611186955,2361.2949892489646) translate(26.71604938271605 47.96527777777778)"/><use xlink:href="#F" transform="matrix(1,0,0,1,1404.9380611186955,2361.2949892489646) translate(72.39506172839506 47.96527777777778)"/><use xlink:href="#m" transform="matrix(1,0,0,1,1404.9380611186955,2361.2949892489646) translate(21.808641975308646 74.63194444444446)"/><use xlink:href="#n" transform="matrix(1,0,0,1,1404.9380611186955,2361.2949892489646) translate(90.88271604938272 74.63194444444446)"/><use xlink:href="#G" transform="matrix(1,0,0,1,1404.9380611186955,2361.2949892489646) translate(48.32098765432099 101.29861111111111)"/><path d="M1392.94 1061.63a6 6 0 0 1 6-6h190a6 6 0 0 1 6 6v150a6 6 0 0 1-6 6h-190a6 6 0 0 1-6-6z" stroke="#ff80df" stroke-width="2" fill="#fff0fb"/><use xlink:href="#p" transform="matrix(1,0,0,1,1404.9380611186955,1067.6283225822986) translate(37.302469135802475 47.96527777777778)"/><use xlink:href="#q" transform="matrix(1,0,0,1,1404.9380611186955,1067.6283225822986) translate(116.12962962962962 47.96527777777778)"/><use xlink:href="#H" transform="matrix(1,0,0,1,1404.9380611186955,1067.6283225822986) translate(0.8209876543209873 74.63194444444446)"/><use xlink:href="#s" transform="matrix(1,0,0,1,1404.9380611186955,1067.6283225822986) translate(96.99382716049382 74.63194444444446)"/><use xlink:href="#t" transform="matrix(1,0,0,1,1404.9380611186955,1067.6283225822986) translate(7.641975308641975 101.29861111111111)"/><use xlink:href="#u" transform="matrix(1,0,0,1,1404.9380611186955,1067.6283225822986) translate(48.32098765432099 101.29861111111111)"/><use xlink:href="#I" transform="matrix(1,0,0,1,1404.9380611186955,1067.6283225822986) translate(73.01234567901234 101.29861111111111)"/><path d="M-215.75 906.04a7.5 7.5 0 0 1 9.37 0l90.63 72.5a4.8 4.8 0 0 1 0 7.5l-90.63 72.5a7.5 7.5 0 0 1-9.37 0l-90.63-72.5a4.8 4.8 0 0 1 0-7.5z" stroke="#6db1ff" stroke-width="2" fill="#edf5ff"/><use xlink:href="#w" transform="matrix(1,0,0,1,-306.0619388813045,907.2949892489651) translate(40.06672839506173 64.65277777777777)"/><use xlink:href="#x" transform="matrix(1,0,0,1,-306.0619388813045,907.2949892489651) translate(75.8691975308642 64.65277777777777)"/><use xlink:href="#y" transform="matrix(1,0,0,1,-306.0619388813045,907.2949892489651) translate(131.42475308641977 64.65277777777777)"/><use xlink:href="#z" transform="matrix(1,0,0,1,-306.0619388813045,907.2949892489651) translate(33.986481481481476 91.31944444444446)"/><use xlink:href="#A" transform="matrix(1,0,0,1,-306.0619388813045,907.2949892489651) translate(88.18401234567901 91.31944444444446)"/><path d="M-313.06 1993.3a6 6 0 0 1 6-6h190a6 6 0 0 1 6 6v150a6 6 0 0 1-6 6h-190a6 6 0 0 1-6-6z" stroke="#ff80df" stroke-width="2" fill="#fff0fb"/><use xlink:href="#B" transform="matrix(1,0,0,1,-301.0619388813045,1999.294989248965) translate(32.95061728395061 60.90277777777778)"/><use xlink:href="#C" transform="matrix(1,0,0,1,-301.0619388813045,1999.294989248965) translate(57.54938271604938 87.56944444444446)"/><path d="M88.94 1993.3a6 6 0 0 1 6-6h190a6 6 0 0 1 6 6v150a6 6 0 0 1-6 6h-190a6 6 0 0 1-6-6z" stroke="#ff80df" stroke-width="2" fill="#fff0fb"/><use xlink:href="#D" transform="matrix(1,0,0,1,100.93806111869549,1999.294989248965) translate(27.364197530864203 73.84027777777777)"/><use xlink:href="#E" transform="matrix(1,0,0,1,100.93806111869549,1999.294989248965) translate(100.08024691358024 73.84027777777777)"/><path d="M-313.06 1268.3a6 6 0 0 1 6-6h190a6 6 0 0 1 6 6v150a6 6 0 0 1-6 6h-190a6 6 0 0 1-6-6z" stroke="#ff80df" stroke-width="2" fill="#fff0fb"/><use xlink:href="#B" transform="matrix(1,0,0,1,-301.0619388813045,1274.294989248965) translate(32.95061728395061 60.90277777777778)"/><use xlink:href="#C" transform="matrix(1,0,0,1,-301.0619388813045,1274.294989248965) translate(57.54938271604938 87.56944444444446)"/><path d="M88.94 1268.3a6 6 0 0 1 6-6h190a6 6 0 0 1 6 6v150a6 6 0 0 1-6 6h-190a6 6 0 0 1-6-6z" stroke="#ff80df" stroke-width="2" fill="#fff0fb"/><use xlink:href="#D" transform="matrix(1,0,0,1,100.93806111869549,1274.294989248965) translate(27.364197530864203 73.84027777777777)"/><use xlink:href="#E" transform="matrix(1,0,0,1,100.93806111869549,1274.294989248965) translate(100.08024691358024 73.84027777777777)"/><path d="M1392.94-368.37a6 6 0 0 1 6-6h190a6 6 0 0 1 6 6v150a6 6 0 0 1-6 6h-190a6 6 0 0 1-6-6z" stroke="#ff80df" stroke-width="2" fill="#fff0fb"/><use xlink:href="#k" transform="matrix(1,0,0,1,1404.9380611186955,-362.37167741770145) translate(30.419753086419753 47.96527777777778)"/><use xlink:href="#J" transform="matrix(1,0,0,1,1404.9380611186955,-362.37167741770145) translate(76.09876543209876 47.96527777777778)"/><use xlink:href="#m" transform="matrix(1,0,0,1,1404.9380611186955,-362.37167741770145) translate(18.72222222222223 74.63194444444446)"/><use xlink:href="#J" transform="matrix(1,0,0,1,1404.9380611186955,-362.37167741770145) translate(87.7962962962963 74.63194444444446)"/><use xlink:href="#K" transform="matrix(1,0,0,1,1404.9380611186955,-362.37167741770145) translate(55.75925925925926 101.29861111111111)"/><path d="M1392.94-1455.37a6 6 0 0 1 6-6h190a6 6 0 0 1 6 6v150a6 6 0 0 1-6 6h-190a6 6 0 0 1-6-6z" stroke="#ff80df" stroke-width="2" fill="#fff0fb"/><use xlink:href="#p" transform="matrix(1,0,0,1,1404.9380611186955,-1449.3716774177014) translate(37.302469135802475 47.96527777777778)"/><use xlink:href="#q" transform="matrix(1,0,0,1,1404.9380611186955,-1449.3716774177014) translate(116.12962962962962 47.96527777777778)"/><use xlink:href="#L" transform="matrix(1,0,0,1,1404.9380611186955,-1449.3716774177014) translate(4.524691358024697 74.63194444444446)"/><use xlink:href="#s" transform="matrix(1,0,0,1,1404.9380611186955,-1449.3716774177014) translate(93.29012345679013 74.63194444444446)"/><use xlink:href="#t" transform="matrix(1,0,0,1,1404.9380611186955,-1449.3716774177014) translate(11.34567901234567 101.29861111111111)"/><use xlink:href="#u" transform="matrix(1,0,0,1,1404.9380611186955,-1449.3716774177014) translate(52.02469135802468 101.29861111111111)"/><use xlink:href="#M" transform="matrix(1,0,0,1,1404.9380611186955,-1449.3716774177014) translate(76.71604938271604 101.29861111111111)"/><path d="M1392.94-1093.37a6 6 0 0 1 6-6h190a6 6 0 0 1 6 6v150a6 6 0 0 1-6 6h-190a6 6 0 0 1-6-6z" stroke="#ff80df" stroke-width="2" fill="#fff0fb"/><use xlink:href="#N" transform="matrix(1,0,0,1,1404.9380611186955,-1087.3716774177014) translate(8.78395061728395 47.96527777777778)"/><use xlink:href="#O" transform="matrix(1,0,0,1,1404.9380611186955,-1087.3716774177014) translate(81.56172839506172 47.96527777777778)"/><use xlink:href="#P" transform="matrix(1,0,0,1,1404.9380611186955,-1087.3716774177014) translate(10.049382716049394 74.63194444444446)"/><use xlink:href="#H" transform="matrix(1,0,0,1,1404.9380611186955,-1087.3716774177014) translate(53.259259259259274 74.63194444444446)"/><use xlink:href="#y" transform="matrix(1,0,0,1,1404.9380611186955,-1087.3716774177014) translate(149.4320987654321 74.63194444444446)"/><use xlink:href="#i" transform="matrix(1,0,0,1,1404.9380611186955,-1087.3716774177014) translate(47.7037037037037 101.29861111111111)"/><path d="M1488.25-8.62a7.5 7.5 0 0 1 9.37 0l90.63 72.5a4.8 4.8 0 0 1 0 7.5l-90.63 72.5a7.5 7.5 0 0 1-9.37 0l-90.63-72.5a4.8 4.8 0 0 1 0-7.5z" stroke="#6db1ff" stroke-width="2" fill="#edf5ff"/><use xlink:href="#w" transform="matrix(1,0,0,1,1397.9380611186955,-7.371677417701449) translate(40.06672839506173 64.65277777777777)"/><use xlink:href="#x" transform="matrix(1,0,0,1,1397.9380611186955,-7.371677417701449) translate(75.8691975308642 64.65277777777777)"/><use xlink:href="#y" transform="matrix(1,0,0,1,1397.9380611186955,-7.371677417701449) translate(131.42475308641977 64.65277777777777)"/><use xlink:href="#z" transform="matrix(1,0,0,1,1397.9380611186955,-7.371677417701449) translate(33.986481481481476 91.31944444444446)"/><use xlink:href="#A" transform="matrix(1,0,0,1,1397.9380611186955,-7.371677417701449) translate(88.18401234567901 91.31944444444446)"/><path d="M1994.94-368.37a6 6 0 0 1 6-6h190a6 6 0 0 1 6 6v150a6 6 0 0 1-6 6h-190a6 6 0 0 1-6-6z" stroke="#ff80df" stroke-width="2" fill="#fff0fb"/><use xlink:href="#B" transform="matrix(1,0,0,1,2006.9380611186955,-362.37167741770145) translate(32.95061728395061 60.90277777777778)"/><use xlink:href="#C" transform="matrix(1,0,0,1,2006.9380611186955,-362.37167741770145) translate(57.54938271604938 87.56944444444446)"/><path d="M2396.94-368.37a6 6 0 0 1 6-6h190a6 6 0 0 1 6 6v150a6 6 0 0 1-6 6h-190a6 6 0 0 1-6-6z" stroke="#ff80df" stroke-width="2" fill="#fff0fb"/><use xlink:href="#D" transform="matrix(1,0,0,1,2408.9380611186953,-362.37167741770145) translate(27.364197530864203 73.84027777777777)"/><use xlink:href="#E" transform="matrix(1,0,0,1,2408.9380611186953,-362.37167741770145) translate(100.08024691358024 73.84027777777777)"/><path d="M-313.06-746.37a6 6 0 0 1 6-6h190a6 6 0 0 1 6 6v150a6 6 0 0 1-6 6h-190a6 6 0 0 1-6-6z" stroke="#ff80df" stroke-width="2" fill="#fff0fb"/><use xlink:href="#B" transform="matrix(1,0,0,1,-301.0619388813045,-740.3716774177014) translate(32.95061728395061 60.90277777777778)"/><use xlink:href="#C" transform="matrix(1,0,0,1,-301.0619388813045,-740.3716774177014) translate(57.54938271604938 87.56944444444446)"/><path d="M88.94-746.37a6 6 0 0 1 6-6h190a6 6 0 0 1 6 6v150a6 6 0 0 1-6 6h-190a6 6 0 0 1-6-6z" stroke="#ff80df" stroke-width="2" fill="#fff0fb"/><use xlink:href="#D" transform="matrix(1,0,0,1,100.93806111869549,-740.3716774177014) translate(27.364197530864203 73.84027777777777)"/><use xlink:href="#E" transform="matrix(1,0,0,1,100.93806111869549,-740.3716774177014) translate(100.08024691358024 73.84027777777777)"/><path d="M-313.06-384.37a6 6 0 0 1 6-6h190a6 6 0 0 1 6 6v150a6 6 0 0 1-6 6h-190a6 6 0 0 1-6-6z" stroke="#ff80df" stroke-width="2" fill="#fff0fb"/><use xlink:href="#B" transform="matrix(1,0,0,1,-301.0619388813045,-378.37167741770145) translate(32.95061728395061 60.90277777777778)"/><use xlink:href="#C" transform="matrix(1,0,0,1,-301.0619388813045,-378.37167741770145) translate(57.54938271604938 87.56944444444446)"/><path d="M88.94-384.37a6 6 0 0 1 6-6h190a6 6 0 0 1 6 6v150a6 6 0 0 1-6 6h-190a6 6 0 0 1-6-6z" stroke="#ff80df" stroke-width="2" fill="#fff0fb"/><use xlink:href="#D" transform="matrix(1,0,0,1,100.93806111869549,-378.37167741770145) translate(27.364197530864203 73.84027777777777)"/><use xlink:href="#E" transform="matrix(1,0,0,1,100.93806111869549,-378.37167741770145) translate(100.08024691358024 73.84027777777777)"/><path d="M2798.94 699.63a6 6 0 0 1 6-6h190a6 6 0 0 1 6 6v150a6 6 0 0 1-6 6h-190a6 6 0 0 1-6-6z" stroke="#ff80df" stroke-width="2" fill="#fff0fb"/><use xlink:href="#Q" transform="matrix(1,0,0,1,2810.9380611186953,705.6283225822986) translate(39.64814814814815 73.84027777777777)"/><use xlink:href="#b" transform="matrix(1,0,0,1,2810.9380611186953,705.6283225822986) translate(85.32716049382717 73.84027777777777)"/><path d="M75.43 775.1h-787v-.95h787z" stroke="#3a414a" stroke-width=".05" fill="#3a414a"/><path d="M-711.55 775.1h-.5v-.95h.5z" fill="#3a414a"/><path stroke="#3a414a" stroke-width=".05" fill="#3a414a"/><path d="M90.2 774.63l-14.27 4.63V770z" fill="#3a414a"/><path d="M91.74 774.63l-16.28 5.3v-10.6zM76.4 778.6l12.26-3.97-12.25-3.98zM391.4 949.65l-.06 1-.24.98-.4.94-.52.86-.66.78-.77.67-.87.53-.94.4-1 .23-.98.07H195.92l-1-.08-.98-.23-.94-.4-.87-.53-.77-.66-.66-.77-.53-.86-.4-.94-.23-1-.08-.98v-95.62h.95v95.58l.08.9.2.84.34.8.45.74.56.65.66.57.73.45.8.33.84.2.9.07H384.9l.88-.07.84-.2.8-.33.75-.45.64-.57.57-.65.46-.74.33-.8.2-.85.06-.9V695.68h.95zM694.33 431.5H396.96l-.9.08-.83.2-.8.33-.74.46-.67.57-.56.66-.45.72-.33.8-.22.85-.07.88v237.28h-.94V437l.08-.98.24-1 .4-.93.52-.88.66-.77.77-.66.87-.54.94-.4 1-.23.98-.07h297.4z" stroke="#3a414a" stroke-width=".05" fill="#3a414a"/><path d="M189.94 853.53l.47-.04v.54h-.94v-.55z" fill="#3a414a"/><path stroke="#3a414a" stroke-width=".05" fill="#3a414a"/><path d="M705.3 427.65l-12.27 8.63-2.73-8.86z" fill="#3a414a"/><path d="M706.76 427.2l-14 9.84-3.1-10.1zm-13.47 8.3l10.53-7.4-12.9-.2z" stroke="#3a414a" stroke-width=".05" fill="#3a414a"/><use xlink:href="#R" transform="matrix(1,0,0,1,317.5553450693128,674.3341919665407) translate(0 14.222222222222223)"/><use xlink:href="#S" transform="matrix(1,0,0,1,317.5553450693128,674.3341919665407) translate(70.96296296296296 14.222222222222223)"/><path d="M391.4 1130.5l.08.9.2.83.34.8.45.74.56.66.66.56.73.44.8.34.84.2.9.07h324.28v.95H396.92l-1-.08-.98-.24-.94-.4-.87-.52-.77-.66-.66-.77-.53-.87-.4-.93-.23-1-.08-1v-52h.95zm-201-180.9l.08.9.2.84.34.8.45.74.56.65.66.57.73.45.8.33.84.2.9.07h189l.98.08 1 .24.93.4.87.52.77.65.66.77.53.87.4.93.23 1 .08.98v95.6h-.94v-95.55l-.07-.9-.2-.83-.34-.8-.45-.74-.56-.66-.65-.56-.75-.45-.8-.33-.85-.2-.88-.07h-189l-1-.08-.98-.23-.94-.4-.87-.53-.77-.66-.66-.77-.53-.86-.4-.94-.23-1-.08-.98v-95.62h.95z" stroke="#3a414a" stroke-width=".05" fill="#3a414a"/><path d="M189.94 853.53l.47-.04v.54h-.94v-.55z" fill="#3a414a"/><path stroke="#3a414a" stroke-width=".05" fill="#3a414a"/><path d="M727.08 1144.82l-12-9 7.6-5.34z" fill="#3a414a"/><path d="M727.96 1146.08l-13.68-10.28 8.66-6.08zm-12.07-10.25l10.3 7.74-3.8-12.32z" stroke="#3a414a" stroke-width=".05" fill="#3a414a"/><use xlink:href="#R" transform="matrix(1,0,0,1,317.1602833409177,1057.2058529906533) translate(0 14.222222222222223)"/><use xlink:href="#T" transform="matrix(1,0,0,1,317.1602833409177,1057.2058529906533) translate(70.96296296296296 14.222222222222223)"/><path d="M391.4 949.65l-.06 1-.24.98-.4.94-.52.86-.66.78-.77.67-.87.53-.94.4-1 .23-.98.07H195.92l-1-.08-.98-.23-.94-.4-.87-.53-.77-.66-.66-.77-.53-.86-.4-.94-.23-1-.08-.98v-95.62h.95v95.58l.08.9.2.84.34.8.45.74.56.65.66.57.73.45.8.33.84.2.9.07H384.9l.88-.07.84-.2.8-.33.75-.45.64-.57.57-.65.46-.74.33-.8.2-.85.06-.9V695.68h.95zm0-275.32h-.94v-341.4h.95zM709.06-279.2h-312.1l-.88.06-.84.2-.8.33-.74.45-.67.56-.56.67-.45.74-.33.8-.22.85-.07.88V311.6h-.94v-585.3l.08-1 .24-1 .4-.93.52-.86.66-.77.77-.66.87-.53.94-.4 1-.22.98-.08h312.13z" stroke="#3a414a" stroke-width=".05" fill="#3a414a"/><path d="M189.94 853.53l.47-.04v.54h-.94v-.55z" fill="#3a414a"/><path stroke="#3a414a" stroke-width=".05" fill="#3a414a"/><path d="M710.25-273.56l-7.4-5.56 12.25-8.64z" fill="#3a414a"/><path d="M710.5-272.8l-8.47-6.33 14-9.86zm-6.86-6.3l6.38 4.77 4.16-12.2z" stroke="#3a414a" stroke-width=".05" fill="#3a414a"/><use xlink:href="#R" transform="matrix(1,0,0,1,319.97509815573255,311.60656102943216) translate(0 14.222222222222223)"/><use xlink:href="#U" transform="matrix(1,0,0,1,319.97509815573255,311.60656102943216) translate(70.96296296296296 14.222222222222223)"/><path d="M472.73 775.1H288.56v-.95h184.17zm200.82 0H505.27v-.95h168.28z" stroke="#3a414a" stroke-width=".05" fill="#3a414a"/><path d="M288.57 775.1h-.55l.04-.47-.04-.48h.55z" fill="#3a414a"/><path stroke="#3a414a" stroke-width=".05" fill="#3a414a"/><path d="M688.32 774.63l-14.27 4.63V770z" fill="#3a414a"/><path d="M689.86 774.63l-16.28 5.3v-10.6zm-15.33 3.98l12.25-3.97-12.25-3.98z" stroke="#3a414a" stroke-width=".05" fill="#3a414a"/><use xlink:href="#V" transform="matrix(1,0,0,1,472.7266008748064,763.9616559156319) translate(0 14.222222222222223)"/><path d="M1375.55-654.9h-176.6l-.88.07-.84.2-.8.34-.74.46-.67.56-.56.66-.45.74-.34.8-.2.84-.07.9v1057l-.07.98-.23 1-.4.93-.52.87-.66.77-.78.67-.86.53-.94.4-1 .22-.98.08H890.13v-.95h296.8l.87-.07.85-.2.8-.33.73-.45.66-.57.57-.65.46-.74.33-.8.2-.85.06-.9v-1057l.08-1 .24-.97.4-.94.52-.88.66-.77.77-.66.87-.54.94-.4.98-.23 1-.08h176.63z" stroke="#3a414a" stroke-width=".05" fill="#3a414a"/><path d="M890.14 414.1h-.55l.03-.47-.04-.48h.54z" fill="#3a414a"/><path stroke="#3a414a" stroke-width=".05" fill="#3a414a"/><path d="M1390.32-655.37l-14.27 4.63V-660z" fill="#3a414a"/><path d="M1391.86-655.37l-16.28 5.3v-10.6zm-15.33 3.98l12.25-3.97-12.25-3.98z" stroke="#3a414a" stroke-width=".05" fill="#3a414a"/><path d="M859.24 441.22v6.4a6 6 0 0 0 6 6h510.3" stroke="#3a414a" fill="none"/><path d="M859.72 441.24h-.95v-.14l.95-.76z" stroke="#3a414a" stroke-width=".05" fill="#3a414a"/><path d="M1390.32 453.63l-14.27 4.63V449z" stroke="#3a414a" fill="#3a414a"/><path d="M987.95 233.23l1 .24.93.4.87.52.77.65.66.77.53.87.4.93.24 1 .07.98v133.8l-.06 1-.24.98-.4.94-.52.87-.66.76-.77.66-.87.53-.94.4-1 .23-.98.08h-121.7l-.88.07-.84.2-.8.33-.74.45-.66.58-.57.65-.45.74-.33.8-.2.85-.08.88v.64h-.95v-.68l.08-1 .23-.98.4-.94.52-.87.66-.77.78-.66.86-.53.94-.38 1-.24 1-.07H986.9l.88-.06.85-.2.8-.34.73-.45.66-.56.57-.67.46-.74.33-.8.2-.85.06-.9v-133.7l-.07-.9-.2-.83-.34-.8-.45-.74-.56-.66-.66-.56-.73-.45-.8-.32-.85-.2-.88-.08H-407.04l-.9.07-.83.2-.8.34-.74.46-.67.56-.56.66-.45.74-.33.8-.22.84-.07.9v178.62l.08.88.2.84.34.8.45.74.56.66.66.56.73.46.8.33.84.2.9.07h81.46v.95h-81.5l-1-.08-1-.25-.93-.38-.87-.53-.77-.67-.66-.77-.53-.87-.4-.93-.23-1-.08-1V239.6l.08-.98.24-1 .4-.93.52-.88.66-.77.77-.66.87-.54.94-.4 1-.23.98-.08H986.96z" stroke="#3a414a" stroke-width=".05" fill="#3a414a"/><path d="M859.72 386.92l-.95-.77v-.13h.95z" fill="#3a414a"/><path stroke="#3a414a" stroke-width=".05" fill="#3a414a"/><path d="M-310.8 424.3l-14.27 4.63v-9.27z" fill="#3a414a"/><path d="M-309.26 424.3l-16.28 5.28V419zm-15.33 3.98l12.26-3.98-12.25-4zM1889.95-1763.77l1 .24.93.4.86.52.78.65.66.77.53.87.4.93.24.98.07 1v1096.05l-.07 1-.23.98-.4.94-.52.86-.66.78-.78.67-.86.53-.94.4-1 .23-.98.07h-292.52v-.95h292.48l.88-.07.85-.2.8-.33.73-.45.66-.57.57-.65.46-.74.33-.8.2-.85.06-.9v-1095.95l-.07-.9-.2-.83-.34-.8-.45-.74-.56-.66-.65-.56-.75-.45-.8-.33-.85-.2-.88-.07H-607.04l-.9.07-.83.2-.8.34-.74.46-.67.56-.56.66-.45.74-.34.8-.2.84-.07.9V46.6l.08.9.2.84.34.8.45.73.56.66.66.57.73.45.8.33.84.2.9.07h276.58v.95h-276.63l-1-.08-.98-.23-.94-.4-.87-.53-.77-.66-.66-.77-.53-.86-.4-.94-.23-1-.08-.98V-1757.4l.08-.98.24-1 .4-.93.52-.88.66-.77.77-.66.87-.54.94-.4.98-.23 1-.08h2496.04z" stroke="#3a414a" stroke-width=".05" fill="#3a414a"/><path d="M1596.45-654.9h-.5v-.95h.5z" fill="#3a414a"/><path stroke="#3a414a" stroke-width=".05" fill="#3a414a"/><path d="M-315.68 52.63l-14.27 4.63V48z" fill="#3a414a"/><path d="M-314.14 52.63l-16.28 5.3v-10.6zm-15.33 3.98l12.25-3.97-12.25-3.98z" stroke="#3a414a" stroke-width=".05" fill="#3a414a"/><path d="M-109.56 52.63h181.1" stroke="#3a414a" fill="none"/><path d="M-109.55 53.1h-.5v-.95h.5z" stroke="#3a414a" stroke-width=".05" fill="#3a414a"/><path d="M86.32 52.63l-14.27 4.63V48z" stroke="#3a414a" fill="#3a414a"/><path d="M1596.44 453.63h192.5a6 6 0 0 1 6 6v491a6 6 0 0 0 6 6h176.6" stroke="#3a414a" fill="none"/><path d="M1596.45 454.1h-.5v-.95h.5z" stroke="#3a414a" stroke-width=".05" fill="#3a414a"/><path d="M1992.32 956.63l-14.27 4.63V952z" stroke="#3a414a" fill="#3a414a"/><path d="M2291.95 956.23l1 .24.93.4.86.52.78.65.66.77.53.87.4.93.24 1 .07.98v1642.7l-.07 1-.23 1-.4.93-.52.87-.66.78-.78.65-.86.54-.94.38-1 .24-.98.07H-5.08l-1-.08-.98-.25-.94-.38-.87-.54-.77-.66-.66-.77-.53-.86-.4-.94-.23-1-.08-1V1711.3l.08-1 .24-1 .4-.92.52-.87.66-.8.77-.64.87-.54.94-.38.98-.24 1-.08h76.63v.95h-76.6l-.88.07-.84.2-.8.33-.74.46-.67.56-.56.65-.45.74-.33.8-.22.83-.07.88v893.98l.08.88.2.84.34.8.45.74.56.66.66.56.73.46.8.33.84.2.9.07H2290.9l.88-.07.84-.2.8-.33.74-.46.66-.56.57-.66.46-.74.33-.8.2-.84.06-.88V962.65l-.07-.9-.2-.83-.34-.8-.45-.74-.56-.66-.66-.56-.73-.45-.8-.33-.85-.2-.88-.07h-92.48v-.95h92.52z" stroke="#3a414a" stroke-width=".05" fill="#3a414a"/><path d="M2198.45 957.1h-.5v-.95h.5z" fill="#3a414a"/><path stroke="#3a414a" stroke-width=".05" fill="#3a414a"/><path d="M86.32 1705.3l-14.27 4.63v-9.27z" fill="#3a414a"/><path d="M87.86 1705.3l-16.28 5.28V1700zm-15.33 3.98l12.25-3.98-12.25-4z" stroke="#3a414a" stroke-width=".05" fill="#3a414a"/><path d="M-10.6 949.6l.08.9.2.84.34.8.45.74.56.65.66.57.73.45.8.33.84.2.9.07H183.9l.88-.07.84-.2.8-.33.75-.45.64-.57.57-.65.46-.74.33-.8.2-.85.06-.9v-79.7h.95v79.75l-.06 1-.24.98-.4.94-.52.86-.66.78-.78.67-.86.53-.94.4-1 .23-.98.07H-5.08l-1-.08-.98-.23-.94-.4-.87-.53-.77-.66-.66-.77-.53-.86-.4-.94-.23-1-.08-.98v-149.2h.95zm-123.73-503.75l.18.72.28.7.4.62.47.55.56.48.63.4.68.27.72.18.75.06h112.6l1 .08 1 .23.93.4.86.52.78.66.66.77.53.87.4.94.24 1 .07 1v322.8h-.94V456.34l-.07-.88-.2-.84-.34-.8-.45-.74-.56-.65-.65-.56-.75-.45-.8-.34-.85-.2-.88-.07h-112.6l-.87-.08-.87-.2-.82-.35-.76-.47-.68-.57-.57-.68-.47-.76-.34-.83-.2-.87-.08-.85.95-.07z" stroke="#008a0e" stroke-width=".05" fill="#008a0e"/><path d="M-134.4 445.13h-.94V445l.95-.76z" fill="#008a0e"/><path stroke="#008a0e" stroke-width=".05" fill="#008a0e"/><path d="M194.57 869.4h-9.27l4.64-14.26z" fill="#008a0e"/><path d="M195.23 869.9h-10.58l5.3-16.3zm-9.27-.97h7.96l-3.98-12.25z" stroke="#008a0e" stroke-width=".05" fill="#008a0e"/><use xlink:href="#W" transform="matrix(1,0,0,1,-26.370580856613156,779.106501628468) translate(0 14.222222222222223)"/><path d="M-134.4 403.48h-.94v-6.24h.95zm0-12.47h-.94v-12.45h.95zm841.72-7.3h-.95v-5.87h.95zm-831.15-23.14h-5l-.9.07-.84.2-.8.33-.74.45-.67.58-.56.65-.45.74-.34.8-.2.85-.07.88v6.2h-.94v-6.24l.08-1 .24-.98.4-.94.52-.87.66-.77.77-.66.87-.53.94-.38 1-.24.98-.07h5.05zm825.7-.88l.97.24.94.4.87.52.77.66.66.77.53.87.4.94.24 1 .08.98v5.9h-.95v-5.86l-.07-.88-.2-.85-.34-.8-.45-.74-.55-.65-.66-.57-.75-.44-.8-.33-.84-.2-.88-.07h-5v-.95h5.04zm-810.62.88h-10.05v-.95h10.05zm15.1 0h-10.07v-.95h10.06zm15.07 0h-10.05v-.95h10.05zm15.1 0h-10.07v-.95h10.06zm15.07 0h-10.06v-.95h10.05zm15.08 0h-10.06v-.95h10.06zm15.1 0H-28.3v-.95h10.07zm15.07 0H-13.2v-.95h10.05zm15.1 0H1.87v-.95h10.06zm15.07 0H16.97v-.95h10.05zm15.1 0H32.04v-.95H42.1zm15.07 0H47.13v-.95H57.2zm15.08 0H62.22v-.95h10.06zm15.08 0H77.3v-.95h10.06zm15.1 0H92.38v-.95h10.05zm15.08 0h-10.06v-.95h10.05zm15.08 0h-10.06v-.95h10.06zm15.1 0h-10.07v-.95h10.06zm15.07 0h-10.06v-.95h10.05zm15.08 0h-10.06v-.95h10.06zm15.08 0H182.9v-.95h10.06zm15.1 0h-10.07v-.95h10.05zm15.07 0h-10.05v-.95h10.05zm15.1 0h-10.07v-.95h10.06zm15.08 0h-10.05v-.95h10.06zm15.1 0h-10.07v-.95h10.06zm45.25 0H303.6v-.95h10.05zm15.08 0h-10.05v-.95h10.05zm15.1 0h-10.07v-.95h10.06zm15.07 0h-10.05v-.95h10.05zm15.1 0h-10.07v-.95H374zm15.07 0h-10.05v-.95h10.06zm15.1 0H394.1v-.95h10.06zm15.08 0H409.2v-.95h10.05zm15.08 0h-10.06v-.95h10.06zm15.1 0h-10.07v-.95h10.06zm15.07 0h-10.06v-.95h10.06zm15.1 0h-10.07v-.95h10.06zm15.07 0h-10.05v-.95h10.05zm15.1 0H499.7v-.95h10.06zm15.08 0H514.8v-.95h10.05zm15.08 0h-10.06v-.95h10.06zm15.1 0h-10.07v-.95h10.06zm15.07 0h-10.06v-.95h10.06zm15.1 0h-10.07v-.95h10.06zm15.07 0h-10.05v-.95h10.05zm15.1 0H605.3v-.95h10.06zm15.07 0H620.4v-.95h10.04zm15.1 0h-10.07v-.95h10.06zm15.07 0h-10.04v-.95h10.05zm15.1 0h-10.06v-.95h10.06zm15.08 0h-10.05v-.95h10.05zm-392.22 0h-2.7v-.95h2.7z" stroke="#e81313" stroke-width=".05" fill="#e81313"/><path d="M-134.4 404.36l-.94-.76v-.14h.95z" fill="#e81313"/><path stroke="#e81313" stroke-width=".05" fill="#e81313"/><path d="M706.84 398.46l-4.63-14.26h9.28z" fill="#e81313"/><path d="M706.84 400l-5.3-16.28h10.6zm-3.98-15.33l3.98 12.26 3.98-12.26z" stroke="#e81313" stroke-width=".05" fill="#e81313"/><use xlink:href="#X" transform="matrix(1,0,0,1,272.2413692713438,349.41490789480923) translate(0 14.222222222222223)"/><path d="M485.95 52.23l1 .24.93.4.87.52.77.65.66.77.53.87.4.93.23.98.08 1v308.2l.08.9.2.83.34.8.45.74.56.66.66.56.73.44.8.34.84.2.9.07h224.98v.95H496.92l-1-.08-.98-.24-.94-.4-.87-.52-.77-.66-.66-.77-.53-.87-.4-.94-.23-.98-.08-1V58.64l-.07-.88-.2-.84-.34-.8-.45-.74-.56-.66-.65-.56-.75-.45-.8-.33-.85-.2-.88-.07H292.44v-.95h192.52z" stroke="#3a414a" stroke-width=".05" fill="#3a414a"/><path d="M292.45 53.1h-.5v-.95h.5z" fill="#3a414a"/><path stroke="#3a414a" stroke-width=".05" fill="#3a414a"/><path d="M727.2 381.75l-11.23-9.95 8-4.7z" fill="#3a414a"/><path d="M727.97 383.08l-12.8-11.36 9.12-5.36zm-11.2-11.2l9.64 8.55-2.76-12.6zM491.4 1699.3l-.06 1-.24 1-.4.93-.52.87-.66.78-.77.65-.87.54-.94.38-1 .24-.98.07H292.44v-.95h192.48l.88-.07.84-.2.8-.33.75-.46.64-.56.57-.66.46-.74.33-.8.2-.84.06-.88v-914h.95zM726.6 459.57H496.96l-.9.07-.83.2-.8.34-.74.45-.67.56-.56.66-.45.74-.33.8-.22.84-.07.88v298.86h-.94v-298.9l.08-1 .24-.98.4-.93.52-.87.66-.77.77-.65.87-.53.94-.4 1-.23.98-.1H726.6z" stroke="#3a414a" stroke-width=".05" fill="#3a414a"/><path d="M292.45 1705.77h-.5v-.95h.5z" fill="#3a414a"/><path stroke="#3a414a" stroke-width=".05" fill="#3a414a"/><path d="M731.14 460.36l-9.23-.87 5.96-13.78z" fill="#3a414a"/><path d="M731.75 460.9l-10.53-1 6.78-15.7zm-9.14-1.82l7.93.74-2.82-12.57z" stroke="#3a414a" stroke-width=".05" fill="#3a414a"/><path d="M890.13 1176.63h196.8a6 6 0 0 1 6 6V2424.3a6 6 0 0 0 6 6h276.62" stroke="#3a414a" fill="none"/><path d="M890.14 1177.1h-.55l.03-.47-.04-.48h.54z" stroke="#3a414a" stroke-width=".05" fill="#3a414a"/><path d="M1390.32 2430.3l-14.27 4.63v-9.27z" stroke="#3a414a" fill="#3a414a"/><path d="M859.24 1149.04v-6.4a6 6 0 0 1 6-6h510.3" stroke="#3a414a" fill="none"/><path d="M859.72 1149.9l-.95-.75v-.13h.95z" stroke="#3a414a" stroke-width=".05" fill="#3a414a"/><path d="M1390.32 1136.63l-14.27 4.63V1132z" stroke="#3a414a" fill="#3a414a"/><path d="M-325.57 982.77h-81.47l-.9.07-.83.2-.8.33-.74.46-.67.56-.56.65-.45.74-.33.8-.22.83-.07.88v891.98l.08.88.2.84.34.8.45.74.56.66.66.56.73.46.8.33.84.2.9.07H986.9l.88-.07.85-.2.8-.33.73-.46.66-.56.57-.66.46-.74.33-.8.2-.84.06-.88v-660.74l-.07-.88-.2-.84-.34-.8-.45-.74-.56-.66-.66-.56-.73-.46-.8-.33-.85-.2-.88-.07h-121.7l-1-.08-.98-.24-.94-.4-.86-.52-.78-.66-.66-.77-.53-.87-.4-.93-.22-1-.08-1v-3.3h.95v3.28l.07.9.2.83.32.8.45.74.57.66.66.56.74.44.8.34.84.2.88.07h121.7l1 .08.98.23.94.4.87.52.77.66.66.78.53.86.4.94.24 1 .07 1v660.8l-.06 1-.24.98-.4.93-.52.87-.66.78-.77.65-.87.54-.94.38-1 .24-.98.07H-407.08l-1-.08-.98-.25-.94-.38-.87-.53-.77-.66-.66-.78-.53-.87-.4-.93-.23-1-.08-1V988.3l.08-1 .24-1 .4-.92.52-.87.66-.78.77-.67.87-.53.94-.38 1-.24.98-.08h81.5z" stroke="#3a414a" stroke-width=".05" fill="#3a414a"/><path d="M859.72 1204.23h-.95v-.13l.95-.76z" fill="#3a414a"/><path stroke="#3a414a" stroke-width=".05" fill="#3a414a"/><path d="M-310.8 982.3l-14.27 4.63v-9.27z" fill="#3a414a"/><path d="M-309.26 982.3l-16.28 5.28V977zm-15.33 3.98l12.26-4-12.25-3.97z" stroke="#3a414a" stroke-width=".05" fill="#3a414a"/><path d="M1596.44 2430.3h92.5a6 6 0 0 1 6 6v270a6 6 0 0 1-6 6h-2296a6 6 0 0 1-6-6v-632a6 6 0 0 1 6-6h276.6" stroke="#3a414a" fill="none"/><path d="M1596.45 2430.77h-.5v-.95h.5z" stroke="#3a414a" stroke-width=".05" fill="#3a414a"/><path d="M-315.68 2068.3l-14.27 4.63v-9.27z" stroke="#3a414a" fill="#3a414a"/><path d="M-109.56 2068.3h181.1" stroke="#3a414a" fill="none"/><path d="M-109.55 2068.77h-.5v-.95h.5z" stroke="#3a414a" stroke-width=".05" fill="#3a414a"/><path d="M86.32 2068.3l-14.27 4.63v-9.27z" stroke="#3a414a" fill="#3a414a"/><path d="M1689.95 1136.23l1 .24.93.4.86.52.78.65.66.77.53.87.4.93.24.98.07 1v1100.7l-.07 1-.23 1-.4.93-.52.87-.66.78-.78.65-.86.54-.94.38-1 .24-.98.07H-507.08l-1-.08-.98-.25-.94-.38-.87-.54-.77-.66-.66-.77-.53-.86-.4-.94-.23-1-.08-1V1349.3l.08-1 .24-1 .4-.92.52-.87.66-.8.77-.64.87-.54.94-.38 1-.24.98-.08h176.63v.95h-176.6l-.88.07-.84.2-.8.33-.74.46-.67.56-.56.65-.45.74-.34.8-.2.83-.07.88v893.98l.08.88.2.84.34.8.45.74.56.66.66.56.73.46.8.33.84.2.9.07H1688.9l.88-.07.85-.2.8-.33.73-.46.66-.56.57-.66.46-.74.33-.8.2-.84.06-.88V1142.65l-.07-.9-.2-.83-.34-.8-.45-.74-.56-.66-.65-.56-.75-.45-.8-.33-.85-.2-.88-.07h-92.48v-.95h92.52z" stroke="#3a414a" stroke-width=".05" fill="#3a414a"/><path d="M1596.45 1137.1h-.5v-.95h.5z" fill="#3a414a"/><path stroke="#3a414a" stroke-width=".05" fill="#3a414a"/><path d="M-315.68 1343.3l-14.27 4.63v-9.27z" fill="#3a414a"/><path d="M-314.14 1343.3l-16.28 5.28V1338zm-15.33 3.98l12.25-3.98-12.25-4z" stroke="#3a414a" stroke-width=".05" fill="#3a414a"/><path d="M-109.56 1343.3h181.1" stroke="#3a414a" fill="none"/><path d="M-109.55 1343.77h-.5v-.95h.5z" stroke="#3a414a" stroke-width=".05" fill="#3a414a"/><path d="M86.32 1343.3l-14.27 4.63v-9.27z" stroke="#3a414a" fill="#3a414a"/><path d="M12.23 908.23h-141.07l-.88.06-.85.2-.8.33-.74.45-.67.57-.56.65-.45.74-.34.8-.2.85-.07.87v47.7h-.94v-47.74l.08-1 .24-.98.4-.94.52-.86.66-.77.77-.66.87-.52.94-.4 1-.23.98-.08h141.1zm178.18-6.46l-.06 1-.24.98-.4.94-.52.86-.66.77-.78.66-.86.52-.94.4-1 .23-.98.08H42.86v-.96H183.9l.88-.06.84-.2.8-.33.75-.45.64-.56.57-.66.46-.74.33-.8.2-.85.06-.87V869.9h.95z" stroke="#008a0e" stroke-width=".05" fill="#008a0e"/><path d="M-134.4 962.36l-.94-.76v-.14h.95z" fill="#008a0e"/><path stroke="#008a0e" stroke-width=".05" fill="#008a0e"/><path d="M194.57 869.4h-9.27l4.64-14.26z" fill="#008a0e"/><path d="M195.23 869.9h-10.58l5.3-16.3zm-9.27-.97h7.96l-3.98-12.25z" stroke="#008a0e" stroke-width=".05" fill="#008a0e"/><g><use xlink:href="#W" transform="matrix(1,0,0,1,12.229701705138115,897.0837000302495) translate(0 14.222222222222223)"/></g><path d="M-10.6 1155.08l.08.88.2.84.34.8.45.74.56.66.66.57.73.45.8.33.84.2.9.07h4.9v.95h-4.95l-1-.08-.98-.24-.94-.4-.87-.52-.77-.66-.66-.78-.53-.86-.4-.94-.23-1-.08-.98v-4.77h.95zm25.32 6.5h-9.9v-.96h9.9zm14.85 0h-9.9v-.96h9.9zm14.84 0h-9.9v-.96h9.9zm14.85 0h-9.9v-.96h9.9zm14.84 0h-9.9v-.96h9.9zm14.83 0h-9.9v-.96h9.9zm14.84 0h-9.9v-.96h9.9zm14.84 0h-9.88v-.96h9.9zm14.85 0h-9.9v-.96h9.9zm14.84 0h-9.9v-.96h9.9zm14.83 0h-9.9v-.96h9.9zm14.84 0h-9.9v-.96h9.9zm14.84 0h-9.88v-.96h9.9zm44.53 0h-9.9v-.96h9.9zm14.84 0h-9.9v-.96h9.9zm14.84 0h-9.88v-.96h9.9zm14.86 0h-9.9v-.96h9.9zm14.84 0h-9.9v-.96h9.9zm14.84 0h-9.9v-.96h9.9zm14.84 0h-9.9v-.96h9.9zm14.84 0h-9.9v-.96h9.9zm14.84 0h-9.9v-.96h9.9zm14.84 0H361v-.96h9.9zm14.84 0h-9.9v-.96h9.9zm14.84 0h-9.9v-.96h9.9zm14.84 0h-9.9v-.96h9.9zm14.84 0h-9.9v-.96h9.9zm14.84 0h-9.9v-.96h9.9zm14.84 0h-9.9v-.96h9.9zm14.84 0h-9.9v-.96h9.9zm14.84 0h-9.9v-.96h9.9zm14.84 0h-9.9v-.96h9.9zm14.84 0h-9.9v-.96h9.9zm14.84 0h-9.9v-.96h9.9zm14.85 0h-9.9v-.96h9.88zm14.83 0h-9.9v-.96h9.9zm14.84 0h-9.9v-.96h9.9zm14.84 0h-9.9v-.96h9.9zm14.85 0h-9.9v-.96h9.9zm14.84 0h-9.9v-.96h9.9zm14.83 0h-9.9v-.96h9.9zm14.84 0h-9.9v-.96h9.9zm14.84 0h-9.88v-.96h9.9zm14.85 0h-9.9v-.96h9.9zm9.9 0h-4.95v-.96h4.94zm-469.96 0h-2.96v-.96h2.95zm-233.1-16h-.94v-9.5h.95zm0-14.24h-.94v-9.5h.95zm0-14.26h-.94v-9.5h.95zm0-14.25h-.94v-9.5h.95zm0-14.26h-.94v-9.5h.95zm0-14.25h-.94v-9.5h.95zm0-14.26h-.94v-9.5h.95zm0-14.25h-.94v-9.5h.95zm0-14.25h-.94v-9.5h.95zm-5.45-25.4l1 .24.93.38.86.53.78.67.66.77.53.87.4.94.24 1 .07 1v4.76h-.94v-4.73l-.07-.9-.2-.83-.34-.8-.45-.74-.56-.66-.65-.56-.75-.46-.8-.33-.85-.2-.88-.08h-4.75v-.95h4.8zm-118.3-2.57l.1.45.2.43.23.4.3.35.35.3.4.25.43.18.45.1.5.04h4.73v.95h-4.78l-.6-.04-.6-.15-.55-.23-.53-.32-.46-.4-.4-.47-.3-.5-.25-.58-.14-.6-.03-.57.94-.07zm21.98 3.44h-9.53v-.95h9.53zm14.3 0h-9.53v-.95h9.53zm14.3 0h-9.54v-.95h9.52zm14.3 0h-9.54v-.95h9.52zm14.28 0h-9.52v-.95h9.53zm14.3 0h-9.52v-.95h9.53zm14.3 0h-9.52v-.95h9.53z" stroke="#e81313" stroke-width=".05" fill="#e81313"/><path d="M-134.4 1003.13h-.94v-.13l.95-.76z" fill="#e81313"/><path stroke="#e81313" stroke-width=".05" fill="#e81313"/><path d="M705.24 1162.86l-14.77 2.64 1.27-9.18z" fill="#e81313"/><path d="M706.76 1163.07l-16.85 3.02 1.46-10.5zm-15.73 1.85l12.7-2.27-11.6-5.62z" stroke="#e81313" stroke-width=".05" fill="#e81313"/><g><use xlink:href="#X" transform="matrix(1,0,0,1,195.93968388079082,1150.429948571887) translate(0 14.222222222222223)"/></g><path d="M292.44 2068.3h292.5a6 6 0 0 0 6-6v-836.2a6 6 0 0 1 6-6H724.6" stroke="#3a414a" fill="none"/><path d="M292.45 2068.77h-.5v-.95h.5z" stroke="#3a414a" stroke-width=".05" fill="#3a414a"/><path d="M727.6 1208.67l.86 14.98-8.97-2.35z" stroke="#3a414a" fill="#3a414a"/><path d="M292.44 1343.3h92.5a6 6 0 0 0 6-6v-139.14a6 6 0 0 1 6-6h295.5" stroke="#3a414a" fill="none"/><path d="M292.45 1343.77h-.5v-.95h.5z" stroke="#3a414a" stroke-width=".05" fill="#3a414a"/><path d="M705.24 1190.4l-13.5 6.53-1.26-9.18z" stroke="#3a414a" fill="#3a414a"/><path d="M876.94-295.32a1.95 1.95 0 0 0 1.95 1.95h496.65" stroke="#3a414a" fill="none"/><path d="M877.4-295.3h-.94v-.14l.95-.76z" stroke="#3a414a" stroke-width=".05" fill="#3a414a"/><path d="M1390.32-293.37l-14.27 4.63V-298z" stroke="#3a414a" fill="#3a414a"/><path d="M855.77-340.35v-7.38a6 6 0 0 1 6-6h125.17a6 6 0 0 0 6-6v-1014.64a6 6 0 0 1 6-6h376.6" stroke="#3a414a" fill="none"/><path d="M856.25-339.47l-.95-.76v-.13h.95z" stroke="#3a414a" stroke-width=".05" fill="#3a414a"/><path d="M1390.32-1380.37l-14.27 4.63v-9.27z" stroke="#3a414a" fill="#3a414a"/><path d="M876.94-323.42a4.2 4.2 0 0 1 4.2-4.2h205.8a6 6 0 0 0 6-6v-678.75a6 6 0 0 1 6-6h276.6" stroke="#3a414a" fill="none"/><path d="M877.4-322.54l-.94-.76v-.13h.95z" stroke="#3a414a" stroke-width=".05" fill="#3a414a"/><path d="M1390.32-1018.37l-14.27 4.63v-9.27z" stroke="#3a414a" fill="#3a414a"/><path d="M856.25-274.5l.07.88.2.84.33.8.45.74.57.66.65.56.74.45.8.34.85.2.9.07h425.16l1 .08.98.23.94.4.86.52.78.66.66.78.53.87.4.94.24 1 .07 1V61.6l.08.9.2.84.34.8.45.73.56.66.66.57.73.45.8.33.84.2.9.07h79.46v.95h-79.5l-1-.07-1-.24-.93-.4-.87-.53-.77-.66-.66-.77-.53-.86-.4-.94-.23-1-.08-.98v-324.12l-.07-.88-.2-.84-.34-.8-.45-.73-.56-.66-.65-.56-.75-.45-.8-.34-.85-.2-.88-.07H861.75l-1-.1-.98-.23-.94-.4-.87-.52-.77-.66-.67-.78-.53-.87-.4-.94-.23-.97-.07-1v-3.92h.95z" stroke="#3a414a" stroke-width=".05" fill="#3a414a"/><path d="M856.25-278.38h-.95v-.13l.95-.77z" fill="#3a414a"/><path stroke="#3a414a" stroke-width=".05" fill="#3a414a"/><path d="M1393.2 67.63l-14.27 4.63V63z" fill="#3a414a"/><path d="M1394.74 67.63l-16.28 5.3v-10.6zm-15.33 3.98l12.26-3.97-12.25-3.98z" stroke="#3a414a" stroke-width=".05" fill="#3a414a"/><path d="M1596.44-293.37h381.1" stroke="#3a414a" fill="none"/><path d="M1596.45-292.9h-.5v-.95h.5z" stroke="#3a414a" stroke-width=".05" fill="#3a414a"/><path d="M1992.32-293.37l-14.27 4.63V-298z" stroke="#3a414a" fill="#3a414a"/><path d="M2198.44-293.37h181.1" stroke="#3a414a" fill="none"/><path d="M2198.45-292.9h-.5v-.95h.5z" stroke="#3a414a" stroke-width=".05" fill="#3a414a"/><path d="M2394.32-293.37l-14.27 4.63V-298z" stroke="#3a414a" fill="#3a414a"/><path d="M1596.44-1380.37h92.5a6 6 0 0 0 6-6v-270a6 6 0 0 0-6-6h-2096a6 6 0 0 0-6 6v979a6 6 0 0 0 6 6h76.6" stroke="#3a414a" fill="none"/><path d="M1596.45-1379.9h-.5v-.95h.5z" stroke="#3a414a" stroke-width=".05" fill="#3a414a"/><path d="M-315.68-671.37l-14.27 4.63V-676z" stroke="#3a414a" fill="#3a414a"/><path d="M-109.56-671.37h181.1" stroke="#3a414a" fill="none"/><path d="M-109.55-670.9h-.5v-.95h.5z" stroke="#3a414a" stroke-width=".05" fill="#3a414a"/><path d="M86.32-671.37l-14.27 4.63V-676z" stroke="#3a414a" fill="#3a414a"/><path d="M1596.44-1018.37h192.5a6 6 0 0 0 6-6v-531a6 6 0 0 0-6-6h-2296a6 6 0 0 0-6 6v1240a6 6 0 0 0 6 6h176.6" stroke="#3a414a" fill="none"/><path d="M1596.45-1017.9h-.5v-.95h.5z" stroke="#3a414a" stroke-width=".05" fill="#3a414a"/><path d="M-315.68-309.37l-14.27 4.63V-314z" stroke="#3a414a" fill="#3a414a"/><path d="M-109.56-309.37h181.1" stroke="#3a414a" fill="none"/><path d="M-109.55-308.9h-.5v-.95h.5z" stroke="#3a414a" stroke-width=".05" fill="#3a414a"/><path d="M86.32-309.37l-14.27 4.63V-314z" stroke="#3a414a" fill="#3a414a"/><path d="M190.4 949.6l.08.9.2.84.34.8.45.74.56.65.66.57.73.45.8.33.84.2.9.07H1372.8v.95H195.92l-1-.08-.98-.23-.94-.4-.87-.53-.77-.66-.66-.77-.53-.86-.4-.94-.23-1-.08-.98V869.9h.95zM1569.6 89.4l.08.9.2.84.34.8.45.73.56.66.66.57.73.45.8.33.84.2.9.07h113.8l.98.08 1 .24.93.4.86.52.78.65.66.77.53.87.4.93.24.98.07 1v848.25l-.07 1-.23.98-.4.94-.52.86-.66.78-.78.67-.86.53-.94.4-1 .23-.98.07h-285.53v-.95h285.5l.87-.07.85-.2.8-.33.73-.45.66-.57.57-.65.46-.74.33-.8.2-.85.06-.9V101.46l-.07-.9-.2-.83-.34-.8-.45-.74-.56-.66-.65-.56-.75-.45-.8-.33-.85-.2-.88-.07h-113.8l-1-.08-.98-.23-.94-.4-.87-.53-.77-.66-.66-.77-.53-.86-.4-.94-.23-1-.08-.98v-1h.95z" stroke="#008a0e" stroke-width=".05" fill="#008a0e"/><path d="M1569.6 88.46h-.94v-.13l.95-.76z" fill="#008a0e"/><path stroke="#008a0e" stroke-width=".05" fill="#008a0e"/><path d="M194.57 869.4h-9.27l4.64-14.26z" fill="#008a0e"/><path d="M195.23 869.9h-10.58l5.3-16.3zm-9.27-.97h7.96l-3.98-12.25z" stroke="#008a0e" stroke-width=".05" fill="#008a0e"/><g><use xlink:href="#W" transform="matrix(1,0,0,1,1372.8179067638841,944.9616559156319) translate(0 14.222222222222223)"/></g><path d="M1577.43 43.84h-4.83l-.48.04-.46.1-.43.2-.4.23-.35.3-.3.37-.24.4-.18.42-.1.45-.05.5-.93-.08.04-.57.15-.6.24-.57.3-.52.4-.46.48-.4.52-.32.57-.24.6-.14.6-.05h4.86zm14.54 0h-9.7v-.95h9.7zm14.55 0h-9.7v-.95h9.7zm14.54 0h-9.7v-.95h9.7zm14.55 0h-9.7v-.95h9.7zm14.55 0h-9.7v-.95h9.7zm14.55 0h-9.7v-.95h9.7zm14.54 0h-9.7v-.95h9.7zm16.17-6.45l-.07.98-.23 1-.4.93-.52.88-.66.77-.78.66-.86.54-.94.4-1 .23-.98.07h-4.87v-.95h4.82l.88-.08.85-.2.8-.33.73-.46.66-.57.57-.66.46-.72.33-.8.2-.85.06-.88v-4.77h.95zm0-9.6h-.94v-9.6h.95zm0-14.4h-.94V3.84h.95zm0-14.36h-.94v-9.6l.95.02zm0-14.38h-.94v-9.58h.95zm0-14.37h-.94v-9.6h.95zm0-14.38h-.94v-9.6h.95zm0-14.38h-.94v-9.58h.95zm0-14.37h-.94v-9.6l.95.02zm0-14.38h-.94v-9.6h.95zm-5.45-25.57l1 .24.93.4.86.52.78.65.66.77.53.87.4.93.24.98.07 1v4.82h-.94v-4.77l-.07-.9-.2-.83-.34-.8-.45-.74-.56-.66-.65-.56-.75-.45-.8-.33-.85-.2-.88-.07h-4.97v-.95h5zm-11 .87H1669v-.95h9.96zm-14.94 0h-9.97v-.95h9.98zm-14.95 0h-9.97v-.95h9.97zm-14.96 0h-9.98v-.95h9.97zm-14.97 0h-9.97v-.95h9.97zm-14.96 0h-9.97v-.95h9.97zm-14.96 0h-9.96v-.95h9.97zm-14.95 0h-9.97v-.95h9.97zm-14.96 0h-9.98v-.95h9.97zm-14.96 0h-9.98v-.95h9.98zm-14.96 0h-9.98v-.95h9.98zm-14.96 0h-9.98v-.95h9.98zm-14.96 0h-9.97v-.95h9.96zm-14.96 0h-9.97v-.95h9.97zm-14.96 0h-9.97v-.95h9.97zm-14.96 0h-9.97v-.95h9.98zm-14.96 0h-9.97v-.95h9.97zm-14.96 0h-9.97v-.95h9.96zm-14.96 0h-9.97v-.95h9.97zm-14.95 0h-9.98v-.95h9.98zm-14.96 0h-9.98v-.95h9.97zm-14.97 0h-9.97v-.95h9.97zm-14.96 0h-9.97v-.95h9.97zm-14.96 0h-9.96v-.95h9.97zm-14.95 0h-9.97v-.95h9.97zm-14.96 0H1295v-.95h9.97zm-14.97 0h-9.97v-.95h9.97zm-14.95 0h-9.98v-.95h9.98zm-14.96 0h-9.98v-.95h9.98zm-14.96 0h-9.98v-.95h9.98zm-14.96 0h-9.97v-.95h9.97zm-14.96 0h-9.97v-.95h9.97zm-14.96 0h-9.97v-.95h9.98zm-14.96 0h-9.97v-.95h9.97zm-14.96 0h-9.97v-.95h9.96zm-14.96 0h-9.97v-.95h9.97zm-33.96 0h-5.93v-.95h5.94zm-10.9 0h-10v-.95h10zm-14.97 0h-9.97v-.95h9.97zm-14.96 0h-9.96v-.95h9.97zm-14.95 0h-9.97v-.95h9.97zm-14.96 0h-9.98v-.95h9.97zm-14.97 0h-9.97v-.95h9.97zm-14.96 0h-9.97v-.95h9.97zm-14.95 0h-9.98v-.95h9.98zm-14.96 0h-9.98v-.95h9.98zm-14.96 0h-9.98v-.95h9.98zm-14.96 0h-9.98v-.95h9.98zm-14.96 0H936v-.95H946zm-14.96 0h-9.97v-.95h9.97zm-14.96 0h-9.97v-.95h9.96zm-14.96 0h-9.97v-.95h9.97zm-14.96 0h-9.97v-.95h9.97zm-14.96 0h-9.97v-.95h9.98zm-14.95 0h-9.98v-.95h9.98zm-14.96 0h-9.98v-.95h9.97zm-14.96 0h-9.96v-.95h9.97zm-14.95 0h-9.97v-.95h9.97zm-14.96 0h-9.98v-.95h9.97zm-14.97 0h-9.97v-.95h9.97zm-14.96 0h-9.97v-.95h9.97zm-14.96 0h-9.96v-.95h9.97zm-14.95 0h-9.97v-.95h9.97zm-14.95 0h-9.98v-.95h9.98zm-14.96 0h-9.98v-.95h9.98zm-14.96 0h-9.97v-.95h9.98zm-14.96 0h-9.97v-.95h9.97zm-14.96 0h-9.97v-.95h9.96zm-14.96 0h-9.97v-.95h9.97zm-14.96 0h-9.97v-.95h9.97zm-14.96 0h-9.97v-.95h9.98zm-25.47-6.5l.08.9.2.83.34.8.45.75.56.65.66.57.73.45.8.33.84.2.9.07h4.95v.95h-5l-1-.07-.98-.24-.94-.4-.87-.53-.77-.66-.66-.77-.53-.86-.4-.94-.23-1-.08-.98v-5.26h.95zm0-10.44h-.94v-10.47h.95zm0-15.7h-.94v-10.48h.95zm0-15.72h-.94v-10.47h.95zm0-15.7h-.94v-10.47h.95zm0-15.7h-.94v-10.48h.95zm0-15.72h-.94v-10.47h.95zm0-15.7h-.94v-10.47h.95zm0-15.7h-.94v-10.48h.95zm10.32-26.48h-4.76l-.9.07-.83.22-.8.33-.74.45-.67.56-.56.66-.45.74-.34.8-.2.84-.07.9v5.2h-.94v-5.25l.08-1 .24-.98.4-.94.52-.87.66-.77.77-.67.87-.53.94-.4.98-.23 1-.08h4.8zm14.35 0h-9.57v-.95h9.57zm14.34 0h-9.55v-.95h9.56zm14.36 0h-9.56v-.95h9.56zm14.35 0h-9.56v-.95h9.57zm14.35 0h-9.56v-.95h9.55zm14.35 0h-9.56v-.95h9.56zm14.35 0h-9.57v-.95h9.56zm14.34 0h-9.57v-.95h9.56zm9.56 0h-4.8v-.95h4.8z" stroke="#e81313" stroke-width=".05" fill="#e81313"/><path d="M1569.6 47.7l-.94-.77v-.13h.95z" fill="#e81313"/><path stroke="#e81313" stroke-width=".05" fill="#e81313"/><path d="M728.72-260.52l-8.38-3.96 10.28-10.92z" fill="#e81313"/><path d="M729.1-259.8l-9.56-4.52 11.74-12.47zm-7.97-4.83l7.2 3.4 1.63-12.78z" stroke="#e81313" stroke-width=".05" fill="#e81313"/><g><use xlink:href="#X" transform="matrix(1,0,0,1,1121.4449044026674,-123.03834408436812) translate(0 14.222222222222223)"/></g><path d="M2600.44-293.37h92.5a6 6 0 0 0 6-6v-532a6 6 0 0 0-6-6h-2096a6 6 0 0 0-6 6v470.7a6 6 0 0 0 6 6H727.7" stroke="#3a414a" fill="none"/><path d="M2600.45-292.9h-.5v-.95h.5z" stroke="#3a414a" stroke-width=".05" fill="#3a414a"/><path d="M730.87-343.44l-8.33-12.48 8.93-2.5z" stroke="#3a414a" fill="#3a414a"/><path d="M292.44-671.37h92.5a6 6 0 0 1 6 6v324.83a6 6 0 0 0 6 6h307.6" stroke="#3a414a" fill="none"/><path d="M292.45-670.9h-.5v-.95h.5z" stroke="#3a414a" stroke-width=".05" fill="#3a414a"/><path d="M714.58-330.32l-14.95-1.26 3.6-8.54z" stroke="#3a414a" fill="#3a414a"/><path d="M292.44-309.37h385.33" stroke="#3a414a" fill="none"/><path d="M292.45-308.9h-.5v-.95h.5z" stroke="#3a414a" stroke-width=".05" fill="#3a414a"/><path d="M692.53-309.37l-14.26 4.63V-314z" stroke="#3a414a" fill="#3a414a"/><path d="M894.44 774.63h1887.1" stroke="#3a414a" fill="none"/><path d="M894.45 775.1h-.5v-.95h.5z" stroke="#3a414a" stroke-width=".05" fill="#3a414a"/><path d="M2796.32 774.63l-14.27 4.63V770z" stroke="#3a414a" fill="#3a414a"/><defs><path d="M185-189c-5-48-123-54-124 2 14 75 158 14 163 119 3 78-121 87-175 55-17-10-28-26-33-46l33-7c5 56 141 63 141-1 0-78-155-14-162-118-5-82 145-84 179-34 5 7 8 16 11 25" id="Y"/><path d="M59-47c-2 24 18 29 38 22v24C64 9 27 4 27-40v-127H5v-23h24l9-43h21v43h35v23H59v120" id="Z"/><path d="M141-36C126-15 110 5 73 4 37 3 15-17 15-53c-1-64 63-63 125-63 3-35-9-54-41-54-24 1-41 7-42 31l-33-3c5-37 33-52 76-52 45 0 72 20 72 64v82c-1 20 7 32 28 27v20c-31 9-61-2-59-35zM48-53c0 20 12 33 32 33 41-3 63-29 60-74-43 2-92-5-92 41" id="aa"/><path d="M114-163C36-179 61-72 57 0H25l-1-190h30c1 12-1 29 2 39 6-27 23-49 58-41v29" id="ab"/><g id="a"><use transform="matrix(0.06172839506172839,0,0,0.06172839506172839,0,0)" xlink:href="#Y"/><use transform="matrix(0.06172839506172839,0,0,0.06172839506172839,14.814814814814813,0)" xlink:href="#Z"/><use transform="matrix(0.06172839506172839,0,0,0.06172839506172839,20.98765432098765,0)" xlink:href="#aa"/><use transform="matrix(0.06172839506172839,0,0,0.06172839506172839,33.33333333333333,0)" xlink:href="#ab"/><use transform="matrix(0.06172839506172839,0,0,0.06172839506172839,40.679012345679006,0)" xlink:href="#Z"/></g><path d="M190 0L58-211 59 0H30v-248h39L202-35l-2-213h31V0h-41" id="ac"/><path d="M100-194c62-1 85 37 85 99 1 63-27 99-86 99S16-35 15-95c0-66 28-99 85-99zM99-20c44 1 53-31 53-75 0-43-8-75-51-75s-53 32-53 75 10 74 51 75" id="ad"/><path d="M85-194c31 0 48 13 60 33l-1-100h32l1 261h-30c-2-10 0-23-3-31C134-8 116 4 85 4 32 4 16-35 15-94c0-66 23-100 70-100zm9 24c-40 0-46 34-46 75 0 40 6 74 45 74 42 0 51-32 51-76 0-42-9-74-50-73" id="ae"/><path d="M100-194c63 0 86 42 84 106H49c0 40 14 67 53 68 26 1 43-12 49-29l28 8c-11 28-37 45-77 45C44 4 14-33 15-96c1-61 26-98 85-98zm52 81c6-60-76-77-97-28-3 7-6 17-6 28h103" id="af"/><g id="b"><use transform="matrix(0.06172839506172839,0,0,0.06172839506172839,0,0)" xlink:href="#ac"/><use transform="matrix(0.06172839506172839,0,0,0.06172839506172839,15.987654320987653,0)" xlink:href="#ad"/><use transform="matrix(0.06172839506172839,0,0,0.06172839506172839,28.333333333333332,0)" xlink:href="#ae"/><use transform="matrix(0.06172839506172839,0,0,0.06172839506172839,40.67901234567901,0)" xlink:href="#af"/></g><path d="M240 0l2-218c-23 76-54 145-80 218h-23L58-218 59 0H30v-248h44l77 211c21-75 51-140 76-211h43V0h-30" id="ag"/><path d="M24-231v-30h32v30H24zM24 0v-190h32V0H24" id="ah"/><path d="M117-194c89-4 53 116 60 194h-32v-121c0-31-8-49-39-48C34-167 62-67 57 0H25l-1-190h30c1 10-1 24 2 32 11-22 29-35 61-36" id="ai"/><g id="c"><use transform="matrix(0.06172839506172839,0,0,0.06172839506172839,0,0)" xlink:href="#ag"/><use transform="matrix(0.06172839506172839,0,0,0.06172839506172839,18.456790123456788,0)" xlink:href="#aa"/><use transform="matrix(0.06172839506172839,0,0,0.06172839506172839,30.80246913580247,0)" xlink:href="#ah"/><use transform="matrix(0.06172839506172839,0,0,0.06172839506172839,35.67901234567901,0)" xlink:href="#ai"/></g><path d="M84 4C-5 8 30-112 23-190h32v120c0 31 7 50 39 49 72-2 45-101 50-169h31l1 190h-30c-1-10 1-25-2-33-11 22-28 36-60 37" id="aj"/><g id="d"><use transform="matrix(0.06172839506172839,0,0,0.06172839506172839,0,0)" xlink:href="#ag"/><use transform="matrix(0.06172839506172839,0,0,0.06172839506172839,18.456790123456788,0)" xlink:href="#af"/><use transform="matrix(0.06172839506172839,0,0,0.06172839506172839,30.80246913580247,0)" xlink:href="#ai"/><use transform="matrix(0.06172839506172839,0,0,0.06172839506172839,43.148148148148145,0)" xlink:href="#aj"/></g><path d="M140-251c81 0 123 46 123 126C263-46 219 4 140 4 59 4 17-45 17-125s42-126 123-126zm0 227c63 0 89-41 89-101s-29-99-89-99c-61 0-89 39-89 99S79-25 140-24" id="ak"/><path d="M115-194c55 1 70 41 70 98S169 2 115 4C84 4 66-9 55-30l1 105H24l-1-265h31l2 30c10-21 28-34 59-34zm-8 174c40 0 45-34 45-75s-6-73-45-74c-42 0-51 32-51 76 0 43 10 73 51 73" id="al"/><path d="M135-143c-3-34-86-38-87 0 15 53 115 12 119 90S17 21 10-45l28-5c4 36 97 45 98 0-10-56-113-15-118-90-4-57 82-63 122-42 12 7 21 19 24 35" id="am"/><g id="e"><use transform="matrix(0.06172839506172839,0,0,0.06172839506172839,0,0)" xlink:href="#ak"/><use transform="matrix(0.06172839506172839,0,0,0.06172839506172839,17.28395061728395,0)" xlink:href="#al"/><use transform="matrix(0.06172839506172839,0,0,0.06172839506172839,29.629629629629626,0)" xlink:href="#Z"/><use transform="matrix(0.06172839506172839,0,0,0.06172839506172839,35.80246913580247,0)" xlink:href="#ah"/><use transform="matrix(0.06172839506172839,0,0,0.06172839506172839,40.67901234567901,0)" xlink:href="#ad"/><use transform="matrix(0.06172839506172839,0,0,0.06172839506172839,53.02469135802469,0)" xlink:href="#ai"/><use transform="matrix(0.06172839506172839,0,0,0.06172839506172839,65.37037037037037,0)" xlink:href="#am"/></g><path d="M177-190C167-65 218 103 67 71c-23-6-38-20-44-43l32-5c15 47 100 32 89-28v-30C133-14 115 1 83 1 29 1 15-40 15-95c0-56 16-97 71-98 29-1 48 16 59 35 1-10 0-23 2-32h30zM94-22c36 0 50-32 50-73 0-42-14-75-50-75-39 0-46 34-46 75s6 73 46 73" id="an"/><g id="f"><use transform="matrix(0.06172839506172839,0,0,0.06172839506172839,0,0)" xlink:href="#ag"/><use transform="matrix(0.06172839506172839,0,0,0.06172839506172839,18.456790123456788,0)" xlink:href="#aa"/><use transform="matrix(0.06172839506172839,0,0,0.06172839506172839,30.80246913580247,0)" xlink:href="#ai"/><use transform="matrix(0.06172839506172839,0,0,0.06172839506172839,43.148148148148145,0)" xlink:href="#aa"/><use transform="matrix(0.06172839506172839,0,0,0.06172839506172839,55.49382716049382,0)" xlink:href="#an"/><use transform="matrix(0.06172839506172839,0,0,0.06172839506172839,67.8395061728395,0)" xlink:href="#af"/></g><g id="g"><use transform="matrix(0.06172839506172839,0,0,0.06172839506172839,0,0)" xlink:href="#Y"/><use transform="matrix(0.06172839506172839,0,0,0.06172839506172839,14.814814814814813,0)" xlink:href="#Z"/><use transform="matrix(0.06172839506172839,0,0,0.06172839506172839,20.98765432098765,0)" xlink:href="#aj"/><use transform="matrix(0.06172839506172839,0,0,0.06172839506172839,33.33333333333333,0)" xlink:href="#ae"/><use transform="matrix(0.06172839506172839,0,0,0.06172839506172839,45.679012345679006,0)" xlink:href="#af"/><use transform="matrix(0.06172839506172839,0,0,0.06172839506172839,58.02469135802468,0)" xlink:href="#ai"/><use transform="matrix(0.06172839506172839,0,0,0.06172839506172839,70.37037037037037,0)" xlink:href="#Z"/><use transform="matrix(0.06172839506172839,0,0,0.06172839506172839,76.5432098765432,0)" xlink:href="#am"/></g><path d="M127-220V0H93v-220H8v-28h204v28h-85" id="ao"/><path d="M96-169c-40 0-48 33-48 73s9 75 48 75c24 0 41-14 43-38l32 2c-6 37-31 61-74 61-59 0-76-41-82-99-10-93 101-131 147-64 4 7 5 14 7 22l-32 3c-4-21-16-35-41-35" id="ap"/><path d="M106-169C34-169 62-67 57 0H25v-261h32l-1 103c12-21 28-36 61-36 89 0 53 116 60 194h-32v-121c2-32-8-49-39-48" id="aq"/><g id="h"><use transform="matrix(0.06172839506172839,0,0,0.06172839506172839,0,0)" xlink:href="#ao"/><use transform="matrix(0.06172839506172839,0,0,0.06172839506172839,11.049382716049381,0)" xlink:href="#af"/><use transform="matrix(0.06172839506172839,0,0,0.06172839506172839,23.39506172839506,0)" xlink:href="#aa"/><use transform="matrix(0.06172839506172839,0,0,0.06172839506172839,35.74074074074074,0)" xlink:href="#ap"/><use transform="matrix(0.06172839506172839,0,0,0.06172839506172839,46.85185185185185,0)" xlink:href="#aq"/><use transform="matrix(0.06172839506172839,0,0,0.06172839506172839,59.197530864197525,0)" xlink:href="#af"/><use transform="matrix(0.06172839506172839,0,0,0.06172839506172839,71.5432098765432,0)" xlink:href="#ab"/><use transform="matrix(0.06172839506172839,0,0,0.06172839506172839,78.88888888888889,0)" xlink:href="#am"/></g><path d="M212-179c-10-28-35-45-73-45-59 0-87 40-87 99 0 60 29 101 89 101 43 0 62-24 78-52l27 14C228-24 195 4 139 4 59 4 22-46 18-125c-6-104 99-153 187-111 19 9 31 26 39 46" id="ar"/><g id="i"><use transform="matrix(0.06172839506172839,0,0,0.06172839506172839,0,0)" xlink:href="#ar"/><use transform="matrix(0.06172839506172839,0,0,0.06172839506172839,15.987654320987653,0)" xlink:href="#ad"/><use transform="matrix(0.06172839506172839,0,0,0.06172839506172839,28.333333333333332,0)" xlink:href="#aj"/><use transform="matrix(0.06172839506172839,0,0,0.06172839506172839,40.67901234567901,0)" xlink:href="#ab"/><use transform="matrix(0.06172839506172839,0,0,0.06172839506172839,48.02469135802469,0)" xlink:href="#am"/><use transform="matrix(0.06172839506172839,0,0,0.06172839506172839,59.1358024691358,0)" xlink:href="#af"/><use transform="matrix(0.06172839506172839,0,0,0.06172839506172839,71.48148148148148,0)" xlink:href="#am"/></g><path d="M30 0v-248h187v28H63v79h144v27H63v87h162V0H30" id="as"/><path d="M141 0L90-78 38 0H4l68-98-65-92h35l48 74 47-74h35l-64 92 68 98h-35" id="at"/><g id="j"><use transform="matrix(0.06172839506172839,0,0,0.06172839506172839,0,0)" xlink:href="#as"/><use transform="matrix(0.06172839506172839,0,0,0.06172839506172839,14.814814814814813,0)" xlink:href="#at"/><use transform="matrix(0.06172839506172839,0,0,0.06172839506172839,25.925925925925924,0)" xlink:href="#ah"/><use transform="matrix(0.06172839506172839,0,0,0.06172839506172839,30.80246913580247,0)" xlink:href="#Z"/></g><path d="M205 0l-28-72H64L36 0H1l101-248h38L239 0h-34zm-38-99l-47-123c-12 45-31 82-46 123h93" id="au"/><g id="k"><use transform="matrix(0.06172839506172839,0,0,0.06172839506172839,0,0)" xlink:href="#au"/><use transform="matrix(0.06172839506172839,0,0,0.06172839506172839,14.814814814814813,0)" xlink:href="#ae"/><use transform="matrix(0.06172839506172839,0,0,0.06172839506172839,27.160493827160494,0)" xlink:href="#ae"/></g><g id="l"><use transform="matrix(0.06172839506172839,0,0,0.06172839506172839,0,0)" xlink:href="#Y"/><use transform="matrix(0.06172839506172839,0,0,0.06172839506172839,14.814814814814813,0)" xlink:href="#Z"/><use transform="matrix(0.06172839506172839,0,0,0.06172839506172839,20.98765432098765,0)" xlink:href="#aj"/><use transform="matrix(0.06172839506172839,0,0,0.06172839506172839,33.33333333333333,0)" xlink:href="#ae"/><use transform="matrix(0.06172839506172839,0,0,0.06172839506172839,45.679012345679006,0)" xlink:href="#af"/><use transform="matrix(0.06172839506172839,0,0,0.06172839506172839,58.02469135802468,0)" xlink:href="#ai"/><use transform="matrix(0.06172839506172839,0,0,0.06172839506172839,70.37037037037037,0)" xlink:href="#Z"/></g><path d="M87 75C49 33 22-17 22-94c0-76 28-126 65-167h31c-38 41-64 92-64 168S80 34 118 75H87" id="av"/><path d="M33 0v-248h34V0H33" id="aw"/><path d="M33-154v-36h34v36H33zM33 0v-36h34V0H33" id="ax"/><g id="m"><use transform="matrix(0.06172839506172839,0,0,0.06172839506172839,0,0)" xlink:href="#av"/><use transform="matrix(0.06172839506172839,0,0,0.06172839506172839,7.345679012345679,0)" xlink:href="#aw"/><use transform="matrix(0.06172839506172839,0,0,0.06172839506172839,13.518518518518519,0)" xlink:href="#ai"/><use transform="matrix(0.06172839506172839,0,0,0.06172839506172839,25.864197530864196,0)" xlink:href="#al"/><use transform="matrix(0.06172839506172839,0,0,0.06172839506172839,38.20987654320987,0)" xlink:href="#aj"/><use transform="matrix(0.06172839506172839,0,0,0.06172839506172839,50.55555555555555,0)" xlink:href="#Z"/><use transform="matrix(0.06172839506172839,0,0,0.06172839506172839,56.72839506172839,0)" xlink:href="#ax"/></g><path d="M210-169c-67 3-38 105-44 169h-31v-121c0-29-5-50-35-48C34-165 62-65 56 0H25l-1-190h30c1 10-1 24 2 32 10-44 99-50 107 0 11-21 27-35 58-36 85-2 47 119 55 194h-31v-121c0-29-5-49-35-48" id="ay"/><path d="M68-38c1 34 0 65-14 84H32c9-13 17-26 17-46H33v-38h35" id="az"/><g id="n"><use transform="matrix(0.06172839506172839,0,0,0.06172839506172839,0,0)" xlink:href="#ac"/><use transform="matrix(0.06172839506172839,0,0,0.06172839506172839,15.987654320987653,0)" xlink:href="#aa"/><use transform="matrix(0.06172839506172839,0,0,0.06172839506172839,28.333333333333332,0)" xlink:href="#ay"/><use transform="matrix(0.06172839506172839,0,0,0.06172839506172839,46.79012345679012,0)" xlink:href="#af"/><use transform="matrix(0.06172839506172839,0,0,0.06172839506172839,59.1358024691358,0)" xlink:href="#az"/></g><path d="M33-261c38 41 65 92 65 168S71 34 33 75H2C39 34 66-17 66-93S39-220 2-261h31" id="aA"/><g id="o"><use transform="matrix(0.06172839506172839,0,0,0.06172839506172839,0,0)" xlink:href="#au"/><use transform="matrix(0.06172839506172839,0,0,0.06172839506172839,14.814814814814813,0)" xlink:href="#an"/><use transform="matrix(0.06172839506172839,0,0,0.06172839506172839,27.160493827160494,0)" xlink:href="#af"/><use transform="matrix(0.06172839506172839,0,0,0.06172839506172839,39.50617283950617,0)" xlink:href="#aA"/></g><path d="M30-248c118-7 216 8 213 122C240-48 200 0 122 0H30v-248zM63-27c89 8 146-16 146-99s-60-101-146-95v194" id="aB"/><path d="M24 0v-261h32V0H24" id="aC"/><path d="M179-190L93 31C79 59 56 82 12 73V49c39 6 53-20 64-50L1-190h34L92-34l54-156h33" id="aD"/><g id="p"><use transform="matrix(0.06172839506172839,0,0,0.06172839506172839,0,0)" xlink:href="#aB"/><use transform="matrix(0.06172839506172839,0,0,0.06172839506172839,15.987654320987653,0)" xlink:href="#ah"/><use transform="matrix(0.06172839506172839,0,0,0.06172839506172839,20.864197530864196,0)" xlink:href="#am"/><use transform="matrix(0.06172839506172839,0,0,0.06172839506172839,31.975308641975307,0)" xlink:href="#al"/><use transform="matrix(0.06172839506172839,0,0,0.06172839506172839,44.32098765432099,0)" xlink:href="#aC"/><use transform="matrix(0.06172839506172839,0,0,0.06172839506172839,49.19753086419753,0)" xlink:href="#aa"/><use transform="matrix(0.06172839506172839,0,0,0.06172839506172839,61.54320987654321,0)" xlink:href="#aD"/></g><g id="q"><use transform="matrix(0.06172839506172839,0,0,0.06172839506172839,0,0)" xlink:href="#au"/><use transform="matrix(0.06172839506172839,0,0,0.06172839506172839,14.814814814814813,0)" xlink:href="#aC"/><use transform="matrix(0.06172839506172839,0,0,0.06172839506172839,19.691358024691354,0)" xlink:href="#aC"/></g><g id="r"><use transform="matrix(0.06172839506172839,0,0,0.06172839506172839,0,0)" xlink:href="#Y"/><use transform="matrix(0.06172839506172839,0,0,0.06172839506172839,14.814814814814813,0)" xlink:href="#Z"/><use transform="matrix(0.06172839506172839,0,0,0.06172839506172839,20.98765432098765,0)" xlink:href="#aj"/><use transform="matrix(0.06172839506172839,0,0,0.06172839506172839,33.33333333333333,0)" xlink:href="#ae"/><use transform="matrix(0.06172839506172839,0,0,0.06172839506172839,45.679012345679006,0)" xlink:href="#af"/><use transform="matrix(0.06172839506172839,0,0,0.06172839506172839,58.02469135802468,0)" xlink:href="#ai"/><use transform="matrix(0.06172839506172839,0,0,0.06172839506172839,70.37037037037037,0)" xlink:href="#Z"/><use transform="matrix(0.06172839506172839,0,0,0.06172839506172839,76.5432098765432,0)" xlink:href="#am"/></g><g id="s"><use transform="matrix(0.06172839506172839,0,0,0.06172839506172839,0,0)" xlink:href="#av"/><use transform="matrix(0.06172839506172839,0,0,0.06172839506172839,7.345679012345679,0)" xlink:href="#ak"/><use transform="matrix(0.06172839506172839,0,0,0.06172839506172839,24.629629629629626,0)" xlink:href="#aj"/><use transform="matrix(0.06172839506172839,0,0,0.06172839506172839,36.9753086419753,0)" xlink:href="#Z"/><use transform="matrix(0.06172839506172839,0,0,0.06172839506172839,43.148148148148145,0)" xlink:href="#al"/><use transform="matrix(0.06172839506172839,0,0,0.06172839506172839,55.49382716049382,0)" xlink:href="#aj"/><use transform="matrix(0.06172839506172839,0,0,0.06172839506172839,67.8395061728395,0)" xlink:href="#Z"/><use transform="matrix(0.06172839506172839,0,0,0.06172839506172839,74.01234567901234,0)" xlink:href="#ax"/></g><path d="M30 0v-248h33v221h125V0H30" id="aE"/><g id="t"><use transform="matrix(0.06172839506172839,0,0,0.06172839506172839,0,0)" xlink:href="#aE"/><use transform="matrix(0.06172839506172839,0,0,0.06172839506172839,12.345679012345679,0)" xlink:href="#ah"/><use transform="matrix(0.06172839506172839,0,0,0.06172839506172839,17.22222222222222,0)" xlink:href="#am"/><use transform="matrix(0.06172839506172839,0,0,0.06172839506172839,28.333333333333332,0)" xlink:href="#Z"/></g><path d="M101-234c-31-9-42 10-38 44h38v23H63V0H32v-167H5v-23h27c-7-52 17-82 69-68v24" id="aF"/><g id="u"><use transform="matrix(0.06172839506172839,0,0,0.06172839506172839,0,0)" xlink:href="#ad"/><use transform="matrix(0.06172839506172839,0,0,0.06172839506172839,12.345679012345679,0)" xlink:href="#aF"/></g><g id="v"><use transform="matrix(0.06172839506172839,0,0,0.06172839506172839,0,0)" xlink:href="#Y"/><use transform="matrix(0.06172839506172839,0,0,0.06172839506172839,14.814814814814813,0)" xlink:href="#Z"/><use transform="matrix(0.06172839506172839,0,0,0.06172839506172839,20.98765432098765,0)" xlink:href="#aj"/><use transform="matrix(0.06172839506172839,0,0,0.06172839506172839,33.33333333333333,0)" xlink:href="#ae"/><use transform="matrix(0.06172839506172839,0,0,0.06172839506172839,45.679012345679006,0)" xlink:href="#af"/><use transform="matrix(0.06172839506172839,0,0,0.06172839506172839,58.02469135802468,0)" xlink:href="#ai"/><use transform="matrix(0.06172839506172839,0,0,0.06172839506172839,70.37037037037037,0)" xlink:href="#Z"/><use transform="matrix(0.06172839506172839,0,0,0.06172839506172839,76.5432098765432,0)" xlink:href="#am"/><use transform="matrix(0.06172839506172839,0,0,0.06172839506172839,87.65432098765432,0)" xlink:href="#aA"/></g><path d="M143 4C61 4 22-44 18-125c-5-107 100-154 193-111 17 8 29 25 37 43l-32 9c-13-25-37-40-76-40-61 0-88 39-88 99 0 61 29 100 91 101 35 0 62-11 79-27v-45h-74v-28h105v86C228-13 192 4 143 4" id="aG"/><g id="w"><use transform="matrix(0.06172839506172839,0,0,0.06172839506172839,0,0)" xlink:href="#aG"/><use transform="matrix(0.06172839506172839,0,0,0.06172839506172839,17.28395061728395,0)" xlink:href="#ad"/></g><path d="M160-131c35 5 61 23 61 61C221 17 115-2 30 0v-248c76 3 177-17 177 60 0 33-19 50-47 57zm-97-11c50-1 110 9 110-42 0-47-63-36-110-37v79zm0 115c55-2 124 14 124-45 0-56-70-42-124-44v89" id="aH"/><path d="M143 0L79-87 56-68V0H24v-261h32v163l83-92h37l-77 82L181 0h-38" id="aI"/><g id="x"><use transform="matrix(0.06172839506172839,0,0,0.06172839506172839,0,0)" xlink:href="#aH"/><use transform="matrix(0.06172839506172839,0,0,0.06172839506172839,14.814814814814813,0)" xlink:href="#aa"/><use transform="matrix(0.06172839506172839,0,0,0.06172839506172839,27.160493827160494,0)" xlink:href="#ap"/><use transform="matrix(0.06172839506172839,0,0,0.06172839506172839,38.27160493827161,0)" xlink:href="#aI"/></g><g id="y"><use transform="matrix(0.06172839506172839,0,0,0.06172839506172839,0,0)" xlink:href="#Z"/><use transform="matrix(0.06172839506172839,0,0,0.06172839506172839,6.172839506172839,0)" xlink:href="#ad"/></g><g id="z"><use transform="matrix(0.06172839506172839,0,0,0.06172839506172839,0,0)" xlink:href="#ag"/><use transform="matrix(0.06172839506172839,0,0,0.06172839506172839,18.456790123456788,0)" xlink:href="#aa"/><use transform="matrix(0.06172839506172839,0,0,0.06172839506172839,30.80246913580247,0)" xlink:href="#ah"/><use transform="matrix(0.06172839506172839,0,0,0.06172839506172839,35.67901234567901,0)" xlink:href="#ai"/></g><path d="M103-251c84 0 111 97 45 133-19 10-37 24-39 52H78c0-63 77-55 77-114 0-30-21-42-52-43-32 0-53 17-56 46l-32-2c7-45 34-72 88-72zM77 0v-35h34V0H77" id="aJ"/><g id="A"><use transform="matrix(0.06172839506172839,0,0,0.06172839506172839,0,0)" xlink:href="#ag"/><use transform="matrix(0.06172839506172839,0,0,0.06172839506172839,18.456790123456788,0)" xlink:href="#af"/><use transform="matrix(0.06172839506172839,0,0,0.06172839506172839,30.80246913580247,0)" xlink:href="#ai"/><use transform="matrix(0.06172839506172839,0,0,0.06172839506172839,43.148148148148145,0)" xlink:href="#aj"/><use transform="matrix(0.06172839506172839,0,0,0.06172839506172839,55.49382716049382,0)" xlink:href="#aJ"/></g><g id="B"><use transform="matrix(0.06172839506172839,0,0,0.06172839506172839,0,0)" xlink:href="#ar"/><use transform="matrix(0.06172839506172839,0,0,0.06172839506172839,15.987654320987653,0)" xlink:href="#ad"/><use transform="matrix(0.06172839506172839,0,0,0.06172839506172839,28.333333333333332,0)" xlink:href="#ay"/><use transform="matrix(0.06172839506172839,0,0,0.06172839506172839,46.79012345679012,0)" xlink:href="#al"/><use transform="matrix(0.06172839506172839,0,0,0.06172839506172839,59.1358024691358,0)" xlink:href="#aC"/><use transform="matrix(0.06172839506172839,0,0,0.06172839506172839,64.01234567901234,0)" xlink:href="#af"/><use transform="matrix(0.06172839506172839,0,0,0.06172839506172839,76.35802469135803,0)" xlink:href="#Z"/><use transform="matrix(0.06172839506172839,0,0,0.06172839506172839,82.53086419753086,0)" xlink:href="#ah"/><use transform="matrix(0.06172839506172839,0,0,0.06172839506172839,87.4074074074074,0)" xlink:href="#ad"/><use transform="matrix(0.06172839506172839,0,0,0.06172839506172839,99.75308641975309,0)" xlink:href="#ai"/></g><g id="C"><use transform="matrix(0.06172839506172839,0,0,0.06172839506172839,0,0)" xlink:href="#ar"/><use transform="matrix(0.06172839506172839,0,0,0.06172839506172839,15.987654320987653,0)" xlink:href="#aq"/><use transform="matrix(0.06172839506172839,0,0,0.06172839506172839,28.333333333333332,0)" xlink:href="#af"/><use transform="matrix(0.06172839506172839,0,0,0.06172839506172839,40.67901234567901,0)" xlink:href="#ap"/><use transform="matrix(0.06172839506172839,0,0,0.06172839506172839,51.79012345679013,0)" xlink:href="#aI"/></g><path d="M233-177c-1 41-23 64-60 70L243 0h-38l-65-103H63V0H30v-248c88 3 205-21 203 71zM63-129c60-2 137 13 137-47 0-61-80-42-137-45v92" id="aK"/><g id="D"><use transform="matrix(0.06172839506172839,0,0,0.06172839506172839,0,0)" xlink:href="#aK"/><use transform="matrix(0.06172839506172839,0,0,0.06172839506172839,15.987654320987653,0)" xlink:href="#af"/><use transform="matrix(0.06172839506172839,0,0,0.06172839506172839,28.333333333333332,0)" xlink:href="#Z"/><use transform="matrix(0.06172839506172839,0,0,0.06172839506172839,34.50617283950617,0)" xlink:href="#aj"/><use transform="matrix(0.06172839506172839,0,0,0.06172839506172839,46.85185185185185,0)" xlink:href="#ab"/><use transform="matrix(0.06172839506172839,0,0,0.06172839506172839,54.197530864197525,0)" xlink:href="#ai"/></g><path d="M30-248c87 1 191-15 191 75 0 78-77 80-158 76V0H30v-248zm33 125c57 0 124 11 124-50 0-59-68-47-124-48v98" id="aL"/><g id="E"><use transform="matrix(0.06172839506172839,0,0,0.06172839506172839,0,0)" xlink:href="#aL"/><use transform="matrix(0.06172839506172839,0,0,0.06172839506172839,14.814814814814813,0)" xlink:href="#ad"/><use transform="matrix(0.06172839506172839,0,0,0.06172839506172839,27.160493827160494,0)" xlink:href="#ah"/><use transform="matrix(0.06172839506172839,0,0,0.06172839506172839,32.03703703703704,0)" xlink:href="#ai"/><use transform="matrix(0.06172839506172839,0,0,0.06172839506172839,44.382716049382715,0)" xlink:href="#Z"/></g><g id="F"><use transform="matrix(0.06172839506172839,0,0,0.06172839506172839,0,0)" xlink:href="#ao"/><use transform="matrix(0.06172839506172839,0,0,0.06172839506172839,11.049382716049381,0)" xlink:href="#af"/><use transform="matrix(0.06172839506172839,0,0,0.06172839506172839,23.39506172839506,0)" xlink:href="#aa"/><use transform="matrix(0.06172839506172839,0,0,0.06172839506172839,35.74074074074074,0)" xlink:href="#ap"/><use transform="matrix(0.06172839506172839,0,0,0.06172839506172839,46.85185185185185,0)" xlink:href="#aq"/><use transform="matrix(0.06172839506172839,0,0,0.06172839506172839,59.197530864197525,0)" xlink:href="#af"/><use transform="matrix(0.06172839506172839,0,0,0.06172839506172839,71.5432098765432,0)" xlink:href="#ab"/></g><path d="M115-194c53 0 69 39 70 98 0 66-23 100-70 100C84 3 66-7 56-30L54 0H23l1-261h32v101c10-23 28-34 59-34zm-8 174c40 0 45-34 45-75 0-40-5-75-45-74-42 0-51 32-51 76 0 43 10 73 51 73" id="aM"/><path d="M24-231v-30h32v30H24zM-9 49c24 4 33-6 33-30v-209h32V24c2 40-23 58-65 49V49" id="aN"/><g id="G"><use transform="matrix(0.06172839506172839,0,0,0.06172839506172839,0,0)" xlink:href="#Y"/><use transform="matrix(0.06172839506172839,0,0,0.06172839506172839,14.814814814814813,0)" xlink:href="#aj"/><use transform="matrix(0.06172839506172839,0,0,0.06172839506172839,27.160493827160494,0)" xlink:href="#aM"/><use transform="matrix(0.06172839506172839,0,0,0.06172839506172839,39.50617283950617,0)" xlink:href="#aN"/><use transform="matrix(0.06172839506172839,0,0,0.06172839506172839,44.382716049382715,0)" xlink:href="#af"/><use transform="matrix(0.06172839506172839,0,0,0.06172839506172839,56.72839506172839,0)" xlink:href="#ap"/><use transform="matrix(0.06172839506172839,0,0,0.06172839506172839,67.8395061728395,0)" xlink:href="#Z"/><use transform="matrix(0.06172839506172839,0,0,0.06172839506172839,74.01234567901234,0)" xlink:href="#aA"/></g><g id="H"><use transform="matrix(0.06172839506172839,0,0,0.06172839506172839,0,0)" xlink:href="#ao"/><use transform="matrix(0.06172839506172839,0,0,0.06172839506172839,11.049382716049381,0)" xlink:href="#af"/><use transform="matrix(0.06172839506172839,0,0,0.06172839506172839,23.39506172839506,0)" xlink:href="#aa"/><use transform="matrix(0.06172839506172839,0,0,0.06172839506172839,35.74074074074074,0)" xlink:href="#ap"/><use transform="matrix(0.06172839506172839,0,0,0.06172839506172839,46.85185185185185,0)" xlink:href="#aq"/><use transform="matrix(0.06172839506172839,0,0,0.06172839506172839,59.197530864197525,0)" xlink:href="#af"/><use transform="matrix(0.06172839506172839,0,0,0.06172839506172839,71.5432098765432,0)" xlink:href="#ab"/><use transform="matrix(0.06172839506172839,0,0,0.06172839506172839,78.88888888888889,0)" xlink:href="#am"/></g><g id="I"><use transform="matrix(0.06172839506172839,0,0,0.06172839506172839,0,0)" xlink:href="#ao"/><use transform="matrix(0.06172839506172839,0,0,0.06172839506172839,11.049382716049381,0)" xlink:href="#af"/><use transform="matrix(0.06172839506172839,0,0,0.06172839506172839,23.39506172839506,0)" xlink:href="#aa"/><use transform="matrix(0.06172839506172839,0,0,0.06172839506172839,35.74074074074074,0)" xlink:href="#ap"/><use transform="matrix(0.06172839506172839,0,0,0.06172839506172839,46.85185185185185,0)" xlink:href="#aq"/><use transform="matrix(0.06172839506172839,0,0,0.06172839506172839,59.197530864197525,0)" xlink:href="#af"/><use transform="matrix(0.06172839506172839,0,0,0.06172839506172839,71.5432098765432,0)" xlink:href="#ab"/><use transform="matrix(0.06172839506172839,0,0,0.06172839506172839,78.88888888888889,0)" xlink:href="#am"/><use transform="matrix(0.06172839506172839,0,0,0.06172839506172839,90,0)" xlink:href="#aA"/></g><g id="J"><use transform="matrix(0.06172839506172839,0,0,0.06172839506172839,0,0)" xlink:href="#ar"/><use transform="matrix(0.06172839506172839,0,0,0.06172839506172839,15.987654320987653,0)" xlink:href="#ad"/><use transform="matrix(0.06172839506172839,0,0,0.06172839506172839,28.333333333333332,0)" xlink:href="#aj"/><use transform="matrix(0.06172839506172839,0,0,0.06172839506172839,40.67901234567901,0)" xlink:href="#ab"/><use transform="matrix(0.06172839506172839,0,0,0.06172839506172839,48.02469135802469,0)" xlink:href="#am"/><use transform="matrix(0.06172839506172839,0,0,0.06172839506172839,59.1358024691358,0)" xlink:href="#af"/></g><g id="K"><use transform="matrix(0.06172839506172839,0,0,0.06172839506172839,0,0)" xlink:href="#ac"/><use transform="matrix(0.06172839506172839,0,0,0.06172839506172839,15.987654320987653,0)" xlink:href="#aa"/><use transform="matrix(0.06172839506172839,0,0,0.06172839506172839,28.333333333333332,0)" xlink:href="#ay"/><use transform="matrix(0.06172839506172839,0,0,0.06172839506172839,46.79012345679012,0)" xlink:href="#af"/><use transform="matrix(0.06172839506172839,0,0,0.06172839506172839,59.1358024691358,0)" xlink:href="#aA"/></g><g id="L"><use transform="matrix(0.06172839506172839,0,0,0.06172839506172839,0,0)" xlink:href="#ar"/><use transform="matrix(0.06172839506172839,0,0,0.06172839506172839,15.987654320987653,0)" xlink:href="#ad"/><use transform="matrix(0.06172839506172839,0,0,0.06172839506172839,28.333333333333332,0)" xlink:href="#aj"/><use transform="matrix(0.06172839506172839,0,0,0.06172839506172839,40.67901234567901,0)" xlink:href="#ab"/><use transform="matrix(0.06172839506172839,0,0,0.06172839506172839,48.02469135802469,0)" xlink:href="#am"/><use transform="matrix(0.06172839506172839,0,0,0.06172839506172839,59.1358024691358,0)" xlink:href="#af"/><use transform="matrix(0.06172839506172839,0,0,0.06172839506172839,71.48148148148148,0)" xlink:href="#am"/></g><g id="M"><use transform="matrix(0.06172839506172839,0,0,0.06172839506172839,0,0)" xlink:href="#ar"/><use transform="matrix(0.06172839506172839,0,0,0.06172839506172839,15.987654320987653,0)" xlink:href="#ad"/><use transform="matrix(0.06172839506172839,0,0,0.06172839506172839,28.333333333333332,0)" xlink:href="#aj"/><use transform="matrix(0.06172839506172839,0,0,0.06172839506172839,40.67901234567901,0)" xlink:href="#ab"/><use transform="matrix(0.06172839506172839,0,0,0.06172839506172839,48.02469135802469,0)" xlink:href="#am"/><use transform="matrix(0.06172839506172839,0,0,0.06172839506172839,59.1358024691358,0)" xlink:href="#af"/><use transform="matrix(0.06172839506172839,0,0,0.06172839506172839,71.48148148148148,0)" xlink:href="#am"/><use transform="matrix(0.06172839506172839,0,0,0.06172839506172839,82.5925925925926,0)" xlink:href="#aA"/></g><g id="N"><use transform="matrix(0.06172839506172839,0,0,0.06172839506172839,0,0)" xlink:href="#au"/><use transform="matrix(0.06172839506172839,0,0,0.06172839506172839,14.814814814814813,0)" xlink:href="#am"/><use transform="matrix(0.06172839506172839,0,0,0.06172839506172839,25.925925925925924,0)" xlink:href="#am"/><use transform="matrix(0.06172839506172839,0,0,0.06172839506172839,37.03703703703704,0)" xlink:href="#ah"/><use transform="matrix(0.06172839506172839,0,0,0.06172839506172839,41.91358024691358,0)" xlink:href="#an"/><use transform="matrix(0.06172839506172839,0,0,0.06172839506172839,54.25925925925926,0)" xlink:href="#ai"/></g><g id="O"><use transform="matrix(0.06172839506172839,0,0,0.06172839506172839,0,0)" xlink:href="#Y"/><use transform="matrix(0.06172839506172839,0,0,0.06172839506172839,14.814814814814813,0)" xlink:href="#Z"/><use transform="matrix(0.06172839506172839,0,0,0.06172839506172839,20.98765432098765,0)" xlink:href="#aj"/><use transform="matrix(0.06172839506172839,0,0,0.06172839506172839,33.33333333333333,0)" xlink:href="#ae"/><use transform="matrix(0.06172839506172839,0,0,0.06172839506172839,45.679012345679006,0)" xlink:href="#af"/><use transform="matrix(0.06172839506172839,0,0,0.06172839506172839,58.02469135802468,0)" xlink:href="#ai"/><use transform="matrix(0.06172839506172839,0,0,0.06172839506172839,70.37037037037037,0)" xlink:href="#Z"/><use transform="matrix(0.06172839506172839,0,0,0.06172839506172839,76.5432098765432,0)" xlink:href="#am"/></g><g id="P"><use transform="matrix(0.06172839506172839,0,0,0.06172839506172839,0,0)" xlink:href="#aa"/><use transform="matrix(0.06172839506172839,0,0,0.06172839506172839,12.345679012345679,0)" xlink:href="#ai"/><use transform="matrix(0.06172839506172839,0,0,0.06172839506172839,24.691358024691358,0)" xlink:href="#ae"/></g><g id="Q"><use transform="matrix(0.06172839506172839,0,0,0.06172839506172839,0,0)" xlink:href="#as"/><use transform="matrix(0.06172839506172839,0,0,0.06172839506172839,14.814814814814813,0)" xlink:href="#ai"/><use transform="matrix(0.06172839506172839,0,0,0.06172839506172839,27.160493827160494,0)" xlink:href="#ae"/></g><path fill="#3a414a" d="M230 0l2-204L168 0h-37L68-204 70 0H24v-248h70l56 185 57-185h69V0h-46" id="aO"/><path fill="#3a414a" d="M133-34C117-15 103 5 69 4 32 3 11-16 11-54c-1-60 55-63 116-61 1-26-3-47-28-47-18 1-26 9-28 27l-52-2c7-38 36-58 82-57s74 22 75 68l1 82c-1 14 12 18 25 15v27c-30 8-71 5-69-32zm-48 3c29 0 43-24 42-57-32 0-66-3-65 30 0 17 8 27 23 27" id="aP"/><path fill="#3a414a" d="M135-194c87-1 58 113 63 194h-50c-7-57 23-157-34-157-59 0-34 97-39 157H25l-1-190h47c2 12-1 28 3 38 12-26 28-41 61-42" id="aQ"/><path fill="#3a414a" d="M195-6C206 82 75 100 31 46c-4-6-6-13-8-21l49-6c3 16 16 24 34 25 40 0 42-37 40-79-11 22-30 35-61 35-53 0-70-43-70-97 0-56 18-96 73-97 30 0 46 14 59 34l2-30h47zm-90-29c32 0 41-27 41-63 0-35-9-62-40-62-32 0-39 29-40 63 0 36 9 62 39 62" id="aR"/><path fill="#3a414a" d="M185-48c-13 30-37 53-82 52C43 2 14-33 14-96s30-98 90-98c62 0 83 45 84 108H66c0 31 8 55 39 56 18 0 30-7 34-22zm-45-69c5-46-57-63-70-21-2 6-4 13-4 21h74" id="aS"/><g id="R"><use transform="matrix(0.04938271604938272,0,0,0.04938271604938272,0,0)" xlink:href="#aO"/><use transform="matrix(0.04938271604938272,0,0,0.04938271604938272,14.765432098765434,0)" xlink:href="#aP"/><use transform="matrix(0.04938271604938272,0,0,0.04938271604938272,24.641975308641978,0)" xlink:href="#aQ"/><use transform="matrix(0.04938271604938272,0,0,0.04938271604938272,35.45679012345679,0)" xlink:href="#aP"/><use transform="matrix(0.04938271604938272,0,0,0.04938271604938272,45.333333333333336,0)" xlink:href="#aR"/><use transform="matrix(0.04938271604938272,0,0,0.04938271604938272,56.14814814814815,0)" xlink:href="#aS"/></g><path fill="#3a414a" d="M169-182c-1-43-94-46-97-3 18 66 151 10 154 114 3 95-165 93-204 36-6-8-10-19-12-30l50-8c3 46 112 56 116 5-17-69-150-10-154-114-4-87 153-88 188-35 5 8 8 18 10 28" id="aT"/><path fill="#3a414a" d="M115-3C79 11 28 4 28-45v-112H4v-33h27l15-45h31v45h36v33H77v99c-1 23 16 31 38 25v30" id="aU"/><path fill="#3a414a" d="M85 4C-2 5 27-109 22-190h50c7 57-23 150 33 157 60-5 35-97 40-157h50l1 190h-47c-2-12 1-28-3-38-12 25-28 42-61 42" id="aV"/><path fill="#3a414a" d="M88-194c31-1 46 15 58 34l-1-101h50l1 261h-48c-2-10 0-23-3-31C134-8 116 4 84 4 32 4 16-41 15-95c0-56 19-97 73-99zm17 164c33 0 40-30 41-66 1-37-9-64-41-64s-38 30-39 65c0 43 13 65 39 65" id="aW"/><path fill="#3a414a" d="M137-138c1-29-70-34-71-4 15 46 118 7 119 86 1 83-164 76-172 9l43-7c4 19 20 25 44 25 33 8 57-30 24-41C81-84 22-81 20-136c-2-80 154-74 161-7" id="aX"/><g id="S"><use transform="matrix(0.04938271604938272,0,0,0.04938271604938272,0,0)" xlink:href="#aT"/><use transform="matrix(0.04938271604938272,0,0,0.04938271604938272,11.851851851851853,0)" xlink:href="#aU"/><use transform="matrix(0.04938271604938272,0,0,0.04938271604938272,17.728395061728396,0)" xlink:href="#aV"/><use transform="matrix(0.04938271604938272,0,0,0.04938271604938272,28.543209876543205,0)" xlink:href="#aW"/><use transform="matrix(0.04938271604938272,0,0,0.04938271604938272,39.358024691358025,0)" xlink:href="#aS"/><use transform="matrix(0.04938271604938272,0,0,0.04938271604938272,49.23456790123457,0)" xlink:href="#aQ"/><use transform="matrix(0.04938271604938272,0,0,0.04938271604938272,60.04938271604939,0)" xlink:href="#aU"/><use transform="matrix(0.04938271604938272,0,0,0.04938271604938272,65.92592592592592,0)" xlink:href="#aX"/></g><path fill="#3a414a" d="M136-208V0H84v-208H4v-40h212v40h-80" id="aY"/><path fill="#3a414a" d="M190-63c-7 42-38 67-86 67-59 0-84-38-90-98-12-110 154-137 174-36l-49 2c-2-19-15-32-35-32-30 0-35 28-38 64-6 74 65 87 74 30" id="aZ"/><path fill="#3a414a" d="M114-157C55-157 80-60 75 0H25v-261h50l-1 109c12-26 28-41 61-42 86-1 58 113 63 194h-50c-7-57 23-157-34-157" id="ba"/><path fill="#3a414a" d="M135-150c-39-12-60 13-60 57V0H25l-1-190h47c2 13-1 29 3 40 6-28 27-53 61-41v41" id="bb"/><g id="T"><use transform="matrix(0.04938271604938272,0,0,0.04938271604938272,0,0)" xlink:href="#aY"/><use transform="matrix(0.04938271604938272,0,0,0.04938271604938272,9.481481481481481,0)" xlink:href="#aS"/><use transform="matrix(0.04938271604938272,0,0,0.04938271604938272,19.358024691358025,0)" xlink:href="#aP"/><use transform="matrix(0.04938271604938272,0,0,0.04938271604938272,29.23456790123457,0)" xlink:href="#aZ"/><use transform="matrix(0.04938271604938272,0,0,0.04938271604938272,39.111111111111114,0)" xlink:href="#ba"/><use transform="matrix(0.04938271604938272,0,0,0.04938271604938272,49.92592592592593,0)" xlink:href="#aS"/><use transform="matrix(0.04938271604938272,0,0,0.04938271604938272,59.802469135802475,0)" xlink:href="#bb"/><use transform="matrix(0.04938271604938272,0,0,0.04938271604938272,66.71604938271605,0)" xlink:href="#aX"/></g><path fill="#3a414a" d="M67-125c0 53 21 87 73 88 37 1 54-22 65-47l45 17C233-25 199 4 140 4 58 4 20-42 15-125 8-235 124-281 211-232c18 10 29 29 36 50l-46 12c-8-25-30-41-62-41-52 0-71 34-72 86" id="bc"/><path fill="#3a414a" d="M110-194c64 0 96 36 96 99 0 64-35 99-97 99-61 0-95-36-95-99 0-62 34-99 96-99zm-1 164c35 0 45-28 45-65 0-40-10-65-43-65-34 0-45 26-45 65 0 36 10 65 43 65" id="bd"/><g id="U"><use transform="matrix(0.04938271604938272,0,0,0.04938271604938272,0,0)" xlink:href="#bc"/><use transform="matrix(0.04938271604938272,0,0,0.04938271604938272,12.790123456790125,0)" xlink:href="#bd"/><use transform="matrix(0.04938271604938272,0,0,0.04938271604938272,23.60493827160494,0)" xlink:href="#aV"/><use transform="matrix(0.04938271604938272,0,0,0.04938271604938272,34.41975308641975,0)" xlink:href="#bb"/><use transform="matrix(0.04938271604938272,0,0,0.04938271604938272,41.333333333333336,0)" xlink:href="#aX"/><use transform="matrix(0.04938271604938272,0,0,0.04938271604938272,51.20987654320988,0)" xlink:href="#aS"/><use transform="matrix(0.04938271604938272,0,0,0.04938271604938272,61.086419753086425,0)" xlink:href="#aX"/></g><path fill="#3a414a" d="M24 0v-248h195v40H76v63h132v40H76v65h150V0H24" id="be"/><path fill="#3a414a" d="M144 0l-44-69L55 0H2l70-98-66-92h53l41 62 40-62h54l-67 91 71 99h-54" id="bf"/><path fill="#3a414a" d="M25-224v-37h50v37H25zM25 0v-190h50V0H25" id="bg"/><g id="V"><use transform="matrix(0.04938271604938272,0,0,0.04938271604938272,0,0)" xlink:href="#be"/><use transform="matrix(0.04938271604938272,0,0,0.04938271604938272,11.851851851851853,0)" xlink:href="#bf"/><use transform="matrix(0.04938271604938272,0,0,0.04938271604938272,21.7283950617284,0)" xlink:href="#bg"/><use transform="matrix(0.04938271604938272,0,0,0.04938271604938272,26.666666666666668,0)" xlink:href="#aU"/></g><path fill="#3a414a" d="M146-102V0H94v-102L6-248h54l60 105 60-105h54" id="bh"/><g id="W"><use transform="matrix(0.04938271604938272,0,0,0.04938271604938272,0,0)" xlink:href="#bh"/><use transform="matrix(0.04938271604938272,0,0,0.04938271604938272,10.864197530864198,0)" xlink:href="#aS"/><use transform="matrix(0.04938271604938272,0,0,0.04938271604938272,20.74074074074074,0)" xlink:href="#aX"/></g><path fill="#3a414a" d="M175 0L67-191c6 58 2 128 3 191H24v-248h59L193-55c-6-58-2-129-3-193h46V0h-61" id="bi"/><g id="X"><use transform="matrix(0.04938271604938272,0,0,0.04938271604938272,0,0)" xlink:href="#bi"/><use transform="matrix(0.04938271604938272,0,0,0.04938271604938272,12.790123456790125,0)" xlink:href="#bd"/></g></defs></g></svg>