<svg xmlns="http://www.w3.org/2000/svg" xmlns:xlink="http://www.w3.org/1999/xlink" xmlns:lucid="lucid" width="4240" height="3352"><g transform="translate(1087.0619388813045 1201.0383440843684)" lucid:page-tab-id="0_0"><path d="M-1500-1500h5000v4000h-5000z" fill="#fff"/><path d="M-1066.06-1174.04a6 6 0 0 1 6-6h190a6 6 0 0 1 6 6v150a6 6 0 0 1-6 6h-190a6 6 0 0 1-6-6z" stroke="#ff80df" stroke-width="2" fill="#fff0fb"/><use xlink:href="#a" transform="matrix(1,0,0,1,-1054.0619388813045,-1168.0383440843684) translate(32.888888888888886 35.02777777777778)"/><use xlink:href="#b" transform="matrix(1,0,0,1,-1054.0619388813045,-1168.0383440843684) translate(85.91358024691357 35.02777777777778)"/><use xlink:href="#c" transform="matrix(1,0,0,1,-1054.0619388813045,-1168.0383440843684) translate(19.33950617283952 61.69444444444445)"/><use xlink:href="#d" transform="matrix(1,0,0,1,-1054.0619388813045,-1168.0383440843684) translate(90.820987654321 61.69444444444445)"/><use xlink:href="#e" transform="matrix(1,0,0,1,-1054.0619388813045,-1168.0383440843684) translate(24.24691358024691 88.36111111111111)"/><use xlink:href="#f" transform="matrix(1,0,0,1,-1054.0619388813045,-1168.0383440843684) translate(51.99382716049383 115.0277777777778)"/><path d="M-969.75 1331.7a7.5 7.5 0 0 1 9.37 0l90.63 72.5a4.8 4.8 0 0 1 0 7.5l-90.63 72.5a7.5 7.5 0 0 1-9.37 0l-90.63-72.5a4.8 4.8 0 0 1 0-7.5z" stroke="#6db1ff" stroke-width="2" fill="#edf5ff"/><use xlink:href="#g" transform="matrix(1,0,0,1,-1060.0619388813045,1332.9616559156316) translate(40.159320987654326 64.65277777777777)"/><use xlink:href="#h" transform="matrix(1,0,0,1,-1060.0619388813045,1332.9616559156316) translate(94.35685185185186 64.65277777777777)"/><use xlink:href="#i" transform="matrix(1,0,0,1,-1060.0619388813045,1332.9616559156316) translate(56.76425925925926 91.31944444444446)"/><path d="M1692.25-814.3a7.5 7.5 0 0 1 9.37 0l90.63 72.5a4.8 4.8 0 0 1 0 7.5l-90.63 72.5a7.5 7.5 0 0 1-9.37 0l-90.63-72.5a4.8 4.8 0 0 1 0-7.5z" stroke="#6db1ff" stroke-width="2" fill="#edf5ff"/><use xlink:href="#j" transform="matrix(1,0,0,1,1601.9380611186955,-813.0383440843684) translate(54.9124074074074 64.65277777777777)"/><use xlink:href="#k" transform="matrix(1,0,0,1,1601.9380611186955,-813.0383440843684) translate(51.177839506172845 91.31944444444446)"/><path d="M2896.25-814.3a7.5 7.5 0 0 1 9.37 0l90.63 72.5a4.8 4.8 0 0 1 0 7.5l-90.63 72.5a7.5 7.5 0 0 1-9.37 0l-90.63-72.5a4.8 4.8 0 0 1 0-7.5z" stroke="#6db1ff" stroke-width="2" fill="#edf5ff"/><use xlink:href="#j" transform="matrix(1,0,0,1,2805.9380611186953,-813.0383440843684) translate(54.9124074074074 64.65277777777777)"/><use xlink:href="#l" transform="matrix(1,0,0,1,2805.9380611186953,-813.0383440843684) translate(50.004999999999995 91.31944444444446)"/><path d="M477.25-814.3a7.5 7.5 0 0 1 9.37 0l90.63 72.5a4.8 4.8 0 0 1 0 7.5l-90.63 72.5a7.5 7.5 0 0 1-9.37 0l-90.63-72.5a4.8 4.8 0 0 1 0-7.5z" stroke="#6db1ff" stroke-width="2" fill="#edf5ff"/><use xlink:href="#j" transform="matrix(1,0,0,1,386.9380611186955,-813.0383440843684) translate(54.9124074074074 64.65277777777777)"/><use xlink:href="#m" transform="matrix(1,0,0,1,386.9380611186955,-813.0383440843684) translate(53.708703703703705 91.31944444444446)"/><path d="M-1066.06 1693.96a6 6 0 0 1 6-6h190a6 6 0 0 1 6 6v150a6 6 0 0 1-6 6h-190a6 6 0 0 1-6-6z" stroke="#ff80df" stroke-width="2" fill="#fff0fb"/><use xlink:href="#n" transform="matrix(1,0,0,1,-1054.0619388813045,1699.9616559156316) translate(37.82716049382716 47.96527777777778)"/><use xlink:href="#b" transform="matrix(1,0,0,1,-1054.0619388813045,1699.9616559156316) translate(80.97530864197532 47.96527777777778)"/><use xlink:href="#o" transform="matrix(1,0,0,1,-1054.0619388813045,1699.9616559156316) translate(21.839506172839506 74.63194444444446)"/><use xlink:href="#p" transform="matrix(1,0,0,1,-1054.0619388813045,1699.9616559156316) translate(125.2962962962963 74.63194444444446)"/><use xlink:href="#q" transform="matrix(1,0,0,1,-1054.0619388813045,1699.9616559156316) translate(46.50000000000001 101.29861111111111)"/><path d="M1235.76 509.96a6 6 0 0 1 6-6h190a6 6 0 0 1 6 6v150a6 6 0 0 1-6 6h-190a6 6 0 0 1-6-6z" stroke="#ff80df" stroke-width="2" fill="#fff0fb"/><use xlink:href="#r" transform="matrix(1,0,0,1,1247.7562429368775,515.9616559156316) translate(32.95061728395061 60.90277777777778)"/><use xlink:href="#s" transform="matrix(1,0,0,1,1247.7562429368775,515.9616559156316) translate(57.54938271604938 87.56944444444446)"/><path d="M1659.07 971.96a6 6 0 0 1 6-6h190a6 6 0 0 1 6 6v150a6 6 0 0 1-6 6h-190a6 6 0 0 1-6-6z" stroke="#ff80df" stroke-width="2" fill="#fff0fb"/><use xlink:href="#t" transform="matrix(1,0,0,1,1671.0713944520287,977.9616559156316) translate(16.283950617283963 60.90277777777778)"/><use xlink:href="#u" transform="matrix(1,0,0,1,1671.0713944520287,977.9616559156316) translate(89 60.90277777777778)"/><use xlink:href="#v" transform="matrix(1,0,0,1,1671.0713944520287,977.9616559156316) translate(113.69135802469135 60.90277777777778)"/><use xlink:href="#w" transform="matrix(1,0,0,1,1671.0713944520287,977.9616559156316) translate(61.25308641975309 87.56944444444446)"/><path d="M842.94-252.04a6 6 0 0 1 6-6h190a6 6 0 0 1 6 6v150a6 6 0 0 1-6 6h-190a6 6 0 0 1-6-6z" stroke="#ff80df" stroke-width="2" fill="#fff0fb"/><use xlink:href="#x" transform="matrix(1,0,0,1,854.9380611186955,-246.03834408436842) translate(27.888888888888893 47.96527777777778)"/><use xlink:href="#y" transform="matrix(1,0,0,1,854.9380611186955,-246.03834408436842) translate(73.5679012345679 47.96527777777778)"/><use xlink:href="#z" transform="matrix(1,0,0,1,854.9380611186955,-246.03834408436842) translate(21.808641975308646 74.63194444444446)"/><use xlink:href="#A" transform="matrix(1,0,0,1,854.9380611186955,-246.03834408436842) translate(90.88271604938272 74.63194444444446)"/><use xlink:href="#B" transform="matrix(1,0,0,1,854.9380611186955,-246.03834408436842) translate(65.57407407407408 101.29861111111111)"/><path d="M1244.94-252.04a6 6 0 0 1 6-6h190a6 6 0 0 1 6 6v150a6 6 0 0 1-6 6h-190a6 6 0 0 1-6-6z" stroke="#ff80df" stroke-width="2" fill="#fff0fb"/><use xlink:href="#C" transform="matrix(1,0,0,1,1256.9380611186955,-246.03834408436842) translate(37.302469135802475 47.96527777777778)"/><use xlink:href="#D" transform="matrix(1,0,0,1,1256.9380611186955,-246.03834408436842) translate(116.12962962962962 47.96527777777778)"/><use xlink:href="#E" transform="matrix(1,0,0,1,1256.9380611186955,-246.03834408436842) translate(1.9938271604938365 74.63194444444446)"/><use xlink:href="#F" transform="matrix(1,0,0,1,1256.9380611186955,-246.03834408436842) translate(95.82098765432099 74.63194444444446)"/><use xlink:href="#G" transform="matrix(1,0,0,1,1256.9380611186955,-246.03834408436842) translate(8.81481481481481 101.29861111111111)"/><use xlink:href="#H" transform="matrix(1,0,0,1,1256.9380611186955,-246.03834408436842) translate(49.49382716049382 101.29861111111111)"/><use xlink:href="#I" transform="matrix(1,0,0,1,1256.9380611186955,-246.03834408436842) translate(74.18518518518518 101.29861111111111)"/><path d="M1742.25-252.96a7.5 7.5 0 0 1 9.37 0l90.63 72.5a4.8 4.8 0 0 1 0 7.5l-90.63 72.5a7.5 7.5 0 0 1-9.37 0l-90.63-72.5a4.8 4.8 0 0 1 0-7.5z" stroke="#6db1ff" stroke-width="2" fill="#edf5ff"/><use xlink:href="#J" transform="matrix(1,0,0,1,1651.9380611186955,-251.70501075103505) translate(40.06672839506173 64.65277777777777)"/><use xlink:href="#K" transform="matrix(1,0,0,1,1651.9380611186955,-251.70501075103505) translate(75.8691975308642 64.65277777777777)"/><use xlink:href="#L" transform="matrix(1,0,0,1,1651.9380611186955,-251.70501075103505) translate(131.42475308641977 64.65277777777777)"/><use xlink:href="#M" transform="matrix(1,0,0,1,1651.9380611186955,-251.70501075103505) translate(33.986481481481476 91.31944444444446)"/><use xlink:href="#N" transform="matrix(1,0,0,1,1651.9380611186955,-251.70501075103505) translate(88.18401234567901 91.31944444444446)"/><path d="M2046.94-252.04a6 6 0 0 1 6-6h190a6 6 0 0 1 6 6v150a6 6 0 0 1-6 6h-190a6 6 0 0 1-6-6z" stroke="#ff80df" stroke-width="2" fill="#fff0fb"/><use xlink:href="#x" transform="matrix(1,0,0,1,2058.9380611186953,-246.03834408436842) translate(26.71604938271605 47.96527777777778)"/><use xlink:href="#O" transform="matrix(1,0,0,1,2058.9380611186953,-246.03834408436842) translate(72.39506172839506 47.96527777777778)"/><use xlink:href="#z" transform="matrix(1,0,0,1,2058.9380611186953,-246.03834408436842) translate(21.808641975308646 74.63194444444446)"/><use xlink:href="#A" transform="matrix(1,0,0,1,2058.9380611186953,-246.03834408436842) translate(90.88271604938272 74.63194444444446)"/><use xlink:href="#P" transform="matrix(1,0,0,1,2058.9380611186953,-246.03834408436842) translate(48.32098765432099 101.29861111111111)"/><path d="M2448.94-252.04a6 6 0 0 1 6-6h190a6 6 0 0 1 6 6v150a6 6 0 0 1-6 6h-190a6 6 0 0 1-6-6z" stroke="#ff80df" stroke-width="2" fill="#fff0fb"/><use xlink:href="#C" transform="matrix(1,0,0,1,2460.9380611186953,-246.03834408436842) translate(37.302469135802475 47.96527777777778)"/><use xlink:href="#D" transform="matrix(1,0,0,1,2460.9380611186953,-246.03834408436842) translate(116.12962962962962 47.96527777777778)"/><use xlink:href="#Q" transform="matrix(1,0,0,1,2460.9380611186953,-246.03834408436842) translate(0.8209876543209873 74.63194444444446)"/><use xlink:href="#F" transform="matrix(1,0,0,1,2460.9380611186953,-246.03834408436842) translate(96.99382716049382 74.63194444444446)"/><use xlink:href="#G" transform="matrix(1,0,0,1,2460.9380611186953,-246.03834408436842) translate(7.641975308641975 101.29861111111111)"/><use xlink:href="#H" transform="matrix(1,0,0,1,2460.9380611186953,-246.03834408436842) translate(48.32098765432099 101.29861111111111)"/><use xlink:href="#R" transform="matrix(1,0,0,1,2460.9380611186953,-246.03834408436842) translate(73.01234567901234 101.29861111111111)"/><path d="M2946.25-252.96a7.5 7.5 0 0 1 9.37 0l90.63 72.5a4.8 4.8 0 0 1 0 7.5l-90.63 72.5a7.5 7.5 0 0 1-9.37 0l-90.63-72.5a4.8 4.8 0 0 1 0-7.5z" stroke="#6db1ff" stroke-width="2" fill="#edf5ff"/><use xlink:href="#J" transform="matrix(1,0,0,1,2855.9380611186953,-251.70501075103505) translate(40.06672839506173 64.65277777777777)"/><use xlink:href="#K" transform="matrix(1,0,0,1,2855.9380611186953,-251.70501075103505) translate(75.8691975308642 64.65277777777777)"/><use xlink:href="#L" transform="matrix(1,0,0,1,2855.9380611186953,-251.70501075103505) translate(131.42475308641977 64.65277777777777)"/><use xlink:href="#M" transform="matrix(1,0,0,1,2855.9380611186953,-251.70501075103505) translate(33.986481481481476 91.31944444444446)"/><use xlink:href="#N" transform="matrix(1,0,0,1,2855.9380611186953,-251.70501075103505) translate(88.18401234567901 91.31944444444446)"/><path d="M-363.06-252.04a6 6 0 0 1 6-6h190a6 6 0 0 1 6 6v150a6 6 0 0 1-6 6h-190a6 6 0 0 1-6-6z" stroke="#ff80df" stroke-width="2" fill="#fff0fb"/><use xlink:href="#x" transform="matrix(1,0,0,1,-351.0619388813045,-246.03834408436842) translate(30.419753086419753 47.96527777777778)"/><use xlink:href="#S" transform="matrix(1,0,0,1,-351.0619388813045,-246.03834408436842) translate(76.09876543209876 47.96527777777778)"/><use xlink:href="#z" transform="matrix(1,0,0,1,-351.0619388813045,-246.03834408436842) translate(18.72222222222223 74.63194444444446)"/><use xlink:href="#S" transform="matrix(1,0,0,1,-351.0619388813045,-246.03834408436842) translate(87.7962962962963 74.63194444444446)"/><use xlink:href="#T" transform="matrix(1,0,0,1,-351.0619388813045,-246.03834408436842) translate(55.75925925925926 101.29861111111111)"/><path d="M38.94-252.04a6 6 0 0 1 6-6h190a6 6 0 0 1 6 6v150a6 6 0 0 1-6 6h-190a6 6 0 0 1-6-6z" stroke="#ff80df" stroke-width="2" fill="#fff0fb"/><use xlink:href="#C" transform="matrix(1,0,0,1,50.93806111869549,-246.03834408436842) translate(37.302469135802475 47.96527777777778)"/><use xlink:href="#D" transform="matrix(1,0,0,1,50.93806111869549,-246.03834408436842) translate(116.12962962962962 47.96527777777778)"/><use xlink:href="#U" transform="matrix(1,0,0,1,50.93806111869549,-246.03834408436842) translate(4.524691358024697 74.63194444444446)"/><use xlink:href="#F" transform="matrix(1,0,0,1,50.93806111869549,-246.03834408436842) translate(93.29012345679013 74.63194444444446)"/><use xlink:href="#G" transform="matrix(1,0,0,1,50.93806111869549,-246.03834408436842) translate(11.34567901234567 101.29861111111111)"/><use xlink:href="#H" transform="matrix(1,0,0,1,50.93806111869549,-246.03834408436842) translate(52.02469135802468 101.29861111111111)"/><use xlink:href="#V" transform="matrix(1,0,0,1,50.93806111869549,-246.03834408436842) translate(76.71604938271604 101.29861111111111)"/><path d="M440.94-252.04a6 6 0 0 1 6-6h190a6 6 0 0 1 6 6v150a6 6 0 0 1-6 6h-190a6 6 0 0 1-6-6z" stroke="#ff80df" stroke-width="2" fill="#fff0fb"/><use xlink:href="#W" transform="matrix(1,0,0,1,452.9380611186955,-246.03834408436842) translate(8.78395061728395 17.77777777777778)"/><use xlink:href="#X" transform="matrix(1,0,0,1,452.9380611186955,-246.03834408436842) translate(81.56172839506172 17.77777777777778)"/><use xlink:href="#Y" transform="matrix(1,0,0,1,452.9380611186955,-246.03834408436842) translate(10.049382716049394 44.44444444444444)"/><use xlink:href="#Q" transform="matrix(1,0,0,1,452.9380611186955,-246.03834408436842) translate(53.259259259259274 44.44444444444444)"/><use xlink:href="#L" transform="matrix(1,0,0,1,452.9380611186955,-246.03834408436842) translate(149.4320987654321 44.44444444444444)"/><use xlink:href="#U" transform="matrix(1,0,0,1,452.9380611186955,-246.03834408436842) translate(13.166666666666671 71.11111111111111)"/><use xlink:href="#Z" transform="matrix(1,0,0,1,452.9380611186955,-246.03834408436842) translate(101.9320987654321 71.11111111111111)"/><use xlink:href="#aa" transform="matrix(1,0,0,1,452.9380611186955,-246.03834408436842) translate(16.25308641975309 97.77777777777777)"/><use xlink:href="#ab" transform="matrix(1,0,0,1,452.9380611186955,-246.03834408436842) translate(84.0925925925926 97.77777777777777)"/><use xlink:href="#ac" transform="matrix(1,0,0,1,452.9380611186955,-246.03834408436842) translate(5.697530864197546 124.44444444444446)"/><use xlink:href="#ad" transform="matrix(1,0,0,1,452.9380611186955,-246.03834408436842) translate(78.47530864197532 124.44444444444446)"/><use xlink:href="#ac" transform="matrix(1,0,0,1,452.9380611186955,-246.03834408436842) translate(3.9382716049382793 151.11111111111111)"/><use xlink:href="#R" transform="matrix(1,0,0,1,452.9380611186955,-246.03834408436842) translate(76.71604938271605 151.11111111111111)"/><path d="M-667.75-252.96a7.5 7.5 0 0 1 9.37 0l90.63 72.5a4.8 4.8 0 0 1 0 7.5l-90.63 72.5a7.5 7.5 0 0 1-9.37 0l-90.63-72.5a4.8 4.8 0 0 1 0-7.5z" stroke="#6db1ff" stroke-width="2" fill="#edf5ff"/><use xlink:href="#J" transform="matrix(1,0,0,1,-758.0619388813045,-251.70501075103505) translate(40.06672839506173 64.65277777777777)"/><use xlink:href="#K" transform="matrix(1,0,0,1,-758.0619388813045,-251.70501075103505) translate(75.8691975308642 64.65277777777777)"/><use xlink:href="#L" transform="matrix(1,0,0,1,-758.0619388813045,-251.70501075103505) translate(131.42475308641977 64.65277777777777)"/><use xlink:href="#M" transform="matrix(1,0,0,1,-758.0619388813045,-251.70501075103505) translate(33.986481481481476 91.31944444444446)"/><use xlink:href="#N" transform="matrix(1,0,0,1,-758.0619388813045,-251.70501075103505) translate(88.18401234567901 91.31944444444446)"/><path d="M-925.06 2049.96c22.1 0 40 17.9 40 40s-17.9 40-40 40h-80c-22.1 0-40-17.9-40-40s17.9-40 40-40z" stroke="#e08fff" stroke-width="2" fill="#f4d9ff"/><use xlink:href="#ae" transform="matrix(1,0,0,1,-1040.0619388813045,2054.9616559156316) translate(55.24691358024691 39.65277777777778)"/><path d="M-965.06-1016.54v2329.22" stroke="#3a414a" fill="none"/><path d="M-964.6-1016.53h-.94v-.5h.95z" stroke="#3a414a" stroke-width=".05" fill="#3a414a"/><path d="M-965.06 1327.45l-4.64-14.27h9.27z" stroke="#3a414a" fill="#3a414a"/><path d="M1754.1 1227.5l1 .07.97.23.94.4.88.52.77.66.66.77.54.87.4.94.23 1 .08.98v168.04l-.08 1-.24.98-.4.94-.52.87-.65.77-.77.66-.87.53-.93.4-.98.23-1 .08H-866.45v-.95h2620.5l.88-.08.84-.2.8-.34.74-.45.66-.56.56-.66.45-.73.33-.8.2-.84.07-.9V1234l-.07-.88-.2-.84-.34-.8-.46-.75-.56-.64-.66-.57-.74-.46-.8-.33-.85-.2-.88-.06H125.92v-.95zm-1770.1.94h-463.16v-.95H-16zM1692.94-918.2l.94.4.86.52.78.66.66.77.53.87.4.94.24 1 .07.98v78.74h-.94v-78.7l-.07-.88-.2-.85-.34-.8-.45-.74-.56-.64-.65-.57-.75-.46-.8-.33-.85-.2-.88-.06H-858.04l-.9.07-.83.2-.8.34-.74.45-.67.56-.56.66-.45.73-.34.8-.2.85-.07.88v2133.96l.08.9.2.83.34.8.45.74.56.67.66.56.73.45.8.33.84.22.9.07h232.1v.94h-232.15l-1-.08-.98-.24-.94-.4-.87-.52-.77-.66-.66-.77-.53-.87-.4-.94-.23-1-.08-.98V-912.06l.08-1 .24-.98.4-.94.52-.87.66-.77.77-.66.87-.53.94-.4.98-.23 1-.08h2549.04l1 .07z" stroke="#3a414a" stroke-width=".05" fill="#3a414a"/><path d="M-866.43 1408.44h-.55l.04-.48-.04-.47h.55z" fill="#3a414a"/><path stroke="#3a414a" stroke-width=".05" fill="#3a414a"/><path d="M1696.94-818.55l-4.64-14.27h9.27z" fill="#3a414a"/><path d="M1696.94-817.02l-5.3-16.27h10.6zm-3.98-15.33l3.98 12.26 3.98-12.25z" stroke="#3a414a" stroke-width=".05" fill="#3a414a"/><use xlink:href="#af" transform="matrix(1,0,0,1,-625.9226551606521,1217.2949892489648) translate(0 14.222222222222223)"/><use xlink:href="#ag" transform="matrix(1,0,0,1,-625.9226551606521,1217.2949892489648) translate(70.96296296296296 14.222222222222223)"/><path d="M2226.77 1228.44H1766.1l-.9.07-.84.2-.8.34-.73.45-.66.56-.57.65-.45.75-.33.8-.2.85-.07.88v168l-.08 1-.24.98-.4.94-.52.87-.65.77-.77.66-.87.53-.93.4-.98.23-1 .08H-866.45v-.95h2620.5l.88-.08.84-.2.8-.34.74-.45.66-.56.56-.66.45-.73.33-.8.2-.84.07-.9v-168l.08-.98.23-1 .4-.93.53-.87.66-.77.77-.66.86-.53.94-.4 1-.23.98-.08h460.72zm919.18-2146.88l1 .24.93.4.86.52.78.66.66.77.53.87.4.94.24 1 .07.98v2134.04l-.07 1-.23.98-.4.94-.52.87-.66.77-.78.66-.86.53-.94.4-1 .23-.98.08h-770.63v-.95h770.6l.87-.08.84-.2.8-.34.74-.45.66-.56.57-.66.46-.73.33-.8.2-.84.06-.9V-912l-.07-.88-.2-.85-.34-.8-.45-.74-.56-.64-.66-.57-.73-.46-.8-.33-.85-.2-.88-.06h-237.96l-.9.07-.83.2-.8.34-.74.45-.67.56-.56.66-.45.73-.34.8-.2.85-.07.88v78.7h-.94v-78.74l.08-1 .24-.98.4-.94.52-.87.66-.77.77-.66.87-.53.94-.4 1-.23.98-.08h238.04z" stroke="#3a414a" stroke-width=".05" fill="#3a414a"/><path d="M-866.43 1408.44h-.55l.04-.48-.04-.47h.55z" fill="#3a414a"/><path stroke="#3a414a" stroke-width=".05" fill="#3a414a"/><path d="M2900.94-818.55l-4.64-14.27h9.27z" fill="#3a414a"/><path d="M2900.94-817.02l-5.3-16.27h10.6zm-3.98-15.33l3.98 12.26 3.98-12.25z" stroke="#3a414a" stroke-width=".05" fill="#3a414a"/><use xlink:href="#af" transform="matrix(1,0,0,1,2226.7716169042155,1217.2949892489648) translate(0 14.222222222222223)"/><use xlink:href="#ah" transform="matrix(1,0,0,1,2226.7716169042155,1217.2949892489648) translate(70.96296296296296 14.222222222222223)"/><path d="M1754.1 1227.5l1 .07.97.23.94.4.88.52.77.66.66.77.54.87.4.94.23 1 .08.98v168.04l-.08 1-.24.98-.4.94-.52.87-.65.77-.77.66-.87.53-.93.4-.98.23-1 .08H-866.45v-.95h2620.5l.88-.08.84-.2.8-.34.74-.45.66-.56.56-.66.45-.73.33-.8.2-.84.07-.9V1234l-.07-.88-.2-.84-.34-.8-.46-.75-.56-.64-.66-.57-.74-.46-.8-.33-.85-.2-.88-.06H125.92v-.95zm-1770.1.94h-463.16v-.95H-16zM477.94-918.2l.94.4.87.52.77.66.66.77.53.87.4.94.23 1 .08.98v78.74h-.94v-78.7l-.07-.88-.2-.85-.34-.8-.45-.74-.56-.64-.65-.57-.75-.46-.8-.33-.85-.2-.88-.06H-858.04l-.9.07-.83.2-.8.34-.74.45-.67.56-.56.66-.45.73-.34.8-.2.85-.07.88v2133.96l.08.9.2.83.34.8.45.74.56.67.66.56.73.45.8.33.84.22.9.07h232.1v.94h-232.15l-1-.08-.98-.24-.94-.4-.87-.52-.77-.66-.66-.77-.53-.87-.4-.94-.23-1-.08-.98V-912.06l.08-1 .24-.98.4-.94.52-.87.66-.77.77-.66.87-.53.94-.4.98-.23 1-.08H475.96l1 .07z" stroke="#3a414a" stroke-width=".05" fill="#3a414a"/><path d="M-866.43 1408.44h-.55l.04-.48-.04-.47h.55z" fill="#3a414a"/><path stroke="#3a414a" stroke-width=".05" fill="#3a414a"/><path d="M481.94-818.55l-4.64-14.27h9.27z" fill="#3a414a"/><path d="M481.94-817.02l-5.3-16.27h10.6zm-3.98-15.33l3.98 12.26 3.98-12.25z" stroke="#3a414a" stroke-width=".05" fill="#3a414a"/><use xlink:href="#af" transform="matrix(1,0,0,1,-16.002902074232367,1217.2949892489648) translate(0 14.222222222222223)"/><use xlink:href="#ai" transform="matrix(1,0,0,1,-16.002902074232367,1217.2949892489648) translate(70.96296296296296 14.222222222222223)"/><path d="M-964.6 1670.58h-.94v-73h.95zm0-94.34h-.94v-88.88h.95z" stroke="#3a414a" stroke-width=".05" fill="#3a414a"/><path d="M-965.06 1486.86l.47-.03v.54h-.94v-.54z" fill="#3a414a"/><path stroke="#3a414a" stroke-width=".05" fill="#3a414a"/><path d="M-965.06 1685.34l-4.64-14.26h9.27z" fill="#3a414a"/><path d="M-965.06 1686.88l-5.3-16.28h10.6zm-3.98-15.33l3.98 12.26 3.98-12.25z" stroke="#3a414a" stroke-width=".05" fill="#3a414a"/><use xlink:href="#aj" transform="matrix(1,0,0,1,-981.3335438195761,1576.2438003800494) translate(0 14.222222222222223)"/><path d="M1663.07-683.35v119.3a6 6 0 0 1-6 6H949.94a6 6 0 0 0-6 6v276.63" stroke="#3a414a" fill="none"/><path d="M1663.55-683.47v.13h-.95v-.9z" stroke="#3a414a" stroke-width=".05" fill="#3a414a"/><path d="M943.94-260.66l-4.64-14.26h9.27z" stroke="#3a414a" fill="#3a414a"/><path d="M1696.94-658.64v194.6a6 6 0 0 1-6 6h-339a6 6 0 0 0-6 6v176.62" stroke="#3a414a" fill="none"/><path d="M1696.94-659.14l.47-.03v.54h-.94v-.54z" stroke="#3a414a" stroke-width=".05" fill="#3a414a"/><path d="M1345.94-260.66l-4.64-14.26h9.27z" stroke="#3a414a" fill="#3a414a"/><path d="M1730.8-683.35v207.62a6 6 0 0 0 6 6h4.14a6 6 0 0 1 6 6V-272" stroke="#3a414a" fill="none"/><path d="M1731.28-683.34h-.95v-.13l.95-.76z" stroke="#3a414a" stroke-width=".05" fill="#3a414a"/><path d="M1746.94-257.22l-4.64-14.27h9.27z" stroke="#3a414a" fill="#3a414a"/><path d="M944.4-2.06l.08.9.2.83.34.8.45.74.56.67.66.56.73.45.8.33.84.22.9.07h371.5l1 .06 1 .24.93.4.87.52.77.66.66.78.53.86.4.94.23 1 .08.98v476.64h-.95V9.98l-.08-.88-.2-.84-.34-.8-.45-.75-.56-.64-.66-.57-.73-.46-.8-.33-.85-.2-.88-.06H949.92l-1-.08-.98-.24-.94-.4-.87-.52-.77-.66-.66-.77-.53-.87-.4-.94-.23-.98-.08-1v-92.52h.95z" stroke="#3a414a" stroke-width=".05" fill="#3a414a"/><path d="M944.4-94.53h-.94v-.5h.95z" fill="#3a414a"/><path stroke="#3a414a" stroke-width=".05" fill="#3a414a"/><path d="M1327.46 501.34l-4.63-14.26h9.27z" fill="#3a414a"/><path d="M1327.46 502.88l-5.3-16.28h10.6zm-3.98-15.33l3.98 12.26 3.98-12.25zM1346.4 203.67l.12.08v282.83h-.94V204.22l-.12-.08V-94.54h.95z" stroke="#3a414a" stroke-width=".05" fill="#3a414a"/><path d="M1346.4-94.53h-.94v-.5h.95z" fill="#3a414a"/><path stroke="#3a414a" stroke-width=".05" fill="#3a414a"/><path d="M1346.05 501.34l-4.63-14.26h9.27z" fill="#3a414a"/><path d="M1346.05 502.88l-5.3-16.28h10.6zm-3.98-15.33l3.98 12.26 3.98-12.25z" stroke="#3a414a" stroke-width=".05" fill="#3a414a"/><path d="M1781 948.58h-.95v-513.3h.95zm-8.2-534.64h-.94v-529.18h.95z" stroke="#008a0e" stroke-width=".05" fill="#008a0e"/><path d="M1772.8-115.23h-.94v-.13l.95-.77z" fill="#008a0e"/><path stroke="#008a0e" stroke-width=".05" fill="#008a0e"/><path d="M1780.52 963.34l-4.63-14.26h9.26z" fill="#008a0e"/><path d="M1780.52 964.88l-5.3-16.28h10.6zm-3.98-15.33l3.98 12.26 3.98-12.25z" stroke="#008a0e" stroke-width=".05" fill="#008a0e"/><use xlink:href="#ak" transform="matrix(1,0,0,1,1761.1208645463562,413.9418969841724) translate(0 14.222222222222223)"/><path d="M1365.12 486.58h-.95v-4.97h.95zm0-9.93h-.95v-9.93h.95zm0-14.9h-.95v-9.93h.95zm0-14.9h-.95v-9.92h.95zm0-14.88h-.95v-9.93h.95zm0-14.9h-.95v-9.93h.95zm0-14.9h-.95v-9.92h.95zm0-14.9h-.95v-9.92h.95zm0-14.88h-.95v-9.94h.95zm0-14.9h-.95v-9.94h.95zm0-14.9h-.95v-9.93h.95zm0-14.9h-.95v-9.92h.95zm0-14.9h-.95v-9.92h.95zm0-14.88h-.95V288h.95zm0-14.9h-.95v-9.93h.95zm0-14.9h-.95v-9.92h.95zm0-14.9h-.95v-9.9h.95zm0-14.88h-.95v-9.93h.95zm0-14.9h-.95v-9.92h.95zm0-14.9h-.95v-9.92h.95zm0-14.88h-.95v-9.93h.95zm0-14.9h-.95v-9.93h.95zm0-14.9h-.95v-9.92h.95zm0-14.9h-.95v-9.92h.95zm0-14.88h-.95v-9.93h.95zm0-14.9h-.95v-9.92h.95zm0-14.9h-.95v-9.92h.95zm0-14.88h-.95v-9.93h.95zm0-14.9h-.95v-9.93h.95zm0-14.9h-.95V49.7h.95zm0-14.88h-.95v-9.94h.95zm0-14.9h-.95v-4h.95zm10.52-25.38h-4.98l-.73.05h-2.72l.5-.3.94-.4 1-.23.98-.08h5.02zM1722-2.02l-.07 1-.23.98-.4.94-.52.87-.66.77-.77.66-.87.53-.94.4-1 .23-.98.08h-5.02V3.5h4.98l.88-.08.84-.2.8-.34.75-.45.64-.56.57-.66.46-.73.33-.8.2-.84.06-.9v-4.7h.95zm-16.46 6.46h-10V3.5h10zm-15 0h-10V3.5h10zm-15 0h-10V3.5h10zm-15 0h-9.98V3.5h10zm-14.98 0h-10V3.5h10zm-15 0h-10V3.5h10zm-15 0h-10V3.5h10zm-15 0h-9.98V3.5h10zm-14.98 0h-10V3.5h10zm-15 0h-10V3.5h10zm-15 0h-10V3.5h10zm-15 0h-10V3.5h10zm-14.98 0h-10V3.5h10zm-15 0h-10V3.5h10zm-15 0h-10V3.5h10zm-15 0h-10V3.5h10zm-15 0h-9.98V3.5h10zm-14.98 0h-10V3.5h10zm-15 0h-10V3.5h10zm-15 0h-10V3.5h10zm-15 0h-10V3.5h10zm-14.98 0h-10V3.5h10zM1722-11.46h-.94v-9.45h.95zm0-14.16h-.94v-9.44h.95zm0-14.15h-.94v-9.44h.95zm0-14.15h-.94v-9.44h.95zm0-14.16h-.94v-9.43h.95zm0-14.15h-.94v-9.43h.95zm0-14.15h-.94v-9.43h.95zm0-14.15h-.94v-4.72h.95z" stroke="#e81313" stroke-width=".05" fill="#e81313"/><path d="M1722-115.36v.13h-.94v-.9z" fill="#e81313"/><path stroke="#e81313" stroke-width=".05" fill="#e81313"/><path d="M1364.64 501.34l-4.63-14.26h9.28z" fill="#e81313"/><path d="M1364.64 502.88l-5.3-16.28h10.6zm-3.98-15.33l3.98 12.26 3.98-12.25z" stroke="#e81313" stroke-width=".05" fill="#e81313"/><use xlink:href="#al" transform="matrix(1,0,0,1,1352.8392836742562,4.493810060318271) translate(0 14.222222222222223)"/><path d="M2867.07-683.35v119.3a6 6 0 0 1-6 6h-707.13a6 6 0 0 0-6 6v276.63" stroke="#3a414a" fill="none"/><path d="M2867.55-683.47v.13h-.95v-.9z" stroke="#3a414a" stroke-width=".05" fill="#3a414a"/><path d="M2147.94-260.66l-4.64-14.26h9.27z" stroke="#3a414a" fill="#3a414a"/><path d="M2900.94-658.64v194.6a6 6 0 0 1-6 6h-339a6 6 0 0 0-6 6v176.62" stroke="#3a414a" fill="none"/><path d="M2900.94-659.14l.47-.03v.54h-.94v-.54z" stroke="#3a414a" stroke-width=".05" fill="#3a414a"/><path d="M2549.94-260.66l-4.64-14.26h9.27z" stroke="#3a414a" fill="#3a414a"/><path d="M2934.8-683.35v207.62a6 6 0 0 0 6 6h4.14a6 6 0 0 1 6 6V-272" stroke="#3a414a" fill="none"/><path d="M2935.28-683.34h-.95v-.13l.95-.76z" stroke="#3a414a" stroke-width=".05" fill="#3a414a"/><path d="M2950.94-257.22l-4.64-14.27h9.27z" stroke="#3a414a" fill="#3a414a"/><path d="M2148.4 97.98l-.07 1-.23.98-.4.94-.52.87-.66.77-.78.66-.86.53-.94.4-1 .23-.98.08h-752.7l-.9.07-.83.2-.8.34-.75.45-.65.56-.57.66-.45.73-.32.8-.2.85-.07.88v376.6h-.94V109.94l.08-1 .23-.98.4-.94.52-.86.65-.78.77-.66.87-.53.93-.4 1-.23.98-.08h752.72l.88-.08.84-.2.8-.34.74-.45.66-.56.57-.66.46-.73.33-.8.2-.84.06-.9V-94.53h.95z" stroke="#3a414a" stroke-width=".05" fill="#3a414a"/><path d="M2148.4-94.53h-.94v-.5h.95z" fill="#3a414a"/><path stroke="#3a414a" stroke-width=".05" fill="#3a414a"/><path d="M1383.23 501.34l-4.63-14.26h9.27z" fill="#3a414a"/><path d="M1383.23 502.88l-5.3-16.28h10.6zm-3.98-15.33l3.98 12.26 3.98-12.25zM2550.4 197.98l-.07 1-.23.98-.4.94-.52.87-.66.77-.78.66-.86.53-.94.4-1 .23-.98.08H1407.84l-.88.07-.84.2-.8.34-.74.45-.66.56-.57.66-.45.73-.33.8-.2.85-.07.88v276.6h-.95V209.94l.08-1 .23-.98.4-.94.52-.87.66-.77.78-.66.86-.53.94-.4 1-.24.98-.07h1136.12l.88-.08.84-.2.8-.34.74-.45.66-.56.57-.66.46-.73.33-.8.2-.84.06-.9V-94.53h.95z" stroke="#3a414a" stroke-width=".05" fill="#3a414a"/><path d="M2550.4-94.53h-.94v-.5h.95z" fill="#3a414a"/><path stroke="#3a414a" stroke-width=".05" fill="#3a414a"/><path d="M1401.82 501.34l-4.63-14.26h9.26z" fill="#3a414a"/><path d="M1401.82 502.88l-5.3-16.28h10.6zm-3.98-15.33l3.98 12.26 3.98-12.25z" stroke="#3a414a" stroke-width=".05" fill="#3a414a"/><path d="M2724.92 766.44h-897.48l-.88.07-.85.2-.8.34-.73.45-.66.56-.55.66-.45.73-.33.8-.2.85-.08.88v176.6h-.96V771.94l.08-1 .24-.98.4-.94.52-.87.66-.77.77-.66.88-.53.94-.4 1-.23.98-.08h897.52zm251.9-6.46l-.1 1-.22.98-.4.94-.52.87-.66.77-.78.66-.86.53-.94.4-1 .23-.98.08h-214.82v-.95h214.78l.88-.08.85-.2.8-.34.74-.45.64-.56.57-.66.46-.73.33-.8.2-.84.06-.9v-875.17h.95z" stroke="#008a0e" stroke-width=".05" fill="#008a0e"/><path d="M2976.8-115.23h-.94v-.13l.95-.77z" fill="#008a0e"/><path stroke="#008a0e" stroke-width=".05" fill="#008a0e"/><path d="M1821.42 963.34l-4.64-14.26h9.28z" fill="#008a0e"/><path d="M1821.42 964.88l-5.3-16.28h10.6zm-3.98-15.33l3.98 12.26 3.98-12.25z" stroke="#008a0e" stroke-width=".05" fill="#008a0e"/><g><use xlink:href="#ak" transform="matrix(1,0,0,1,2724.923348557151,755.294989248965) translate(0 14.222222222222223)"/></g><path d="M1420.9 486.58h-.96v-4.9h.95zm0-9.8h-.96v-9.83h.95zm0-14.73h-.96v-9.8h.95zm0-14.72h-.96v-9.8h.95zm0-14.72h-.96v-9.8h.95zm0-14.7h-.96v-9.82h.95zm0-14.72h-.96v-9.82h.95zm0-14.72h-.96v-9.8h.95zm0-14.72h-.96v-9.8h.95zm0-14.72h-.96v-9.8h.95zm0-14.72h-.96v-9.8h.95zm0-14.7h-.96v-9.83h.95zm10.5-25.16h-4.97l-.88.07-.84.2-.8.34-.73.45-.66.56-.56.65-.45.75-.34.8-.2.85-.07.88v4.9h-.96v-4.94l.08-1 .23-.98.4-.94.52-.87.66-.77.78-.66.87-.53.94-.4 1-.24 1-.07h5zm1494.6-6.46l-.07 1-.23.98-.4.94-.52.87-.66.77-.78.66-.86.53-.94.4-1 .23-.98.08h-5v-.95h4.96l.88-.08.84-.2.8-.34.74-.45.66-.56.57-.66.46-.73.33-.8.2-.84.06-.9v-4.9h.95zm-16.42 6.46h-9.95v-.95h9.95zm-14.93 0h-9.95v-.95h9.95zm-14.93 0h-9.95v-.95h9.95zm-14.93 0h-9.96v-.95h9.95zm-14.94 0h-9.95v-.95h9.96zm-14.93 0h-9.96v-.95h9.96zm-14.93 0h-9.96v-.95h9.96zm-14.93 0h-9.96v-.95h9.97zm-14.94 0h-9.95v-.95h9.95zm-14.93 0h-9.95v-.95h9.95zm-14.93 0h-9.95v-.95h9.95zm-14.93 0h-9.95v-.95h9.94zm-14.93 0h-9.95v-.95h9.96zm-14.92 0h-9.96v-.95h9.96zm-14.93 0h-9.96v-.95h9.95zm-14.94 0h-9.94v-.95h9.95zm-14.92 0h-9.95v-.95h9.95zm-14.93 0h-9.95v-.95h9.95zm-14.93 0h-9.95v-.95h9.95zm-14.93 0h-9.96v-.95h9.95zm-14.94 0H2601v-.95h9.96zm-14.93 0h-9.96v-.95h9.96zm-14.93 0h-9.96v-.95h9.96zm-14.93 0h-9.96v-.95h9.97zm-14.94 0h-9.95v-.95h9.95zm-14.93 0h-9.95v-.95h9.95zm-14.93 0h-9.95v-.95h9.95zm-14.93 0h-9.95v-.95h9.94zm-14.93 0h-9.95v-.95h9.96zm-14.92 0h-9.96v-.95h9.96zm-14.93 0h-9.96v-.95h9.95zm-14.93 0h-9.96v-.95h9.95zm-14.94 0h-9.95v-.95h9.95zm-14.93 0h-9.95v-.95h9.95zm-14.93 0h-9.95v-.95h9.95zm-14.93 0h-9.96v-.95h9.95zm-14.94 0h-9.95v-.95h9.96zm-14.93 0h-9.96v-.95h9.96zm-14.93 0h-9.96v-.95h9.96zm-14.93 0h-9.96v-.95h9.96zm-14.94 0h-9.95v-.95h9.95zm-44.8 0h-9.94v-.95h9.94zm-14.92 0h-9.94v-.95h9.95zm-14.92 0h-9.96v-.95h9.96zm-14.93 0h-9.96v-.95h9.95zm-14.93 0h-9.96v-.95h9.95zm-14.94 0h-9.95v-.95h9.95zm-14.93 0H2168v-.95h9.95zm-14.93 0h-9.95v-.95h9.95zm-14.93 0h-9.96v-.95h9.95zm-14.94 0h-9.95v-.95h9.96zm-14.93 0h-9.96v-.95h9.96zm-14.93 0h-9.96v-.95h9.96zm-14.94 0h-9.95v-.95h9.96zm-14.93 0h-9.95v-.95h9.95zm-14.93 0h-9.95v-.95h9.95zm-14.93 0h-9.95v-.95h9.95zm-14.93 0h-9.95v-.95h9.94zm-14.93 0h-9.94v-.95h9.95zm-14.92 0h-9.96v-.95h9.96zm-14.93 0h-9.96v-.95h9.95zm-14.93 0h-9.96v-.95h9.95zm-14.94 0h-9.95v-.95h9.95zm-14.93 0h-9.95v-.95h9.95zm-14.93 0h-9.95v-.95h9.95zm-14.93 0h-9.96v-.95h9.95zm-14.94 0h-9.96v-.95h9.96zm-14.93 0h-9.96v-.95h9.96zm-14.93 0h-9.96v-.95h9.96zm-14.94 0h-9.95v-.95h9.96zm-14.93 0h-9.95v-.95h9.95zm-14.93 0h-9.95v-.95h9.95zm-14.93 0h-9.95v-.95h9.95zm-14.93 0h-9.95v-.95h9.94zm-14.93 0h-9.95v-.95h9.96zm-14.92 0h-9.96v-.95h9.96zm-14.93 0H1735v-.95h9.95zm-14.93 0h-9.96v-.95h9.96zm-14.94 0h-9.95v-.95h9.95zm-14.93 0h-9.95v-.95h9.95zm-14.93 0h-9.95v-.95h9.95zm-14.93 0h-9.96v-.95h9.95zm-14.94 0h-9.96v-.95h9.96zm-14.93 0h-9.96v-.95h9.96zm-14.93 0h-9.96v-.95h9.96zm-14.93 0h-9.96v-.95h9.97zm-14.94 0h-9.95v-.95h9.95zm-14.93 0h-9.95v-.95h9.95zm-14.93 0h-9.95v-.95h9.95zm-14.93 0h-9.95v-.95h9.94zm-14.93 0h-9.95v-.95h9.96zm-14.92 0h-9.96v-.95h9.96zm-14.93 0h-9.96v-.95h9.95zm-14.93 0h-9.96v-.95h9.95zm-14.94 0h-9.95v-.95h9.95zm-14.93 0h-9.95v-.95h9.95zm-14.93 0h-9.95v-.95h9.95zm851.08 0h-2.27v-.95h2.27zm628.6-16.32h-.94v-9.83h.95zm0-14.75h-.94v-9.84h.95zm0-14.76h-.94v-9.83h.95zm0-14.75h-.94V234h.95zm0-14.76h-.94v-9.84h.95zm0-14.76h-.94v-9.84h.95zm0-14.76h-.94v-9.84h.95zm0-14.76h-.94v-9.84h.95zm0-14.76h-.94v-9.83h.95zm0-14.75h-.94v-9.83h.95zm0-14.75h-.94v-9.84h.95zm0-14.76h-.94v-9.85h.95zm0-14.77h-.94v-9.83h.95zm0-14.75h-.94v-9.84h.95zm0-14.76h-.94v-9.84h.95zm0-14.76h-.94v-9.84h.95zm0-14.75h-.94v-9.83h.95zm0-14.75h-.94V27.4h.95zm0-14.76h-.94v-9.85h.95zm0-14.77h-.94V-2.1h.95zm0-14.75h-.94v-9.84h.95zm0-14.76h-.94v-9.84h.95zm0-14.76h-.94v-9.84h.95zm0-14.76h-.94v-9.83h.95zm0-14.75h-.94v-9.84h.95zm0-14.76h-.94v-9.85h.95zm0-14.77h-.94v-9.84h.95zm0-14.76h-.94v-4.92h.95z" stroke="#e81313" stroke-width=".05" fill="#e81313"/><path d="M2926-115.36v.13h-.94v-.9z" fill="#e81313"/><path stroke="#e81313" stroke-width=".05" fill="#e81313"/><path d="M1420.4 501.34l-4.62-14.26h9.27z" fill="#e81313"/><path d="M1420.4 502.88l-5.28-16.28h10.58zm-3.97-15.33l3.98 12.26 4-12.25z" stroke="#e81313" stroke-width=".05" fill="#e81313"/><g><use xlink:href="#al" transform="matrix(1,0,0,1,2271.5260023857663,293.2949892489649) translate(0 14.222222222222223)"/></g><path d="M465-669.8v205.76a6 6 0 0 1-6 6h-715.06a6 6 0 0 0-6 6v176.62" stroke="#3a414a" fill="none"/><path d="M465.48-669.92v.13h-.95v-.88z" stroke="#3a414a" stroke-width=".05" fill="#3a414a"/><path d="M-262.06-260.66l-4.64-14.26h9.27z" stroke="#3a414a" fill="#3a414a"/><path d="M498.87-669.8v305.76a6 6 0 0 1-6 6H145.94a6 6 0 0 0-6 6v76.62" stroke="#3a414a" fill="none"/><path d="M499.35-669.8h-.95v-.13l.95-.75z" stroke="#3a414a" stroke-width=".05" fill="#3a414a"/><path d="M139.94-260.66l-4.64-14.26h9.27z" stroke="#3a414a" fill="#3a414a"/><path d="M520.04-686.74v207.6a6 6 0 0 0 6 6h9.9a6 6 0 0 1 6 6v191.72" stroke="#3a414a" fill="none"/><path d="M520.5-686.73h-.94v-.13l.95-.76z" stroke="#3a414a" stroke-width=".05" fill="#3a414a"/><path d="M541.94-260.66l-4.64-14.26h9.27z" stroke="#3a414a" fill="#3a414a"/><path d="M443.84-686.74v122.7a6 6 0 0 1-6 6h-1094.9a6 6 0 0 0-6 6V-272" stroke="#3a414a" fill="none"/><path d="M444.3-686.86v.13h-.94v-.9z" stroke="#3a414a" stroke-width=".05" fill="#3a414a"/><path d="M-663.06-257.22l-4.64-14.27h9.27z" stroke="#3a414a" fill="#3a414a"/><path d="M-261.6 297.94l.08.9.2.83.34.8.45.74.56.67.66.56.73.45.8.33.84.22.9.07H1265.7l1 .06 1 .24.93.4.87.52.77.66.66.77.53.87.4.94.23 1 .07.98v176.64h-.96v-176.6l-.05-.88-.2-.85-.34-.8-.44-.74-.56-.64-.66-.57-.74-.46-.8-.33-.85-.2-.88-.06H-256.08l-1-.08-.98-.24-.94-.4-.87-.52-.77-.66-.66-.77-.53-.87-.4-.94-.23-.98-.08-1V-94.54h.95z" stroke="#3a414a" stroke-width=".05" fill="#3a414a"/><path d="M-261.6-94.53h-.94v-.5h.95z" fill="#3a414a"/><path stroke="#3a414a" stroke-width=".05" fill="#3a414a"/><path d="M1271.7 501.34l-4.64-14.26h9.27z" fill="#3a414a"/><path d="M1271.7 502.88l-5.3-16.28h10.58zm-4-15.33l4 12.26 3.97-12.25z" stroke="#3a414a" stroke-width=".05" fill="#3a414a"/><path d="M139.94-94.54v292.5a6 6 0 0 0 6 6h1138.34a6 6 0 0 1 6 6v276.62" stroke="#3a414a" fill="none"/><path d="M140.4-94.53h-.94v-.5h.95z" stroke="#3a414a" stroke-width=".05" fill="#3a414a"/><path d="M1290.28 501.34l-4.63-14.26h9.27z" stroke="#3a414a" fill="#3a414a"/><path d="M541.94-94.54v192.5a6 6 0 0 0 6 6h754.93a6 6 0 0 1 6 6v376.62" stroke="#3a414a" fill="none"/><path d="M542.4-94.53h-.94v-.5h.95z" stroke="#3a414a" stroke-width=".05" fill="#3a414a"/><path d="M1308.87 501.34l-4.63-14.26h9.27z" stroke="#3a414a" fill="#3a414a"/><path d="M1692.74 865.5l1 .07.98.23.94.4.87.52.77.66.66.77.53.87.38.94.24 1 .08.98v76.64h-.95v-76.6l-.07-.88-.2-.85-.34-.8-.45-.74-.57-.64-.66-.57-.74-.46-.8-.33-.84-.2-.9-.06H79.1v-.95zm-2380.66-4.67l.2.84.34.8.45.74.56.67.66.56.73.45.8.34.84.2.9.07h730.9v.94h-730.95l-1-.08-.98-.24-.94-.4-.87-.52-.77-.66-.66-.77-.53-.87-.4-.94-.23-1-.08-.98v-975.23h.95v975.2z" stroke="#008a0e" stroke-width=".05" fill="#008a0e"/><path d="M-688-115.36v.13h-.94v-.9z" fill="#008a0e"/><path stroke="#008a0e" stroke-width=".05" fill="#008a0e"/><path d="M1698.72 963.34l-4.63-14.26h9.26z" fill="#008a0e"/><path d="M1698.72 964.88l-5.3-16.28h10.6zm-3.98-15.33l3.98 12.26 3.98-12.25z" stroke="#008a0e" stroke-width=".05" fill="#008a0e"/><g><use xlink:href="#ak" transform="matrix(1,0,0,1,48.46887000304231,855.294989248965) translate(0 14.222222222222223)"/></g><path d="M1253.58 486.58h-.95v-5.1h.94zm0-10.22h-.95v-10.2h.94zm0-15.32h-.95v-10.22h.94zm0-15.32h-.95V435.5h.94zm0-15.33h-.95v-10.22h.94zm-5.47-26.83l1 .23.94.4.87.52.78.66.66.77.53.87.4.94.23 1 .08.98v5.13h-.95v-5.1l-.08-.87-.2-.85-.33-.8-.45-.74-.56-.64-.65-.57-.74-.46-.8-.33-.84-.2-.88-.06h-5v-.95h5.04zm-1885.3-5.63l.08.9.2.83.34.8.45.74.56.67.66.56.73.45.8.33.84.22.9.07h4.98v.94h-5.03l-1-.08-.98-.24-.94-.4-.87-.52-.77-.66-.66-.77-.53-.87-.4-.94-.23-.98-.08-1v-5.05h.95zm25.58 6.5h-10.02v-.95h10.02zm15.03 0h-10v-.95h10zm15.04 0h-10.02v-.95h10.02zm15.03 0h-10.02v-.95h10.02zm15.03 0h-10.02v-.95h10.02zm15.03 0h-10.02v-.95h10.03zm15.03 0h-10.02v-.95h10.02zm15.03 0h-10.03v-.95h10.02zm15.02 0h-10.02v-.95h10.02zm15.03 0h-10.02v-.95h10.02zm15.03 0h-10.02v-.95h10.02zm15.03 0h-10v-.95h10zm15.04 0h-10.02v-.95h10.02zm15.03 0h-10.02v-.95h10.02zm15.03 0h-10.02v-.95h10.02zm15.03 0h-10.02v-.95h10.03zm15.03 0h-10.02v-.95h10.02zm15.03 0h-10.03v-.95h10.02zm15.02 0h-10.02v-.95h10.02zm15.03 0h-10.02v-.95h10.02zm15.03 0h-10.02v-.95h10.02zm15.03 0h-10v-.95h10zm15.04 0h-10.02v-.95h10.02zm15.03 0h-10.02v-.95h10.02zm15.03 0h-10.02v-.95h10.02zm15.03 0h-10.02v-.95h10.03zm15.03 0h-10.02v-.95h10.02zm15.03 0h-10.03v-.95h10.02zm15.02 0h-10.02v-.95h10.02zm15.03 0h-10.02v-.95h10.02zm15.03 0h-10.02v-.95h10.02zm15.03 0h-10v-.95h10zm15.04 0h-10.02v-.95h10.02zm15.03 0h-10.02v-.95h10.02zm15.03 0h-10.02v-.95h10.02zm15.03 0H-95.6v-.95h10.03zm15.03 0h-10.02v-.95h10.02zm15.03 0h-10.03v-.95h10.02zm15.02 0H-50.5v-.95h10.02zm15.03 0h-10.02v-.95h10.02zm15.03 0h-10.02v-.95h10.02zm15.03 0h-10v-.95h10zm15.04 0H9.62v-.95h10.02zm15.03 0H24.65v-.95h10.02zm15.03 0H39.68v-.95H49.7zm15.03 0H54.7v-.95h10.03zm15.03 0H69.74v-.95h10.02zm5.8 0h-.8v-.95h.8zm39.3 0h-10.03v-.95h10.02zm15.02 0h-10.02v-.95h10.02zm15.03 0h-10v-.95h10zm15.04 0h-10.02v-.95h10.02zm15.03 0h-10.02v-.95h10.02zm15.03 0h-10.02v-.95H200zm15.03 0H205v-.95h10.03zm15.03 0h-10.02v-.95h10.02zm15.03 0h-10.03v-.95h10.02zm15.02 0H250.1v-.95h10.02zm15.03 0h-10.02v-.95h10.02zm15.03 0h-10.02v-.95h10.02zm15.03 0h-10v-.95h10zm15.04 0h-10.02v-.95h10.02zm15.03 0h-10.02v-.95h10.02zm15.03 0h-10.02v-.95h10.02zm15.03 0H355.3v-.95h10.03zm15.03 0h-10.02v-.95h10.02zm15.03 0h-10.03v-.95h10.02zm15.03 0H400.4v-.95h10.03zm15.02 0h-10v-.95h10zm15.04 0h-10.04v-.95h10.03zm15 0h-10v-.95h10zm15.05 0h-10.03v-.95h10.03zm15.02 0h-10v-.95h10zm15.04 0H490.6v-.95h10.03zm15.03 0h-10v-.95h10zm15.03 0h-10v-.95h10zm15.04 0h-10.03v-.95h10.03zm15.03 0H550.7v-.95h10.03zm15.03 0h-10.02v-.95h10.02zm15.03 0h-10.03v-.95h10.02zm15.02 0H595.8v-.95h10.02zm15.03 0h-10.02v-.95h10.02zm15.03 0h-10.02v-.95h10.02zm15.03 0h-10v-.95h10zm15.04 0h-10.02v-.95h10.02zm15.03 0h-10.02v-.95h10.02zm15.03 0h-10.02v-.95H696zm15.03 0H701v-.95h10.03zm15.03 0h-10.02v-.95h10.02zm15.03 0h-10.03v-.95h10.02zm15.02 0H746.1v-.95h10.02zm15.03 0h-10.02v-.95h10.02zm15.03 0h-10.02v-.95h10.02zm15.03 0h-10v-.95h10zm15.04 0h-10.02v-.95h10.02zm15.03 0h-10.02v-.95h10.02zm15.03 0h-10.02v-.95h10.02zm15.03 0H851.3v-.95h10.03zm15.03 0h-10.02v-.95h10.02zm15.03 0h-10.03v-.95h10.02zm15.02 0H896.4v-.95h10.02zm15.03 0h-10.02v-.95h10.02zm15.03 0h-10.02v-.95h10.02zm15.03 0h-10v-.95h10zm15.04 0h-10.02v-.95h10.02zm15.03 0h-10.02v-.95h10.02zm15.03 0h-10.02v-.95h10.02zm15.03 0h-10.02v-.95h10.03zm15.03 0h-10.02v-.95h10.02zm15.03 0h-10.03v-.95h10.02zm15.02 0h-10.02v-.95h10.02zm15.03 0h-10.02v-.95h10.02zm15.03 0h-10.02v-.95h10.02zm15.03 0h-10v-.95h10zm15.04 0h-10.02v-.95h10.02zm15.03 0h-10.02v-.95h10.02zm15.03 0h-10.02v-.95h10.02zm15.03 0h-10.02v-.95h10.03zm15.03 0h-10.02v-.95h10.02zm15.03 0h-10.03v-.95H1192zm15.02 0H1197v-.95h10.02zm15.03 0h-10.02v-.95h10.02zm15.03 0h-10.02v-.95h10.02zm-1127.26 0h-.65v-.95h.65zm-747-16.54h-.96v-10.06h.95zm0-15.1h-.96v-10.06h.95zm0-15.1h-.96v-10.05h.95zm0-15.08h-.96v-10.07h.95zm0-15.1h-.96v-10.06h.95zm0-15.1h-.96v-10.06h.95zm0-15.1h-.96v-10.05h.95zm0-15.08h-.96v-10.06h.95zm0-15.1h-.96v-10.06h.95zm0-15.1h-.96V242h.95zm0-15.08h-.96V226.9h.95zm0-15.1h-.96V211.8h.95zm0-15.1h-.96V196.7h.95zm0-15.1h-.96v-10.05h.95zm0-15.08h-.96v-10.06h.95zm0-15.1h-.96v-10.06h.95zm0-15.1h-.96v-10.05h.95zm0-15.08h-.96v-10.07h.95zm0-15.1h-.96v-10.06h.95zm0-15.1h-.96V91.05h.95zm0-15.1h-.96V75.96h.95zm0-15.08h-.96V60.86h.95zm0-15.1h-.96V45.76h.95zm0-15.1h-.96V30.68h.95zm0-15.08h-.96V15.57h.95zm0-15.1h-.96V.48h.95zm0-15.1h-.96V-14.6h.95zm0-15.1h-.96V-29.7h.95zm0-15.08h-.96V-44.8h.95zm0-15.1h-.96V-59.9h.95zm0-15.1h-.96v-10.05h.95zm0-15.1l-.96.02V-90.1h.95zm0-15.08h-.96v-10.06h.95zm0-15.1h-.96v-5.03h.95z" stroke="#e81313" stroke-width=".05" fill="#e81313"/><path d="M-637.2-115.23h-.94v-.13l.95-.77z" fill="#e81313"/><path stroke="#e81313" stroke-width=".05" fill="#e81313"/><path d="M1253.1 501.34l-4.63-14.26h9.26z" fill="#e81313"/><path d="M1253.1 502.88l-5.3-16.28h10.6zm-3.98-15.33l3.98 12.26 3.98-12.25z" stroke="#e81313" stroke-width=".05" fill="#e81313"/><g><use xlink:href="#al" transform="matrix(1,0,0,1,85.56347543065279,393.29498924896495) translate(0 14.222222222222223)"/></g><path d="M1336.76 667.46v92.5a6 6 0 0 0 6 6h390.86a6 6 0 0 1 6 6v176.62" stroke="#3a414a" fill="none"/><path d="M1337.23 667.47h-.95v-.5h.95z" stroke="#3a414a" stroke-width=".05" fill="#3a414a"/><path d="M1739.62 963.34l-4.63-14.26h9.26z" stroke="#3a414a" fill="#3a414a"/><path d="M1760.55 1401.98l-.08 1-.24.98-.4.94-.52.87-.65.77-.77.66-.87.53-.93.4-.98.23-1 .08H-850.57v-.95h2604.6l.9-.08.84-.2.8-.34.74-.45.66-.56.56-.66.45-.73.33-.8.2-.84.07-.9v-272.47h.95z" stroke="#3a414a" stroke-width=".05" fill="#3a414a"/><path d="M1760.55 1129.47h-.95v-.5h.95z" fill="#3a414a"/><path stroke="#3a414a" stroke-width=".05" fill="#3a414a"/><path d="M-851.06 1412.6l-14.26-4.64 14.26-4.63z" fill="#3a414a"/><path d="M-850.58 1413.25l-16.28-5.3 16.28-5.28zm-13.2-5.3l12.25 4v-7.97z" stroke="#3a414a" stroke-width=".05" fill="#3a414a"/><path d="M-965.06 1851.46v181.12" stroke="#3a414a" fill="none"/><path d="M-964.6 1851.47h-.94v-.5h.95z" stroke="#3a414a" stroke-width=".05" fill="#3a414a"/><path d="M-965.06 2047.34l-4.64-14.26h9.27z" stroke="#3a414a" fill="#3a414a"/><defs><path d="M185-189c-5-48-123-54-124 2 14 75 158 14 163 119 3 78-121 87-175 55-17-10-28-26-33-46l33-7c5 56 141 63 141-1 0-78-155-14-162-118-5-82 145-84 179-34 5 7 8 16 11 25" id="am"/><path d="M59-47c-2 24 18 29 38 22v24C64 9 27 4 27-40v-127H5v-23h24l9-43h21v43h35v23H59v120" id="an"/><path d="M141-36C126-15 110 5 73 4 37 3 15-17 15-53c-1-64 63-63 125-63 3-35-9-54-41-54-24 1-41 7-42 31l-33-3c5-37 33-52 76-52 45 0 72 20 72 64v82c-1 20 7 32 28 27v20c-31 9-61-2-59-35zM48-53c0 20 12 33 32 33 41-3 63-29 60-74-43 2-92-5-92 41" id="ao"/><path d="M114-163C36-179 61-72 57 0H25l-1-190h30c1 12-1 29 2 39 6-27 23-49 58-41v29" id="ap"/><g id="a"><use transform="matrix(0.06172839506172839,0,0,0.06172839506172839,0,0)" xlink:href="#am"/><use transform="matrix(0.06172839506172839,0,0,0.06172839506172839,14.814814814814813,0)" xlink:href="#an"/><use transform="matrix(0.06172839506172839,0,0,0.06172839506172839,20.98765432098765,0)" xlink:href="#ao"/><use transform="matrix(0.06172839506172839,0,0,0.06172839506172839,33.33333333333333,0)" xlink:href="#ap"/><use transform="matrix(0.06172839506172839,0,0,0.06172839506172839,40.679012345679006,0)" xlink:href="#an"/></g><path d="M190 0L58-211 59 0H30v-248h39L202-35l-2-213h31V0h-41" id="aq"/><path d="M100-194c62-1 85 37 85 99 1 63-27 99-86 99S16-35 15-95c0-66 28-99 85-99zM99-20c44 1 53-31 53-75 0-43-8-75-51-75s-53 32-53 75 10 74 51 75" id="ar"/><path d="M85-194c31 0 48 13 60 33l-1-100h32l1 261h-30c-2-10 0-23-3-31C134-8 116 4 85 4 32 4 16-35 15-94c0-66 23-100 70-100zm9 24c-40 0-46 34-46 75 0 40 6 74 45 74 42 0 51-32 51-76 0-42-9-74-50-73" id="as"/><path d="M100-194c63 0 86 42 84 106H49c0 40 14 67 53 68 26 1 43-12 49-29l28 8c-11 28-37 45-77 45C44 4 14-33 15-96c1-61 26-98 85-98zm52 81c6-60-76-77-97-28-3 7-6 17-6 28h103" id="at"/><path d="M33-154v-36h34v36H33zM33 0v-36h34V0H33" id="au"/><g id="b"><use transform="matrix(0.06172839506172839,0,0,0.06172839506172839,0,0)" xlink:href="#aq"/><use transform="matrix(0.06172839506172839,0,0,0.06172839506172839,15.987654320987653,0)" xlink:href="#ar"/><use transform="matrix(0.06172839506172839,0,0,0.06172839506172839,28.333333333333332,0)" xlink:href="#as"/><use transform="matrix(0.06172839506172839,0,0,0.06172839506172839,40.67901234567901,0)" xlink:href="#at"/><use transform="matrix(0.06172839506172839,0,0,0.06172839506172839,53.02469135802469,0)" xlink:href="#au"/></g><path d="M33 0v-248h34V0H33" id="av"/><path d="M117-194c89-4 53 116 60 194h-32v-121c0-31-8-49-39-48C34-167 62-67 57 0H25l-1-190h30c1 10-1 24 2 32 11-22 29-35 61-36" id="aw"/><path d="M24-231v-30h32v30H24zM24 0v-190h32V0H24" id="ax"/><g id="c"><use transform="matrix(0.06172839506172839,0,0,0.06172839506172839,0,0)" xlink:href="#av"/><use transform="matrix(0.06172839506172839,0,0,0.06172839506172839,6.172839506172839,0)" xlink:href="#aw"/><use transform="matrix(0.06172839506172839,0,0,0.06172839506172839,18.51851851851852,0)" xlink:href="#ax"/><use transform="matrix(0.06172839506172839,0,0,0.06172839506172839,23.395061728395063,0)" xlink:href="#an"/><use transform="matrix(0.06172839506172839,0,0,0.06172839506172839,29.567901234567902,0)" xlink:href="#ax"/><use transform="matrix(0.06172839506172839,0,0,0.06172839506172839,34.44444444444444,0)" xlink:href="#ao"/><use transform="matrix(0.06172839506172839,0,0,0.06172839506172839,46.79012345679012,0)" xlink:href="#an"/><use transform="matrix(0.06172839506172839,0,0,0.06172839506172839,52.96296296296296,0)" xlink:href="#at"/></g><path d="M96-169c-40 0-48 33-48 73s9 75 48 75c24 0 41-14 43-38l32 2c-6 37-31 61-74 61-59 0-76-41-82-99-10-93 101-131 147-64 4 7 5 14 7 22l-32 3c-4-21-16-35-41-35" id="ay"/><path d="M106-169C34-169 62-67 57 0H25v-261h32l-1 103c12-21 28-36 61-36 89 0 53 116 60 194h-32v-121c2-32-8-49-39-48" id="az"/><path d="M24 0v-261h32V0H24" id="aA"/><g id="d"><use transform="matrix(0.06172839506172839,0,0,0.06172839506172839,0,0)" xlink:href="#am"/><use transform="matrix(0.06172839506172839,0,0,0.06172839506172839,14.814814814814813,0)" xlink:href="#ay"/><use transform="matrix(0.06172839506172839,0,0,0.06172839506172839,25.925925925925924,0)" xlink:href="#az"/><use transform="matrix(0.06172839506172839,0,0,0.06172839506172839,38.2716049382716,0)" xlink:href="#ar"/><use transform="matrix(0.06172839506172839,0,0,0.06172839506172839,50.61728395061728,0)" xlink:href="#ar"/><use transform="matrix(0.06172839506172839,0,0,0.06172839506172839,62.962962962962955,0)" xlink:href="#aA"/></g><path d="M240 0l2-218c-23 76-54 145-80 218h-23L58-218 59 0H30v-248h44l77 211c21-75 51-140 76-211h43V0h-30" id="aB"/><path d="M177-190C167-65 218 103 67 71c-23-6-38-20-44-43l32-5c15 47 100 32 89-28v-30C133-14 115 1 83 1 29 1 15-40 15-95c0-56 16-97 71-98 29-1 48 16 59 35 1-10 0-23 2-32h30zM94-22c36 0 50-32 50-73 0-42-14-75-50-75-39 0-46 34-46 75s6 73 46 73" id="aC"/><path d="M210-169c-67 3-38 105-44 169h-31v-121c0-29-5-50-35-48C34-165 62-65 56 0H25l-1-190h30c1 10-1 24 2 32 10-44 99-50 107 0 11-21 27-35 58-36 85-2 47 119 55 194h-31v-121c0-29-5-49-35-48" id="aD"/><g id="e"><use transform="matrix(0.06172839506172839,0,0,0.06172839506172839,0,0)" xlink:href="#aB"/><use transform="matrix(0.06172839506172839,0,0,0.06172839506172839,18.456790123456788,0)" xlink:href="#ao"/><use transform="matrix(0.06172839506172839,0,0,0.06172839506172839,30.80246913580247,0)" xlink:href="#aw"/><use transform="matrix(0.06172839506172839,0,0,0.06172839506172839,43.148148148148145,0)" xlink:href="#ao"/><use transform="matrix(0.06172839506172839,0,0,0.06172839506172839,55.49382716049382,0)" xlink:href="#aC"/><use transform="matrix(0.06172839506172839,0,0,0.06172839506172839,67.8395061728395,0)" xlink:href="#at"/><use transform="matrix(0.06172839506172839,0,0,0.06172839506172839,80.18518518518519,0)" xlink:href="#aD"/><use transform="matrix(0.06172839506172839,0,0,0.06172839506172839,98.64197530864197,0)" xlink:href="#at"/><use transform="matrix(0.06172839506172839,0,0,0.06172839506172839,110.98765432098766,0)" xlink:href="#aw"/><use transform="matrix(0.06172839506172839,0,0,0.06172839506172839,123.33333333333334,0)" xlink:href="#an"/></g><path d="M179-190L93 31C79 59 56 82 12 73V49c39 6 53-20 64-50L1-190h34L92-34l54-156h33" id="aE"/><path d="M135-143c-3-34-86-38-87 0 15 53 115 12 119 90S17 21 10-45l28-5c4 36 97 45 98 0-10-56-113-15-118-90-4-57 82-63 122-42 12 7 21 19 24 35" id="aF"/><g id="f"><use transform="matrix(0.06172839506172839,0,0,0.06172839506172839,0,0)" xlink:href="#am"/><use transform="matrix(0.06172839506172839,0,0,0.06172839506172839,14.814814814814813,0)" xlink:href="#aE"/><use transform="matrix(0.06172839506172839,0,0,0.06172839506172839,25.925925925925924,0)" xlink:href="#aF"/><use transform="matrix(0.06172839506172839,0,0,0.06172839506172839,37.03703703703704,0)" xlink:href="#an"/><use transform="matrix(0.06172839506172839,0,0,0.06172839506172839,43.20987654320988,0)" xlink:href="#at"/><use transform="matrix(0.06172839506172839,0,0,0.06172839506172839,55.55555555555556,0)" xlink:href="#aD"/></g><g id="g"><use transform="matrix(0.06172839506172839,0,0,0.06172839506172839,0,0)" xlink:href="#aB"/><use transform="matrix(0.06172839506172839,0,0,0.06172839506172839,18.456790123456788,0)" xlink:href="#ao"/><use transform="matrix(0.06172839506172839,0,0,0.06172839506172839,30.80246913580247,0)" xlink:href="#ax"/><use transform="matrix(0.06172839506172839,0,0,0.06172839506172839,35.67901234567901,0)" xlink:href="#aw"/></g><path d="M84 4C-5 8 30-112 23-190h32v120c0 31 7 50 39 49 72-2 45-101 50-169h31l1 190h-30c-1-10 1-25-2-33-11 22-28 36-60 37" id="aG"/><g id="h"><use transform="matrix(0.06172839506172839,0,0,0.06172839506172839,0,0)" xlink:href="#aB"/><use transform="matrix(0.06172839506172839,0,0,0.06172839506172839,18.456790123456788,0)" xlink:href="#at"/><use transform="matrix(0.06172839506172839,0,0,0.06172839506172839,30.80246913580247,0)" xlink:href="#aw"/><use transform="matrix(0.06172839506172839,0,0,0.06172839506172839,43.148148148148145,0)" xlink:href="#aG"/></g><path d="M140-251c81 0 123 46 123 126C263-46 219 4 140 4 59 4 17-45 17-125s42-126 123-126zm0 227c63 0 89-41 89-101s-29-99-89-99c-61 0-89 39-89 99S79-25 140-24" id="aH"/><path d="M115-194c55 1 70 41 70 98S169 2 115 4C84 4 66-9 55-30l1 105H24l-1-265h31l2 30c10-21 28-34 59-34zm-8 174c40 0 45-34 45-75s-6-73-45-74c-42 0-51 32-51 76 0 43 10 73 51 73" id="aI"/><g id="i"><use transform="matrix(0.06172839506172839,0,0,0.06172839506172839,0,0)" xlink:href="#aH"/><use transform="matrix(0.06172839506172839,0,0,0.06172839506172839,17.28395061728395,0)" xlink:href="#aI"/><use transform="matrix(0.06172839506172839,0,0,0.06172839506172839,29.629629629629626,0)" xlink:href="#an"/><use transform="matrix(0.06172839506172839,0,0,0.06172839506172839,35.80246913580247,0)" xlink:href="#ax"/><use transform="matrix(0.06172839506172839,0,0,0.06172839506172839,40.67901234567901,0)" xlink:href="#ar"/><use transform="matrix(0.06172839506172839,0,0,0.06172839506172839,53.02469135802469,0)" xlink:href="#aw"/><use transform="matrix(0.06172839506172839,0,0,0.06172839506172839,65.37037037037037,0)" xlink:href="#aF"/></g><g id="j"><use transform="matrix(0.06172839506172839,0,0,0.06172839506172839,0,0)" xlink:href="#aB"/><use transform="matrix(0.06172839506172839,0,0,0.06172839506172839,18.456790123456788,0)" xlink:href="#ao"/><use transform="matrix(0.06172839506172839,0,0,0.06172839506172839,30.80246913580247,0)" xlink:href="#aw"/><use transform="matrix(0.06172839506172839,0,0,0.06172839506172839,43.148148148148145,0)" xlink:href="#ao"/><use transform="matrix(0.06172839506172839,0,0,0.06172839506172839,55.49382716049382,0)" xlink:href="#aC"/><use transform="matrix(0.06172839506172839,0,0,0.06172839506172839,67.8395061728395,0)" xlink:href="#at"/></g><g id="k"><use transform="matrix(0.06172839506172839,0,0,0.06172839506172839,0,0)" xlink:href="#am"/><use transform="matrix(0.06172839506172839,0,0,0.06172839506172839,14.814814814814813,0)" xlink:href="#an"/><use transform="matrix(0.06172839506172839,0,0,0.06172839506172839,20.98765432098765,0)" xlink:href="#aG"/><use transform="matrix(0.06172839506172839,0,0,0.06172839506172839,33.33333333333333,0)" xlink:href="#as"/><use transform="matrix(0.06172839506172839,0,0,0.06172839506172839,45.679012345679006,0)" xlink:href="#at"/><use transform="matrix(0.06172839506172839,0,0,0.06172839506172839,58.02469135802468,0)" xlink:href="#aw"/><use transform="matrix(0.06172839506172839,0,0,0.06172839506172839,70.37037037037037,0)" xlink:href="#an"/><use transform="matrix(0.06172839506172839,0,0,0.06172839506172839,76.5432098765432,0)" xlink:href="#aF"/></g><path d="M127-220V0H93v-220H8v-28h204v28h-85" id="aJ"/><g id="l"><use transform="matrix(0.06172839506172839,0,0,0.06172839506172839,0,0)" xlink:href="#aJ"/><use transform="matrix(0.06172839506172839,0,0,0.06172839506172839,11.049382716049381,0)" xlink:href="#at"/><use transform="matrix(0.06172839506172839,0,0,0.06172839506172839,23.39506172839506,0)" xlink:href="#ao"/><use transform="matrix(0.06172839506172839,0,0,0.06172839506172839,35.74074074074074,0)" xlink:href="#ay"/><use transform="matrix(0.06172839506172839,0,0,0.06172839506172839,46.85185185185185,0)" xlink:href="#az"/><use transform="matrix(0.06172839506172839,0,0,0.06172839506172839,59.197530864197525,0)" xlink:href="#at"/><use transform="matrix(0.06172839506172839,0,0,0.06172839506172839,71.5432098765432,0)" xlink:href="#ap"/><use transform="matrix(0.06172839506172839,0,0,0.06172839506172839,78.88888888888889,0)" xlink:href="#aF"/></g><path d="M212-179c-10-28-35-45-73-45-59 0-87 40-87 99 0 60 29 101 89 101 43 0 62-24 78-52l27 14C228-24 195 4 139 4 59 4 22-46 18-125c-6-104 99-153 187-111 19 9 31 26 39 46" id="aK"/><g id="m"><use transform="matrix(0.06172839506172839,0,0,0.06172839506172839,0,0)" xlink:href="#aK"/><use transform="matrix(0.06172839506172839,0,0,0.06172839506172839,15.987654320987653,0)" xlink:href="#ar"/><use transform="matrix(0.06172839506172839,0,0,0.06172839506172839,28.333333333333332,0)" xlink:href="#aG"/><use transform="matrix(0.06172839506172839,0,0,0.06172839506172839,40.67901234567901,0)" xlink:href="#ap"/><use transform="matrix(0.06172839506172839,0,0,0.06172839506172839,48.02469135802469,0)" xlink:href="#aF"/><use transform="matrix(0.06172839506172839,0,0,0.06172839506172839,59.1358024691358,0)" xlink:href="#at"/><use transform="matrix(0.06172839506172839,0,0,0.06172839506172839,71.48148148148148,0)" xlink:href="#aF"/></g><path d="M30 0v-248h187v28H63v79h144v27H63v87h162V0H30" id="aL"/><path d="M141 0L90-78 38 0H4l68-98-65-92h35l48 74 47-74h35l-64 92 68 98h-35" id="aM"/><g id="n"><use transform="matrix(0.06172839506172839,0,0,0.06172839506172839,0,0)" xlink:href="#aL"/><use transform="matrix(0.06172839506172839,0,0,0.06172839506172839,14.814814814814813,0)" xlink:href="#aM"/><use transform="matrix(0.06172839506172839,0,0,0.06172839506172839,25.925925925925924,0)" xlink:href="#ax"/><use transform="matrix(0.06172839506172839,0,0,0.06172839506172839,30.80246913580247,0)" xlink:href="#an"/></g><g id="o"><use transform="matrix(0.06172839506172839,0,0,0.06172839506172839,0,0)" xlink:href="#aJ"/><use transform="matrix(0.06172839506172839,0,0,0.06172839506172839,11.049382716049381,0)" xlink:href="#at"/><use transform="matrix(0.06172839506172839,0,0,0.06172839506172839,23.39506172839506,0)" xlink:href="#ap"/><use transform="matrix(0.06172839506172839,0,0,0.06172839506172839,30.74074074074074,0)" xlink:href="#aD"/><use transform="matrix(0.06172839506172839,0,0,0.06172839506172839,49.19753086419753,0)" xlink:href="#ax"/><use transform="matrix(0.06172839506172839,0,0,0.06172839506172839,54.074074074074076,0)" xlink:href="#aw"/><use transform="matrix(0.06172839506172839,0,0,0.06172839506172839,66.41975308641976,0)" xlink:href="#ao"/><use transform="matrix(0.06172839506172839,0,0,0.06172839506172839,78.76543209876544,0)" xlink:href="#an"/><use transform="matrix(0.06172839506172839,0,0,0.06172839506172839,84.93827160493828,0)" xlink:href="#at"/></g><g id="p"><use transform="matrix(0.06172839506172839,0,0,0.06172839506172839,0,0)" xlink:href="#an"/><use transform="matrix(0.06172839506172839,0,0,0.06172839506172839,6.172839506172839,0)" xlink:href="#az"/><use transform="matrix(0.06172839506172839,0,0,0.06172839506172839,18.51851851851852,0)" xlink:href="#at"/></g><path d="M30-248c87 1 191-15 191 75 0 78-77 80-158 76V0H30v-248zm33 125c57 0 124 11 124-50 0-59-68-47-124-48v98" id="aN"/><g id="q"><use transform="matrix(0.06172839506172839,0,0,0.06172839506172839,0,0)" xlink:href="#aN"/><use transform="matrix(0.06172839506172839,0,0,0.06172839506172839,14.814814814814813,0)" xlink:href="#ap"/><use transform="matrix(0.06172839506172839,0,0,0.06172839506172839,22.160493827160494,0)" xlink:href="#ar"/><use transform="matrix(0.06172839506172839,0,0,0.06172839506172839,34.50617283950617,0)" xlink:href="#aC"/><use transform="matrix(0.06172839506172839,0,0,0.06172839506172839,46.85185185185185,0)" xlink:href="#ap"/><use transform="matrix(0.06172839506172839,0,0,0.06172839506172839,54.197530864197525,0)" xlink:href="#ao"/><use transform="matrix(0.06172839506172839,0,0,0.06172839506172839,66.5432098765432,0)" xlink:href="#aD"/></g><g id="r"><use transform="matrix(0.06172839506172839,0,0,0.06172839506172839,0,0)" xlink:href="#aK"/><use transform="matrix(0.06172839506172839,0,0,0.06172839506172839,15.987654320987653,0)" xlink:href="#ar"/><use transform="matrix(0.06172839506172839,0,0,0.06172839506172839,28.333333333333332,0)" xlink:href="#aD"/><use transform="matrix(0.06172839506172839,0,0,0.06172839506172839,46.79012345679012,0)" xlink:href="#aI"/><use transform="matrix(0.06172839506172839,0,0,0.06172839506172839,59.1358024691358,0)" xlink:href="#aA"/><use transform="matrix(0.06172839506172839,0,0,0.06172839506172839,64.01234567901234,0)" xlink:href="#at"/><use transform="matrix(0.06172839506172839,0,0,0.06172839506172839,76.35802469135803,0)" xlink:href="#an"/><use transform="matrix(0.06172839506172839,0,0,0.06172839506172839,82.53086419753086,0)" xlink:href="#ax"/><use transform="matrix(0.06172839506172839,0,0,0.06172839506172839,87.4074074074074,0)" xlink:href="#ar"/><use transform="matrix(0.06172839506172839,0,0,0.06172839506172839,99.75308641975309,0)" xlink:href="#aw"/></g><path d="M143 0L79-87 56-68V0H24v-261h32v163l83-92h37l-77 82L181 0h-38" id="aO"/><g id="s"><use transform="matrix(0.06172839506172839,0,0,0.06172839506172839,0,0)" xlink:href="#aK"/><use transform="matrix(0.06172839506172839,0,0,0.06172839506172839,15.987654320987653,0)" xlink:href="#az"/><use transform="matrix(0.06172839506172839,0,0,0.06172839506172839,28.333333333333332,0)" xlink:href="#at"/><use transform="matrix(0.06172839506172839,0,0,0.06172839506172839,40.67901234567901,0)" xlink:href="#ay"/><use transform="matrix(0.06172839506172839,0,0,0.06172839506172839,51.79012345679013,0)" xlink:href="#aO"/></g><path d="M233-177c-1 41-23 64-60 70L243 0h-38l-65-103H63V0H30v-248c88 3 205-21 203 71zM63-129c60-2 137 13 137-47 0-61-80-42-137-45v92" id="aP"/><g id="t"><use transform="matrix(0.06172839506172839,0,0,0.06172839506172839,0,0)" xlink:href="#aP"/><use transform="matrix(0.06172839506172839,0,0,0.06172839506172839,15.987654320987653,0)" xlink:href="#at"/><use transform="matrix(0.06172839506172839,0,0,0.06172839506172839,28.333333333333332,0)" xlink:href="#an"/><use transform="matrix(0.06172839506172839,0,0,0.06172839506172839,34.50617283950617,0)" xlink:href="#aG"/><use transform="matrix(0.06172839506172839,0,0,0.06172839506172839,46.85185185185185,0)" xlink:href="#ap"/><use transform="matrix(0.06172839506172839,0,0,0.06172839506172839,54.197530864197525,0)" xlink:href="#aw"/></g><g id="u"><use transform="matrix(0.06172839506172839,0,0,0.06172839506172839,0,0)" xlink:href="#an"/><use transform="matrix(0.06172839506172839,0,0,0.06172839506172839,6.172839506172839,0)" xlink:href="#ar"/></g><g id="v"><use transform="matrix(0.06172839506172839,0,0,0.06172839506172839,0,0)" xlink:href="#aB"/><use transform="matrix(0.06172839506172839,0,0,0.06172839506172839,18.456790123456788,0)" xlink:href="#ao"/><use transform="matrix(0.06172839506172839,0,0,0.06172839506172839,30.80246913580247,0)" xlink:href="#ax"/><use transform="matrix(0.06172839506172839,0,0,0.06172839506172839,35.67901234567901,0)" xlink:href="#aw"/></g><g id="w"><use transform="matrix(0.06172839506172839,0,0,0.06172839506172839,0,0)" xlink:href="#aB"/><use transform="matrix(0.06172839506172839,0,0,0.06172839506172839,18.456790123456788,0)" xlink:href="#at"/><use transform="matrix(0.06172839506172839,0,0,0.06172839506172839,30.80246913580247,0)" xlink:href="#aw"/><use transform="matrix(0.06172839506172839,0,0,0.06172839506172839,43.148148148148145,0)" xlink:href="#aG"/></g><path d="M205 0l-28-72H64L36 0H1l101-248h38L239 0h-34zm-38-99l-47-123c-12 45-31 82-46 123h93" id="aQ"/><g id="x"><use transform="matrix(0.06172839506172839,0,0,0.06172839506172839,0,0)" xlink:href="#aQ"/><use transform="matrix(0.06172839506172839,0,0,0.06172839506172839,14.814814814814813,0)" xlink:href="#as"/><use transform="matrix(0.06172839506172839,0,0,0.06172839506172839,27.160493827160494,0)" xlink:href="#as"/></g><g id="y"><use transform="matrix(0.06172839506172839,0,0,0.06172839506172839,0,0)" xlink:href="#am"/><use transform="matrix(0.06172839506172839,0,0,0.06172839506172839,14.814814814814813,0)" xlink:href="#an"/><use transform="matrix(0.06172839506172839,0,0,0.06172839506172839,20.98765432098765,0)" xlink:href="#aG"/><use transform="matrix(0.06172839506172839,0,0,0.06172839506172839,33.33333333333333,0)" xlink:href="#as"/><use transform="matrix(0.06172839506172839,0,0,0.06172839506172839,45.679012345679006,0)" xlink:href="#at"/><use transform="matrix(0.06172839506172839,0,0,0.06172839506172839,58.02469135802468,0)" xlink:href="#aw"/><use transform="matrix(0.06172839506172839,0,0,0.06172839506172839,70.37037037037037,0)" xlink:href="#an"/></g><path d="M87 75C49 33 22-17 22-94c0-76 28-126 65-167h31c-38 41-64 92-64 168S80 34 118 75H87" id="aR"/><g id="z"><use transform="matrix(0.06172839506172839,0,0,0.06172839506172839,0,0)" xlink:href="#aR"/><use transform="matrix(0.06172839506172839,0,0,0.06172839506172839,7.345679012345679,0)" xlink:href="#av"/><use transform="matrix(0.06172839506172839,0,0,0.06172839506172839,13.518518518518519,0)" xlink:href="#aw"/><use transform="matrix(0.06172839506172839,0,0,0.06172839506172839,25.864197530864196,0)" xlink:href="#aI"/><use transform="matrix(0.06172839506172839,0,0,0.06172839506172839,38.20987654320987,0)" xlink:href="#aG"/><use transform="matrix(0.06172839506172839,0,0,0.06172839506172839,50.55555555555555,0)" xlink:href="#an"/><use transform="matrix(0.06172839506172839,0,0,0.06172839506172839,56.72839506172839,0)" xlink:href="#au"/></g><path d="M68-38c1 34 0 65-14 84H32c9-13 17-26 17-46H33v-38h35" id="aS"/><g id="A"><use transform="matrix(0.06172839506172839,0,0,0.06172839506172839,0,0)" xlink:href="#aq"/><use transform="matrix(0.06172839506172839,0,0,0.06172839506172839,15.987654320987653,0)" xlink:href="#ao"/><use transform="matrix(0.06172839506172839,0,0,0.06172839506172839,28.333333333333332,0)" xlink:href="#aD"/><use transform="matrix(0.06172839506172839,0,0,0.06172839506172839,46.79012345679012,0)" xlink:href="#at"/><use transform="matrix(0.06172839506172839,0,0,0.06172839506172839,59.1358024691358,0)" xlink:href="#aS"/></g><path d="M33-261c38 41 65 92 65 168S71 34 33 75H2C39 34 66-17 66-93S39-220 2-261h31" id="aT"/><g id="B"><use transform="matrix(0.06172839506172839,0,0,0.06172839506172839,0,0)" xlink:href="#aQ"/><use transform="matrix(0.06172839506172839,0,0,0.06172839506172839,14.814814814814813,0)" xlink:href="#aC"/><use transform="matrix(0.06172839506172839,0,0,0.06172839506172839,27.160493827160494,0)" xlink:href="#at"/><use transform="matrix(0.06172839506172839,0,0,0.06172839506172839,39.50617283950617,0)" xlink:href="#aT"/></g><path d="M30-248c118-7 216 8 213 122C240-48 200 0 122 0H30v-248zM63-27c89 8 146-16 146-99s-60-101-146-95v194" id="aU"/><g id="C"><use transform="matrix(0.06172839506172839,0,0,0.06172839506172839,0,0)" xlink:href="#aU"/><use transform="matrix(0.06172839506172839,0,0,0.06172839506172839,15.987654320987653,0)" xlink:href="#ax"/><use transform="matrix(0.06172839506172839,0,0,0.06172839506172839,20.864197530864196,0)" xlink:href="#aF"/><use transform="matrix(0.06172839506172839,0,0,0.06172839506172839,31.975308641975307,0)" xlink:href="#aI"/><use transform="matrix(0.06172839506172839,0,0,0.06172839506172839,44.32098765432099,0)" xlink:href="#aA"/><use transform="matrix(0.06172839506172839,0,0,0.06172839506172839,49.19753086419753,0)" xlink:href="#ao"/><use transform="matrix(0.06172839506172839,0,0,0.06172839506172839,61.54320987654321,0)" xlink:href="#aE"/></g><g id="D"><use transform="matrix(0.06172839506172839,0,0,0.06172839506172839,0,0)" xlink:href="#aQ"/><use transform="matrix(0.06172839506172839,0,0,0.06172839506172839,14.814814814814813,0)" xlink:href="#aA"/><use transform="matrix(0.06172839506172839,0,0,0.06172839506172839,19.691358024691354,0)" xlink:href="#aA"/></g><g id="E"><use transform="matrix(0.06172839506172839,0,0,0.06172839506172839,0,0)" xlink:href="#am"/><use transform="matrix(0.06172839506172839,0,0,0.06172839506172839,14.814814814814813,0)" xlink:href="#an"/><use transform="matrix(0.06172839506172839,0,0,0.06172839506172839,20.98765432098765,0)" xlink:href="#aG"/><use transform="matrix(0.06172839506172839,0,0,0.06172839506172839,33.33333333333333,0)" xlink:href="#as"/><use transform="matrix(0.06172839506172839,0,0,0.06172839506172839,45.679012345679006,0)" xlink:href="#at"/><use transform="matrix(0.06172839506172839,0,0,0.06172839506172839,58.02469135802468,0)" xlink:href="#aw"/><use transform="matrix(0.06172839506172839,0,0,0.06172839506172839,70.37037037037037,0)" xlink:href="#an"/><use transform="matrix(0.06172839506172839,0,0,0.06172839506172839,76.5432098765432,0)" xlink:href="#aF"/></g><g id="F"><use transform="matrix(0.06172839506172839,0,0,0.06172839506172839,0,0)" xlink:href="#aR"/><use transform="matrix(0.06172839506172839,0,0,0.06172839506172839,7.345679012345679,0)" xlink:href="#aH"/><use transform="matrix(0.06172839506172839,0,0,0.06172839506172839,24.629629629629626,0)" xlink:href="#aG"/><use transform="matrix(0.06172839506172839,0,0,0.06172839506172839,36.9753086419753,0)" xlink:href="#an"/><use transform="matrix(0.06172839506172839,0,0,0.06172839506172839,43.148148148148145,0)" xlink:href="#aI"/><use transform="matrix(0.06172839506172839,0,0,0.06172839506172839,55.49382716049382,0)" xlink:href="#aG"/><use transform="matrix(0.06172839506172839,0,0,0.06172839506172839,67.8395061728395,0)" xlink:href="#an"/><use transform="matrix(0.06172839506172839,0,0,0.06172839506172839,74.01234567901234,0)" xlink:href="#au"/></g><path d="M30 0v-248h33v221h125V0H30" id="aV"/><g id="G"><use transform="matrix(0.06172839506172839,0,0,0.06172839506172839,0,0)" xlink:href="#aV"/><use transform="matrix(0.06172839506172839,0,0,0.06172839506172839,12.345679012345679,0)" xlink:href="#ax"/><use transform="matrix(0.06172839506172839,0,0,0.06172839506172839,17.22222222222222,0)" xlink:href="#aF"/><use transform="matrix(0.06172839506172839,0,0,0.06172839506172839,28.333333333333332,0)" xlink:href="#an"/></g><path d="M101-234c-31-9-42 10-38 44h38v23H63V0H32v-167H5v-23h27c-7-52 17-82 69-68v24" id="aW"/><g id="H"><use transform="matrix(0.06172839506172839,0,0,0.06172839506172839,0,0)" xlink:href="#ar"/><use transform="matrix(0.06172839506172839,0,0,0.06172839506172839,12.345679012345679,0)" xlink:href="#aW"/></g><g id="I"><use transform="matrix(0.06172839506172839,0,0,0.06172839506172839,0,0)" xlink:href="#am"/><use transform="matrix(0.06172839506172839,0,0,0.06172839506172839,14.814814814814813,0)" xlink:href="#an"/><use transform="matrix(0.06172839506172839,0,0,0.06172839506172839,20.98765432098765,0)" xlink:href="#aG"/><use transform="matrix(0.06172839506172839,0,0,0.06172839506172839,33.33333333333333,0)" xlink:href="#as"/><use transform="matrix(0.06172839506172839,0,0,0.06172839506172839,45.679012345679006,0)" xlink:href="#at"/><use transform="matrix(0.06172839506172839,0,0,0.06172839506172839,58.02469135802468,0)" xlink:href="#aw"/><use transform="matrix(0.06172839506172839,0,0,0.06172839506172839,70.37037037037037,0)" xlink:href="#an"/><use transform="matrix(0.06172839506172839,0,0,0.06172839506172839,76.5432098765432,0)" xlink:href="#aF"/><use transform="matrix(0.06172839506172839,0,0,0.06172839506172839,87.65432098765432,0)" xlink:href="#aT"/></g><path d="M143 4C61 4 22-44 18-125c-5-107 100-154 193-111 17 8 29 25 37 43l-32 9c-13-25-37-40-76-40-61 0-88 39-88 99 0 61 29 100 91 101 35 0 62-11 79-27v-45h-74v-28h105v86C228-13 192 4 143 4" id="aX"/><g id="J"><use transform="matrix(0.06172839506172839,0,0,0.06172839506172839,0,0)" xlink:href="#aX"/><use transform="matrix(0.06172839506172839,0,0,0.06172839506172839,17.28395061728395,0)" xlink:href="#ar"/></g><path d="M160-131c35 5 61 23 61 61C221 17 115-2 30 0v-248c76 3 177-17 177 60 0 33-19 50-47 57zm-97-11c50-1 110 9 110-42 0-47-63-36-110-37v79zm0 115c55-2 124 14 124-45 0-56-70-42-124-44v89" id="aY"/><g id="K"><use transform="matrix(0.06172839506172839,0,0,0.06172839506172839,0,0)" xlink:href="#aY"/><use transform="matrix(0.06172839506172839,0,0,0.06172839506172839,14.814814814814813,0)" xlink:href="#ao"/><use transform="matrix(0.06172839506172839,0,0,0.06172839506172839,27.160493827160494,0)" xlink:href="#ay"/><use transform="matrix(0.06172839506172839,0,0,0.06172839506172839,38.27160493827161,0)" xlink:href="#aO"/></g><g id="L"><use transform="matrix(0.06172839506172839,0,0,0.06172839506172839,0,0)" xlink:href="#an"/><use transform="matrix(0.06172839506172839,0,0,0.06172839506172839,6.172839506172839,0)" xlink:href="#ar"/></g><g id="M"><use transform="matrix(0.06172839506172839,0,0,0.06172839506172839,0,0)" xlink:href="#aB"/><use transform="matrix(0.06172839506172839,0,0,0.06172839506172839,18.456790123456788,0)" xlink:href="#ao"/><use transform="matrix(0.06172839506172839,0,0,0.06172839506172839,30.80246913580247,0)" xlink:href="#ax"/><use transform="matrix(0.06172839506172839,0,0,0.06172839506172839,35.67901234567901,0)" xlink:href="#aw"/></g><path d="M103-251c84 0 111 97 45 133-19 10-37 24-39 52H78c0-63 77-55 77-114 0-30-21-42-52-43-32 0-53 17-56 46l-32-2c7-45 34-72 88-72zM77 0v-35h34V0H77" id="aZ"/><g id="N"><use transform="matrix(0.06172839506172839,0,0,0.06172839506172839,0,0)" xlink:href="#aB"/><use transform="matrix(0.06172839506172839,0,0,0.06172839506172839,18.456790123456788,0)" xlink:href="#at"/><use transform="matrix(0.06172839506172839,0,0,0.06172839506172839,30.80246913580247,0)" xlink:href="#aw"/><use transform="matrix(0.06172839506172839,0,0,0.06172839506172839,43.148148148148145,0)" xlink:href="#aG"/><use transform="matrix(0.06172839506172839,0,0,0.06172839506172839,55.49382716049382,0)" xlink:href="#aZ"/></g><g id="O"><use transform="matrix(0.06172839506172839,0,0,0.06172839506172839,0,0)" xlink:href="#aJ"/><use transform="matrix(0.06172839506172839,0,0,0.06172839506172839,11.049382716049381,0)" xlink:href="#at"/><use transform="matrix(0.06172839506172839,0,0,0.06172839506172839,23.39506172839506,0)" xlink:href="#ao"/><use transform="matrix(0.06172839506172839,0,0,0.06172839506172839,35.74074074074074,0)" xlink:href="#ay"/><use transform="matrix(0.06172839506172839,0,0,0.06172839506172839,46.85185185185185,0)" xlink:href="#az"/><use transform="matrix(0.06172839506172839,0,0,0.06172839506172839,59.197530864197525,0)" xlink:href="#at"/><use transform="matrix(0.06172839506172839,0,0,0.06172839506172839,71.5432098765432,0)" xlink:href="#ap"/></g><path d="M115-194c53 0 69 39 70 98 0 66-23 100-70 100C84 3 66-7 56-30L54 0H23l1-261h32v101c10-23 28-34 59-34zm-8 174c40 0 45-34 45-75 0-40-5-75-45-74-42 0-51 32-51 76 0 43 10 73 51 73" id="ba"/><path d="M24-231v-30h32v30H24zM-9 49c24 4 33-6 33-30v-209h32V24c2 40-23 58-65 49V49" id="bb"/><g id="P"><use transform="matrix(0.06172839506172839,0,0,0.06172839506172839,0,0)" xlink:href="#am"/><use transform="matrix(0.06172839506172839,0,0,0.06172839506172839,14.814814814814813,0)" xlink:href="#aG"/><use transform="matrix(0.06172839506172839,0,0,0.06172839506172839,27.160493827160494,0)" xlink:href="#ba"/><use transform="matrix(0.06172839506172839,0,0,0.06172839506172839,39.50617283950617,0)" xlink:href="#bb"/><use transform="matrix(0.06172839506172839,0,0,0.06172839506172839,44.382716049382715,0)" xlink:href="#at"/><use transform="matrix(0.06172839506172839,0,0,0.06172839506172839,56.72839506172839,0)" xlink:href="#ay"/><use transform="matrix(0.06172839506172839,0,0,0.06172839506172839,67.8395061728395,0)" xlink:href="#an"/><use transform="matrix(0.06172839506172839,0,0,0.06172839506172839,74.01234567901234,0)" xlink:href="#aT"/></g><g id="Q"><use transform="matrix(0.06172839506172839,0,0,0.06172839506172839,0,0)" xlink:href="#aJ"/><use transform="matrix(0.06172839506172839,0,0,0.06172839506172839,11.049382716049381,0)" xlink:href="#at"/><use transform="matrix(0.06172839506172839,0,0,0.06172839506172839,23.39506172839506,0)" xlink:href="#ao"/><use transform="matrix(0.06172839506172839,0,0,0.06172839506172839,35.74074074074074,0)" xlink:href="#ay"/><use transform="matrix(0.06172839506172839,0,0,0.06172839506172839,46.85185185185185,0)" xlink:href="#az"/><use transform="matrix(0.06172839506172839,0,0,0.06172839506172839,59.197530864197525,0)" xlink:href="#at"/><use transform="matrix(0.06172839506172839,0,0,0.06172839506172839,71.5432098765432,0)" xlink:href="#ap"/><use transform="matrix(0.06172839506172839,0,0,0.06172839506172839,78.88888888888889,0)" xlink:href="#aF"/></g><g id="R"><use transform="matrix(0.06172839506172839,0,0,0.06172839506172839,0,0)" xlink:href="#aJ"/><use transform="matrix(0.06172839506172839,0,0,0.06172839506172839,11.049382716049381,0)" xlink:href="#at"/><use transform="matrix(0.06172839506172839,0,0,0.06172839506172839,23.39506172839506,0)" xlink:href="#ao"/><use transform="matrix(0.06172839506172839,0,0,0.06172839506172839,35.74074074074074,0)" xlink:href="#ay"/><use transform="matrix(0.06172839506172839,0,0,0.06172839506172839,46.85185185185185,0)" xlink:href="#az"/><use transform="matrix(0.06172839506172839,0,0,0.06172839506172839,59.197530864197525,0)" xlink:href="#at"/><use transform="matrix(0.06172839506172839,0,0,0.06172839506172839,71.5432098765432,0)" xlink:href="#ap"/><use transform="matrix(0.06172839506172839,0,0,0.06172839506172839,78.88888888888889,0)" xlink:href="#aF"/><use transform="matrix(0.06172839506172839,0,0,0.06172839506172839,90,0)" xlink:href="#aT"/></g><g id="S"><use transform="matrix(0.06172839506172839,0,0,0.06172839506172839,0,0)" xlink:href="#aK"/><use transform="matrix(0.06172839506172839,0,0,0.06172839506172839,15.987654320987653,0)" xlink:href="#ar"/><use transform="matrix(0.06172839506172839,0,0,0.06172839506172839,28.333333333333332,0)" xlink:href="#aG"/><use transform="matrix(0.06172839506172839,0,0,0.06172839506172839,40.67901234567901,0)" xlink:href="#ap"/><use transform="matrix(0.06172839506172839,0,0,0.06172839506172839,48.02469135802469,0)" xlink:href="#aF"/><use transform="matrix(0.06172839506172839,0,0,0.06172839506172839,59.1358024691358,0)" xlink:href="#at"/></g><g id="T"><use transform="matrix(0.06172839506172839,0,0,0.06172839506172839,0,0)" xlink:href="#aq"/><use transform="matrix(0.06172839506172839,0,0,0.06172839506172839,15.987654320987653,0)" xlink:href="#ao"/><use transform="matrix(0.06172839506172839,0,0,0.06172839506172839,28.333333333333332,0)" xlink:href="#aD"/><use transform="matrix(0.06172839506172839,0,0,0.06172839506172839,46.79012345679012,0)" xlink:href="#at"/><use transform="matrix(0.06172839506172839,0,0,0.06172839506172839,59.1358024691358,0)" xlink:href="#aT"/></g><g id="U"><use transform="matrix(0.06172839506172839,0,0,0.06172839506172839,0,0)" xlink:href="#aK"/><use transform="matrix(0.06172839506172839,0,0,0.06172839506172839,15.987654320987653,0)" xlink:href="#ar"/><use transform="matrix(0.06172839506172839,0,0,0.06172839506172839,28.333333333333332,0)" xlink:href="#aG"/><use transform="matrix(0.06172839506172839,0,0,0.06172839506172839,40.67901234567901,0)" xlink:href="#ap"/><use transform="matrix(0.06172839506172839,0,0,0.06172839506172839,48.02469135802469,0)" xlink:href="#aF"/><use transform="matrix(0.06172839506172839,0,0,0.06172839506172839,59.1358024691358,0)" xlink:href="#at"/><use transform="matrix(0.06172839506172839,0,0,0.06172839506172839,71.48148148148148,0)" xlink:href="#aF"/></g><g id="V"><use transform="matrix(0.06172839506172839,0,0,0.06172839506172839,0,0)" xlink:href="#aK"/><use transform="matrix(0.06172839506172839,0,0,0.06172839506172839,15.987654320987653,0)" xlink:href="#ar"/><use transform="matrix(0.06172839506172839,0,0,0.06172839506172839,28.333333333333332,0)" xlink:href="#aG"/><use transform="matrix(0.06172839506172839,0,0,0.06172839506172839,40.67901234567901,0)" xlink:href="#ap"/><use transform="matrix(0.06172839506172839,0,0,0.06172839506172839,48.02469135802469,0)" xlink:href="#aF"/><use transform="matrix(0.06172839506172839,0,0,0.06172839506172839,59.1358024691358,0)" xlink:href="#at"/><use transform="matrix(0.06172839506172839,0,0,0.06172839506172839,71.48148148148148,0)" xlink:href="#aF"/><use transform="matrix(0.06172839506172839,0,0,0.06172839506172839,82.5925925925926,0)" xlink:href="#aT"/></g><g id="W"><use transform="matrix(0.06172839506172839,0,0,0.06172839506172839,0,0)" xlink:href="#aQ"/><use transform="matrix(0.06172839506172839,0,0,0.06172839506172839,14.814814814814813,0)" xlink:href="#aF"/><use transform="matrix(0.06172839506172839,0,0,0.06172839506172839,25.925925925925924,0)" xlink:href="#aF"/><use transform="matrix(0.06172839506172839,0,0,0.06172839506172839,37.03703703703704,0)" xlink:href="#ax"/><use transform="matrix(0.06172839506172839,0,0,0.06172839506172839,41.91358024691358,0)" xlink:href="#aC"/><use transform="matrix(0.06172839506172839,0,0,0.06172839506172839,54.25925925925926,0)" xlink:href="#aw"/></g><g id="X"><use transform="matrix(0.06172839506172839,0,0,0.06172839506172839,0,0)" xlink:href="#am"/><use transform="matrix(0.06172839506172839,0,0,0.06172839506172839,14.814814814814813,0)" xlink:href="#an"/><use transform="matrix(0.06172839506172839,0,0,0.06172839506172839,20.98765432098765,0)" xlink:href="#aG"/><use transform="matrix(0.06172839506172839,0,0,0.06172839506172839,33.33333333333333,0)" xlink:href="#as"/><use transform="matrix(0.06172839506172839,0,0,0.06172839506172839,45.679012345679006,0)" xlink:href="#at"/><use transform="matrix(0.06172839506172839,0,0,0.06172839506172839,58.02469135802468,0)" xlink:href="#aw"/><use transform="matrix(0.06172839506172839,0,0,0.06172839506172839,70.37037037037037,0)" xlink:href="#an"/><use transform="matrix(0.06172839506172839,0,0,0.06172839506172839,76.5432098765432,0)" xlink:href="#aF"/></g><g id="Y"><use transform="matrix(0.06172839506172839,0,0,0.06172839506172839,0,0)" xlink:href="#ao"/><use transform="matrix(0.06172839506172839,0,0,0.06172839506172839,12.345679012345679,0)" xlink:href="#aw"/><use transform="matrix(0.06172839506172839,0,0,0.06172839506172839,24.691358024691358,0)" xlink:href="#as"/></g><g id="Z"><use transform="matrix(0.06172839506172839,0,0,0.06172839506172839,0,0)" xlink:href="#aR"/><use transform="matrix(0.06172839506172839,0,0,0.06172839506172839,7.345679012345679,0)" xlink:href="#av"/><use transform="matrix(0.06172839506172839,0,0,0.06172839506172839,13.518518518518519,0)" xlink:href="#aw"/><use transform="matrix(0.06172839506172839,0,0,0.06172839506172839,25.864197530864196,0)" xlink:href="#aI"/><use transform="matrix(0.06172839506172839,0,0,0.06172839506172839,38.20987654320987,0)" xlink:href="#aG"/><use transform="matrix(0.06172839506172839,0,0,0.06172839506172839,50.55555555555555,0)" xlink:href="#an"/><use transform="matrix(0.06172839506172839,0,0,0.06172839506172839,56.72839506172839,0)" xlink:href="#au"/></g><g id="aa"><use transform="matrix(0.06172839506172839,0,0,0.06172839506172839,0,0)" xlink:href="#am"/><use transform="matrix(0.06172839506172839,0,0,0.06172839506172839,14.814814814814813,0)" xlink:href="#at"/><use transform="matrix(0.06172839506172839,0,0,0.06172839506172839,27.160493827160494,0)" xlink:href="#aA"/><use transform="matrix(0.06172839506172839,0,0,0.06172839506172839,32.03703703703704,0)" xlink:href="#at"/><use transform="matrix(0.06172839506172839,0,0,0.06172839506172839,44.382716049382715,0)" xlink:href="#ay"/><use transform="matrix(0.06172839506172839,0,0,0.06172839506172839,55.49382716049382,0)" xlink:href="#an"/></g><g id="ab"><use transform="matrix(0.06172839506172839,0,0,0.06172839506172839,0,0)" xlink:href="#aK"/><use transform="matrix(0.06172839506172839,0,0,0.06172839506172839,15.987654320987653,0)" xlink:href="#ar"/><use transform="matrix(0.06172839506172839,0,0,0.06172839506172839,28.333333333333332,0)" xlink:href="#aG"/><use transform="matrix(0.06172839506172839,0,0,0.06172839506172839,40.67901234567901,0)" xlink:href="#ap"/><use transform="matrix(0.06172839506172839,0,0,0.06172839506172839,48.02469135802469,0)" xlink:href="#aF"/><use transform="matrix(0.06172839506172839,0,0,0.06172839506172839,59.1358024691358,0)" xlink:href="#at"/><use transform="matrix(0.06172839506172839,0,0,0.06172839506172839,71.48148148148148,0)" xlink:href="#aS"/></g><g id="ac"><use transform="matrix(0.06172839506172839,0,0,0.06172839506172839,0,0)" xlink:href="#aQ"/><use transform="matrix(0.06172839506172839,0,0,0.06172839506172839,14.814814814814813,0)" xlink:href="#aF"/><use transform="matrix(0.06172839506172839,0,0,0.06172839506172839,25.925925925925924,0)" xlink:href="#aF"/><use transform="matrix(0.06172839506172839,0,0,0.06172839506172839,37.03703703703704,0)" xlink:href="#ax"/><use transform="matrix(0.06172839506172839,0,0,0.06172839506172839,41.91358024691358,0)" xlink:href="#aC"/><use transform="matrix(0.06172839506172839,0,0,0.06172839506172839,54.25925925925926,0)" xlink:href="#aw"/></g><g id="ad"><use transform="matrix(0.06172839506172839,0,0,0.06172839506172839,0,0)" xlink:href="#am"/><use transform="matrix(0.06172839506172839,0,0,0.06172839506172839,14.814814814814813,0)" xlink:href="#an"/><use transform="matrix(0.06172839506172839,0,0,0.06172839506172839,20.98765432098765,0)" xlink:href="#aG"/><use transform="matrix(0.06172839506172839,0,0,0.06172839506172839,33.33333333333333,0)" xlink:href="#as"/><use transform="matrix(0.06172839506172839,0,0,0.06172839506172839,45.679012345679006,0)" xlink:href="#at"/><use transform="matrix(0.06172839506172839,0,0,0.06172839506172839,58.02469135802468,0)" xlink:href="#aw"/><use transform="matrix(0.06172839506172839,0,0,0.06172839506172839,70.37037037037037,0)" xlink:href="#an"/><use transform="matrix(0.06172839506172839,0,0,0.06172839506172839,76.5432098765432,0)" xlink:href="#aF"/><use transform="matrix(0.06172839506172839,0,0,0.06172839506172839,87.65432098765432,0)" xlink:href="#aS"/></g><g id="ae"><use transform="matrix(0.06172839506172839,0,0,0.06172839506172839,0,0)" xlink:href="#aL"/><use transform="matrix(0.06172839506172839,0,0,0.06172839506172839,14.814814814814813,0)" xlink:href="#aw"/><use transform="matrix(0.06172839506172839,0,0,0.06172839506172839,27.160493827160494,0)" xlink:href="#as"/></g><path fill="#3a414a" d="M230 0l2-204L168 0h-37L68-204 70 0H24v-248h70l56 185 57-185h69V0h-46" id="bc"/><path fill="#3a414a" d="M133-34C117-15 103 5 69 4 32 3 11-16 11-54c-1-60 55-63 116-61 1-26-3-47-28-47-18 1-26 9-28 27l-52-2c7-38 36-58 82-57s74 22 75 68l1 82c-1 14 12 18 25 15v27c-30 8-71 5-69-32zm-48 3c29 0 43-24 42-57-32 0-66-3-65 30 0 17 8 27 23 27" id="bd"/><path fill="#3a414a" d="M135-194c87-1 58 113 63 194h-50c-7-57 23-157-34-157-59 0-34 97-39 157H25l-1-190h47c2 12-1 28 3 38 12-26 28-41 61-42" id="be"/><path fill="#3a414a" d="M195-6C206 82 75 100 31 46c-4-6-6-13-8-21l49-6c3 16 16 24 34 25 40 0 42-37 40-79-11 22-30 35-61 35-53 0-70-43-70-97 0-56 18-96 73-97 30 0 46 14 59 34l2-30h47zm-90-29c32 0 41-27 41-63 0-35-9-62-40-62-32 0-39 29-40 63 0 36 9 62 39 62" id="bf"/><path fill="#3a414a" d="M185-48c-13 30-37 53-82 52C43 2 14-33 14-96s30-98 90-98c62 0 83 45 84 108H66c0 31 8 55 39 56 18 0 30-7 34-22zm-45-69c5-46-57-63-70-21-2 6-4 13-4 21h74" id="bg"/><g id="af"><use transform="matrix(0.04938271604938272,0,0,0.04938271604938272,0,0)" xlink:href="#bc"/><use transform="matrix(0.04938271604938272,0,0,0.04938271604938272,14.765432098765434,0)" xlink:href="#bd"/><use transform="matrix(0.04938271604938272,0,0,0.04938271604938272,24.641975308641978,0)" xlink:href="#be"/><use transform="matrix(0.04938271604938272,0,0,0.04938271604938272,35.45679012345679,0)" xlink:href="#bd"/><use transform="matrix(0.04938271604938272,0,0,0.04938271604938272,45.333333333333336,0)" xlink:href="#bf"/><use transform="matrix(0.04938271604938272,0,0,0.04938271604938272,56.14814814814815,0)" xlink:href="#bg"/></g><path fill="#3a414a" d="M169-182c-1-43-94-46-97-3 18 66 151 10 154 114 3 95-165 93-204 36-6-8-10-19-12-30l50-8c3 46 112 56 116 5-17-69-150-10-154-114-4-87 153-88 188-35 5 8 8 18 10 28" id="bh"/><path fill="#3a414a" d="M115-3C79 11 28 4 28-45v-112H4v-33h27l15-45h31v45h36v33H77v99c-1 23 16 31 38 25v30" id="bi"/><path fill="#3a414a" d="M85 4C-2 5 27-109 22-190h50c7 57-23 150 33 157 60-5 35-97 40-157h50l1 190h-47c-2-12 1-28-3-38-12 25-28 42-61 42" id="bj"/><path fill="#3a414a" d="M88-194c31-1 46 15 58 34l-1-101h50l1 261h-48c-2-10 0-23-3-31C134-8 116 4 84 4 32 4 16-41 15-95c0-56 19-97 73-99zm17 164c33 0 40-30 41-66 1-37-9-64-41-64s-38 30-39 65c0 43 13 65 39 65" id="bk"/><path fill="#3a414a" d="M137-138c1-29-70-34-71-4 15 46 118 7 119 86 1 83-164 76-172 9l43-7c4 19 20 25 44 25 33 8 57-30 24-41C81-84 22-81 20-136c-2-80 154-74 161-7" id="bl"/><g id="ag"><use transform="matrix(0.04938271604938272,0,0,0.04938271604938272,0,0)" xlink:href="#bh"/><use transform="matrix(0.04938271604938272,0,0,0.04938271604938272,11.851851851851853,0)" xlink:href="#bi"/><use transform="matrix(0.04938271604938272,0,0,0.04938271604938272,17.728395061728396,0)" xlink:href="#bj"/><use transform="matrix(0.04938271604938272,0,0,0.04938271604938272,28.543209876543205,0)" xlink:href="#bk"/><use transform="matrix(0.04938271604938272,0,0,0.04938271604938272,39.358024691358025,0)" xlink:href="#bg"/><use transform="matrix(0.04938271604938272,0,0,0.04938271604938272,49.23456790123457,0)" xlink:href="#be"/><use transform="matrix(0.04938271604938272,0,0,0.04938271604938272,60.04938271604939,0)" xlink:href="#bi"/><use transform="matrix(0.04938271604938272,0,0,0.04938271604938272,65.92592592592592,0)" xlink:href="#bl"/></g><path fill="#3a414a" d="M136-208V0H84v-208H4v-40h212v40h-80" id="bm"/><path fill="#3a414a" d="M190-63c-7 42-38 67-86 67-59 0-84-38-90-98-12-110 154-137 174-36l-49 2c-2-19-15-32-35-32-30 0-35 28-38 64-6 74 65 87 74 30" id="bn"/><path fill="#3a414a" d="M114-157C55-157 80-60 75 0H25v-261h50l-1 109c12-26 28-41 61-42 86-1 58 113 63 194h-50c-7-57 23-157-34-157" id="bo"/><path fill="#3a414a" d="M135-150c-39-12-60 13-60 57V0H25l-1-190h47c2 13-1 29 3 40 6-28 27-53 61-41v41" id="bp"/><g id="ah"><use transform="matrix(0.04938271604938272,0,0,0.04938271604938272,0,0)" xlink:href="#bm"/><use transform="matrix(0.04938271604938272,0,0,0.04938271604938272,9.481481481481481,0)" xlink:href="#bg"/><use transform="matrix(0.04938271604938272,0,0,0.04938271604938272,19.358024691358025,0)" xlink:href="#bd"/><use transform="matrix(0.04938271604938272,0,0,0.04938271604938272,29.23456790123457,0)" xlink:href="#bn"/><use transform="matrix(0.04938271604938272,0,0,0.04938271604938272,39.111111111111114,0)" xlink:href="#bo"/><use transform="matrix(0.04938271604938272,0,0,0.04938271604938272,49.92592592592593,0)" xlink:href="#bg"/><use transform="matrix(0.04938271604938272,0,0,0.04938271604938272,59.802469135802475,0)" xlink:href="#bp"/><use transform="matrix(0.04938271604938272,0,0,0.04938271604938272,66.71604938271605,0)" xlink:href="#bl"/></g><path fill="#3a414a" d="M67-125c0 53 21 87 73 88 37 1 54-22 65-47l45 17C233-25 199 4 140 4 58 4 20-42 15-125 8-235 124-281 211-232c18 10 29 29 36 50l-46 12c-8-25-30-41-62-41-52 0-71 34-72 86" id="bq"/><path fill="#3a414a" d="M110-194c64 0 96 36 96 99 0 64-35 99-97 99-61 0-95-36-95-99 0-62 34-99 96-99zm-1 164c35 0 45-28 45-65 0-40-10-65-43-65-34 0-45 26-45 65 0 36 10 65 43 65" id="br"/><g id="ai"><use transform="matrix(0.04938271604938272,0,0,0.04938271604938272,0,0)" xlink:href="#bq"/><use transform="matrix(0.04938271604938272,0,0,0.04938271604938272,12.790123456790125,0)" xlink:href="#br"/><use transform="matrix(0.04938271604938272,0,0,0.04938271604938272,23.60493827160494,0)" xlink:href="#bj"/><use transform="matrix(0.04938271604938272,0,0,0.04938271604938272,34.41975308641975,0)" xlink:href="#bp"/><use transform="matrix(0.04938271604938272,0,0,0.04938271604938272,41.333333333333336,0)" xlink:href="#bl"/><use transform="matrix(0.04938271604938272,0,0,0.04938271604938272,51.20987654320988,0)" xlink:href="#bg"/><use transform="matrix(0.04938271604938272,0,0,0.04938271604938272,61.086419753086425,0)" xlink:href="#bl"/></g><path fill="#3a414a" d="M24 0v-248h195v40H76v63h132v40H76v65h150V0H24" id="bs"/><path fill="#3a414a" d="M144 0l-44-69L55 0H2l70-98-66-92h53l41 62 40-62h54l-67 91 71 99h-54" id="bt"/><path fill="#3a414a" d="M25-224v-37h50v37H25zM25 0v-190h50V0H25" id="bu"/><g id="aj"><use transform="matrix(0.04938271604938272,0,0,0.04938271604938272,0,0)" xlink:href="#bs"/><use transform="matrix(0.04938271604938272,0,0,0.04938271604938272,11.851851851851853,0)" xlink:href="#bt"/><use transform="matrix(0.04938271604938272,0,0,0.04938271604938272,21.7283950617284,0)" xlink:href="#bu"/><use transform="matrix(0.04938271604938272,0,0,0.04938271604938272,26.666666666666668,0)" xlink:href="#bi"/></g><path fill="#3a414a" d="M146-102V0H94v-102L6-248h54l60 105 60-105h54" id="bv"/><g id="ak"><use transform="matrix(0.04938271604938272,0,0,0.04938271604938272,0,0)" xlink:href="#bv"/><use transform="matrix(0.04938271604938272,0,0,0.04938271604938272,10.864197530864198,0)" xlink:href="#bg"/><use transform="matrix(0.04938271604938272,0,0,0.04938271604938272,20.74074074074074,0)" xlink:href="#bl"/></g><path fill="#3a414a" d="M175 0L67-191c6 58 2 128 3 191H24v-248h59L193-55c-6-58-2-129-3-193h46V0h-61" id="bw"/><g id="al"><use transform="matrix(0.04938271604938272,0,0,0.04938271604938272,0,0)" xlink:href="#bw"/><use transform="matrix(0.04938271604938272,0,0,0.04938271604938272,12.790123456790125,0)" xlink:href="#br"/></g></defs></g></svg>